<?xml version="1.0" encoding="utf-8" standalone="yes"?>
<!DOCTYPE svg PUBLIC "-//W3C//DTD SVG 1.1//EN" "http://www.w3.org/Graphics/SVG/1.1/DTD/svg11.dtd">
<svg width="821" height="481" viewBox="0 0 821 481" style="fill:none;stroke:none;fill-rule:evenodd;clip-rule:evenodd;stroke-linecap:round;stroke-linejoin:round;stroke-miterlimit:1.5;" version="1.1" xmlns="http://www.w3.org/2000/svg" xmlns:xlink="http://www.w3.org/1999/xlink"><style class="text-font-style fontImports" data-font-family="Roboto">@import url(https://fonts.googleapis.com/css2?family=Roboto:wght@400;700&amp;amp;display=block);</style><g id="items" style="isolation: isolate"><g id="blend" style="mix-blend-mode: normal"><g id="g-root-cp_1_g-1_zqwyfm140g16v-fill" data-item-order="999647522" transform="translate(38, 63)"><g id="cp_1_g-1_zqwyfm140g16v-fill" stroke="none" fill="#1eabda"><g><path d="M 501.3244 21.1044L 477.7455 77.1044C 476.4964 80.071 473.5912 82 470.3724 82L 470 82L 470 10L 493.9514 10C 499.6728 10 503.5447 15.8314 501.3244 21.1044ZM 134 82L 134 10L 470 10L 470 82L 134 82ZM 126.254516 77.1044L 102.675516 21.1045C 100.455316 15.8314 104.327216 10 110.048616 10L 134.000016 10L 134.000016 82L 133.627616 82C 130.408816 82 127.503616 80.071 126.254516 77.1044Z"></path></g></g><g id="cp_1_g-1_zqwyfm140g16v-fill" stroke="none" fill="#1eabda"><g><path d="M 10 46C 10 65.882251 26.117749 82 46 82C 65.882251 82 82 65.882251 82 46C 82 26.117749 65.882251 10 46 10C 26.117749 10 10 26.117749 10 46"></path></g></g></g><g id="g-root-cp_2_g-2_vb3gb6140g1z4-fill" data-item-order="999647552" transform="translate(78, 159)"><g id="cp_2_g-2_vb3gb6140g1z4-fill" stroke="none" fill="#3cc583"><g><path d="M 390 82L 390 10L 413.1093 10C 418.8307 10 422.7026 15.8314 420.4824 21.1045L 396.7211 77.5373C 395.5825 80.2415 392.9341 82 390 82ZM 390 82L 390 10L 134 10L 134 82L 390 82ZM 133.998863 82L 133.626463 82C 130.407663 82 127.502363 80.071 126.253363 77.1045L 102.674363 21.1045C 100.454163 15.8314 104.326062 10 110.047463 10L 133.998863 10L 133.998863 82Z"></path></g></g><g id="cp_2_g-2_vb3gb6140g1z4-fill" stroke="none" fill="#3cc583"><g><path d="M 10 46C 10 65.882251 26.117749 82 46 82C 65.882251 82 82 65.882251 82 46C 82 26.117749 65.882251 10 46 10C 26.117749 10 10 26.117749 10 46"></path></g></g></g><g id="g-root-cp_3_g-3_vb3gb6140g1z5-fill" data-item-order="999647580" transform="translate(119, 255)"><g id="cp_3_g-3_vb3gb6140g1z5-fill" stroke="none" fill="#92bd39"><g><path d="M 126.253363 77.1045L 102.674363 21.1045C 100.454163 15.8314 104.326063 10 110.047463 10L 132.998063 10L 132.998063 82C 129.779263 82 127.502463 80.071 126.253363 77.1045ZM 309 82L 133 82L 133 10L 309 10L 309 82ZM 316.0621 77.1045L 339.6411 21.1045C 341.8613 15.8314 337.9894 10 332.2679 10L 309 10L 309 82C 312.2187 82 314.813 80.071 316.0621 77.1045Z"></path></g></g><g id="cp_3_g-3_vb3gb6140g1z5-fill" stroke="none" fill="#92bd39"><g><path d="M 10 46C 10 65.882251 26.117749 82 46 82C 65.882251 82 82 65.882251 82 46C 82 26.117749 65.882251 10 46 10C 26.117749 10 10 26.117749 10 46"></path></g></g></g><g id="g-root-cp_4_g-4_vb3gb6140g1z6-fill" data-item-order="999647608" transform="translate(159, 351)"><g id="cp_4_g-4_vb3gb6140g1z6-fill" stroke="none" fill="#e0cb15"><g><path d="M 229 82L 229 10L 251.425 10C 257.1465 10 261.0184 15.8314 258.7981 21.1044L 234.7714 78.1679C 233.7937 80.49 231.5195 82 229 82ZM 229 82L 229 10L 133 10L 133 82L 229 82ZM 132.998863 82L 132.998863 10L 110.047463 10C 104.326063 10 100.454163 15.8314 102.674363 21.1045L 126.496862 77.6829C 127.598363 80.2989 130.160363 82 132.998863 82Z"></path></g></g><g id="cp_4_g-4_vb3gb6140g1z6-fill" stroke="none" fill="#e0cb15"><g><path d="M 10 46C 10 65.882251 26.117749 82 46 82C 65.882251 82 82 65.882251 82 46C 82 26.117749 65.882251 10 46 10C 26.117749 10 10 26.117749 10 46"></path></g></g></g><g id="g-root-ic_spee_qn5s2a140hfkd-fill" data-item-order="1000000000" transform="translate(50, 75)"></g><g id="g-root-tx_theagent_1heg7ki140adqg-fill" data-item-order="1000000000" transform="translate(547, 69)"><g id="tx_theagent_1heg7ki140adqg-fill" stroke="none" fill="#484848"><g><text style="font-style: normal; font-variant-caps: normal; font-weight: normal; font-width: normal; font-size: 15px; line-height: normal; font-family: Roboto, sans-serif; font-size-adjust: none; font-kerning: auto; font-variant-alternates: normal; font-variant-ligatures: normal; font-variant-numeric: normal; font-variant-east-asian: normal; font-variant-position: normal; font-variant-emoji: normal; font-feature-settings: normal; font-optical-sizing: auto; font-variation-settings: normal; white-space: pre;"><tspan x="12" y="28" dominant-baseline="ideographic">The agent sends a </tspan><tspan x="12" y="46" dominant-baseline="ideographic">message</tspan></text></g></g></g><g id="g-root-tx_messagec_1qf2xci140g078-fill" data-item-order="1000000000" transform="translate(246, 87)"><g id="tx_messagec_1qf2xci140g078-fill" stroke="none" fill="#ffffff"><g><text style="font-style: normal; font-variant-caps: normal; font-weight: bold; font-width: normal; font-size: 20px; line-height: normal; font-family: Roboto, sans-serif; font-size-adjust: none; font-kerning: auto; font-variant-alternates: normal; font-variant-ligatures: normal; font-variant-numeric: normal; font-variant-east-asian: normal; font-variant-position: normal; font-variant-emoji: normal; font-feature-settings: normal; font-optical-sizing: auto; font-variation-settings: normal; white-space: pre;"><tspan x="13.43" y="34" dominant-baseline="ideographic">Message Channel</tspan></text></g></g></g><g id="g-root-ic_reco_hriuz6140btad-fill" data-item-order="1000000000" transform="translate(90, 171)"></g><g id="g-root-tx_theorche_1qaps2a140pt6z-fill" data-item-order="1000000000" transform="translate(506, 165)"><g id="tx_theorche_1qaps2a140pt6z-fill" stroke="none" fill="#484848"><g><text style="font-style: normal; font-variant-caps: normal; font-weight: normal; font-width: normal; font-size: 15px; line-height: normal; font-family: Roboto, sans-serif; font-size-adjust: none; font-kerning: auto; font-variant-alternates: normal; font-variant-ligatures: normal; font-variant-numeric: normal; font-variant-east-asian: normal; font-variant-position: normal; font-variant-emoji: normal; font-feature-settings: normal; font-optical-sizing: auto; font-variation-settings: normal; white-space: pre;"><tspan x="12" y="28" dominant-baseline="ideographic">The orchestrator </tspan><tspan x="12" y="46" dominant-baseline="ideographic">processes the message</tspan></text></g></g></g><g id="g-root-tx_orchestr_1qegjf6140afij-fill" data-item-order="1000000000" transform="translate(270, 183)"><g id="tx_orchestr_1qegjf6140afij-fill" stroke="none" fill="#ffffff"><g><text style="font-style: normal; font-variant-caps: normal; font-weight: bold; font-width: normal; font-size: 20px; line-height: normal; font-family: Roboto, sans-serif; font-size-adjust: none; font-kerning: auto; font-variant-alternates: normal; font-variant-ligatures: normal; font-variant-numeric: normal; font-variant-east-asian: normal; font-variant-position: normal; font-variant-emoji: normal; font-feature-settings: normal; font-optical-sizing: auto; font-variation-settings: normal; white-space: pre;"><tspan x="13.19" y="34" dominant-baseline="ideographic">Orchestrator</tspan></text></g></g></g><g id="g-root-ic_cale_8x4w2a140r7y8-fill" data-item-order="1000000000" transform="translate(131, 267)"></g><g id="g-root-tx_theevent_1hd7fpu1408zd2-fill" data-item-order="1000000000" transform="translate(466, 261)"><g id="tx_theevent_1hd7fpu1408zd2-fill" stroke="none" fill="#484848"><g><text style="font-style: normal; font-variant-caps: normal; font-weight: normal; font-width: normal; font-size: 15px; line-height: normal; font-family: Roboto, sans-serif; font-size-adjust: none; font-kerning: auto; font-variant-alternates: normal; font-variant-ligatures: normal; font-variant-numeric: normal; font-variant-east-asian: normal; font-variant-position: normal; font-variant-emoji: normal; font-feature-settings: normal; font-optical-sizing: auto; font-variation-settings: normal; white-space: pre;"><tspan x="12" y="28" dominant-baseline="ideographic">The event manager </tspan><tspan x="12" y="46" dominant-baseline="ideographic">triggers events</tspan></text></g></g></g><g id="g-root-tx_eventman_1lpwh8y140r7ym-fill" data-item-order="1000000000" transform="translate(258, 279)"><g id="tx_eventman_1lpwh8y140r7ym-fill" stroke="none" fill="#ffffff"><g><text style="font-style: normal; font-variant-caps: normal; font-weight: bold; font-width: normal; font-size: 20px; line-height: normal; font-family: Roboto, sans-serif; font-size-adjust: none; font-kerning: auto; font-variant-alternates: normal; font-variant-ligatures: normal; font-variant-numeric: normal; font-variant-east-asian: normal; font-variant-position: normal; font-variant-emoji: normal; font-feature-settings: normal; font-optical-sizing: auto; font-variation-settings: normal; white-space: pre;"><tspan x="14.39" y="34" dominant-baseline="ideographic">Event Manager</tspan></text></g></g></g><g id="g-root-ic_exch_18mk85u14090cg-fill" data-item-order="1000000000" transform="translate(171, 363)"></g><g id="g-root-tx_actionsa_1lqj1hu140g0so-fill" data-item-order="1000000000" transform="translate(426, 357)"><g id="tx_actionsa_1lqj1hu140g0so-fill" stroke="none" fill="#484848"><g><text style="font-style: normal; font-variant-caps: normal; font-weight: normal; font-width: normal; font-size: 15px; line-height: normal; font-family: Roboto, sans-serif; font-size-adjust: none; font-kerning: auto; font-variant-alternates: normal; font-variant-ligatures: normal; font-variant-numeric: normal; font-variant-east-asian: normal; font-variant-position: normal; font-variant-emoji: normal; font-feature-settings: normal; font-optical-sizing: auto; font-variation-settings: normal; white-space: pre;"><tspan x="12" y="28" dominant-baseline="ideographic">Actions are performed </tspan><tspan x="12" y="46" dominant-baseline="ideographic">based on events</tspan></text></g></g></g><g id="g-root-tx_callback_hye98y14091c6-fill" data-item-order="1000000000" transform="translate(282, 375)"><g id="tx_callback_hye98y14091c6-fill" stroke="none" fill="#ffffff"><g><text style="font-style: normal; font-variant-caps: normal; font-weight: bold; font-width: normal; font-size: 20px; line-height: normal; font-family: Roboto, sans-serif; font-size-adjust: none; font-kerning: auto; font-variant-alternates: normal; font-variant-ligatures: normal; font-variant-numeric: normal; font-variant-east-asian: normal; font-variant-position: normal; font-variant-emoji: normal; font-feature-settings: normal; font-optical-sizing: auto; font-variation-settings: normal; white-space: pre;"><tspan x="14.07" y="34" dominant-baseline="ideographic">Callbacks</tspan></text></g></g></g><g id="g-root-cp_1_g-1_zqwyfm140g16v-stroke" data-item-order="999647522" transform="translate(38, 63)"><g id="cp_1_g-1_zqwyfm140g16v-stroke" fill="none" stroke-linecap="round" stroke-linejoin="round" stroke-miterlimit="4" stroke="#ffffff" stroke-width="2"><g><path d="M 470 10L 493.9514 10C 499.6728 10 503.5447 15.8314 501.3244 21.1044L 477.7455 77.1044C 476.4964 80.071 473.5912 82 470.3724 82L 470 82M 134 82L 470 82M 134 10L 470 10M 134.000016 82L 133.627616 82C 130.408816 82 127.503616 80.071 126.254516 77.1044L 102.675516 21.1045C 100.455316 15.8314 104.327216 10 110.048616 10L 134.000016 10"></path></g></g><g id="cp_1_g-1_zqwyfm140g16v-stroke" fill="none" stroke-linecap="round" stroke-linejoin="round" stroke-miterlimit="4" stroke="#ffffff" stroke-width="2"><g><path d="M 10 46C 10 65.882251 26.117749 82 46 82C 65.882251 82 82 65.882251 82 46C 82 26.117749 65.882251 10 46 10C 26.117749 10 10 26.117749 10 46"></path></g></g></g><g id="g-root-cp_2_g-2_vb3gb6140g1z4-stroke" data-item-order="999647552" transform="translate(78, 159)"><g id="cp_2_g-2_vb3gb6140g1z4-stroke" fill="none" stroke-linecap="round" stroke-linejoin="round" stroke-miterlimit="4" stroke="#ffffff" stroke-width="2"><g><path d="M 390 82C 392.9341 82 395.5825 80.2415 396.7211 77.5373L 420.4824 21.1045C 422.7026 15.8314 418.8307 10 413.1093 10L 390 10M 133.919674 10L 390.001251 10M 390.001251 82L 133.919674 82L 133.628929 82M 133.998863 82L 133.626463 82C 130.407663 82 127.502363 80.071 126.253363 77.1045L 102.674363 21.1045C 100.454163 15.8314 104.326062 10 110.047463 10L 133.998863 10"></path></g></g><g id="cp_2_g-2_vb3gb6140g1z4-stroke" fill="none" stroke-linecap="round" stroke-linejoin="round" stroke-miterlimit="4" stroke="#ffffff" stroke-width="2"><g><path d="M 10 46C 10 65.882251 26.117749 82 46 82C 65.882251 82 82 65.882251 82 46C 82 26.117749 65.882251 10 46 10C 26.117749 10 10 26.117749 10 46"></path></g></g></g><g id="g-root-cp_3_g-3_vb3gb6140g1z5-stroke" data-item-order="999647580" transform="translate(119, 255)"><g id="cp_3_g-3_vb3gb6140g1z5-stroke" fill="none" stroke-linecap="round" stroke-linejoin="round" stroke-miterlimit="4" stroke="#ffffff" stroke-width="2"><g><path d="M 132.998063 82C 129.779263 82 127.502463 80.071 126.253363 77.1045L 102.674363 21.1045C 100.454163 15.8314 104.326063 10 110.047463 10L 132.998063 10M 309 82L 133 82M 309 10L 133 10M 309 82C 312.2187 82 314.813 80.071 316.0621 77.1045L 339.6411 21.1045C 341.8613 15.8314 337.9894 10 332.2679 10L 309 10"></path></g></g><g id="cp_3_g-3_vb3gb6140g1z5-stroke" fill="none" stroke-linecap="round" stroke-linejoin="round" stroke-miterlimit="4" stroke="#ffffff" stroke-width="2"><g><path d="M 10 46C 10 65.882251 26.117749 82 46 82C 65.882251 82 82 65.882251 82 46C 82 26.117749 65.882251 10 46 10C 26.117749 10 10 26.117749 10 46"></path></g></g></g><g id="g-root-cp_4_g-4_vb3gb6140g1z6-stroke" data-item-order="999647608" transform="translate(159, 351)"><g id="cp_4_g-4_vb3gb6140g1z6-stroke" fill="none" stroke-linecap="round" stroke-linejoin="round" stroke-miterlimit="4" stroke="#ffffff" stroke-width="2"><g><path d="M 229 82C 231.5195 82 233.7937 80.49 234.7714 78.1679L 258.7981 21.1044C 261.0184 15.8314 257.1465 10 251.425 10L 229 10M 229 82L 133 82M 229 10L 133 10M 132.998863 82C 130.160363 82 127.598363 80.2989 126.496862 77.6829L 102.674363 21.1045C 100.454163 15.8314 104.326063 10 110.047463 10L 132.998863 10"></path></g></g><g id="cp_4_g-4_vb3gb6140g1z6-stroke" fill="none" stroke-linecap="round" stroke-linejoin="round" stroke-miterlimit="4" stroke="#ffffff" stroke-width="2"><g><path d="M 10 46C 10 65.882251 26.117749 82 46 82C 65.882251 82 82 65.882251 82 46C 82 26.117749 65.882251 10 46 10C 26.117749 10 10 26.117749 10 46"></path></g></g></g><g id="g-root-ic_spee_qn5s2a140hfkd-stroke" data-item-order="1000000000" transform="translate(50, 75)"><g id="ic_spee_qn5s2a140hfkd-stroke" fill="none" stroke-linecap="round" stroke-linejoin="round" stroke-miterlimit="4" stroke="#ffffff" stroke-width="2"><g><path d="M 26.83 23L 26.83 13.308001C 26.83 12.033327 27.863327 11 29.138 11L 54.521999 11C 55.796673 11 56.830002 12.033327 56.830002 13.308001L 56.830002 30.691999C 56.830002 31.966673 55.796673 33 54.521999 33L 43.560001 33L 34.905998 39L 34.905998 33L 31.138 33M 32.905998 17L 50.751999 17M 32.905998 22L 50.751999 22M 32.905998 27L 44.138 27M 34.742001 54.858002C 34.740898 56.040539 33.782539 56.998898 32.599998 57L 13.314 57C 12.130682 57 11.171103 56.041317 11.17 54.858002L 11.17 49.5C 11.17 42.990772 16.446772 37.714001 22.956001 37.714001C 29.465229 37.714001 34.742001 42.990772 34.742001 49.5ZM 18.456001 45C 18.456001 45.276142 18.679857 45.5 18.956001 45.5C 19.232143 45.5 19.456001 45.276142 19.456001 45C 19.456001 44.723858 19.232143 44.5 18.956001 44.5C 18.679857 44.5 18.456001 44.723858 18.456001 45M 26.455999 44.987999C 26.455999 45.264141 26.679857 45.487999 26.955999 45.487999C 27.232141 45.487999 27.455999 45.264141 27.455999 44.987999C 27.455999 44.711857 27.232141 44.487999 26.955999 44.487999C 26.679857 44.487999 26.455999 44.711857 26.455999 44.987999M 22.956001 37.714001L 22.956001 33.428001M 19.742001 30.214001C 19.742001 31.989044 21.180958 33.428001 22.956001 33.428001C 24.731045 33.428001 26.17 31.989044 26.17 30.214001C 26.17 28.438957 24.731045 27 22.956001 27C 21.180958 27 19.742001 28.438957 19.742001 30.214001M 11.17 51.630001L 34.742001 51.630001"></path></g></g></g><g id="g-root-tx_theagent_1heg7ki140adqg-stroke" data-item-order="1000000000" transform="translate(547, 69)"></g><g id="g-root-tx_messagec_1qf2xci140g078-stroke" data-item-order="1000000000" transform="translate(246, 87)"></g><g id="g-root-ic_reco_hriuz6140btad-stroke" data-item-order="1000000000" transform="translate(90, 171)"><g id="ic_reco_hriuz6140btad-stroke" fill="none" stroke-linecap="round" stroke-linejoin="round" stroke-miterlimit="4" stroke="#ffffff" stroke-width="2"><g><path d="M 34.571999 54.858002C 34.570896 56.041317 33.61132 57 32.428001 57L 13.142 57C 11.959463 56.998898 11.001102 56.040539 11 54.858002L 11 49.5C 11 42.990772 16.276772 37.714001 22.785999 37.714001C 29.295229 37.714001 34.571999 42.990772 34.571999 49.5ZM 18.285999 45C 18.285999 45.276142 18.509857 45.5 18.785999 45.5C 19.062141 45.5 19.285999 45.276142 19.285999 45C 19.285999 44.723858 19.062141 44.5 18.785999 44.5C 18.509857 44.5 18.285999 44.723858 18.285999 45M 26.285999 44.987999C 26.285999 45.264141 26.509857 45.487999 26.785999 45.487999C 27.062143 45.487999 27.285999 45.264141 27.285999 44.987999C 27.285999 44.711857 27.062143 44.487999 26.785999 44.487999C 26.509857 44.487999 26.285999 44.711857 26.285999 44.987999M 22.785999 37.714001L 22.785999 33.428001M 19.571999 30.214001C 19.572001 31.989044 21.010956 33.428001 22.785999 33.428001C 24.561043 33.428001 26 31.989044 26 30.214001C 26 28.438957 24.561043 27 22.785999 27C 21.010956 27 19.572001 28.438957 19.572001 30.214001M 11 51.630001L 34.571999 51.630001M 27 21L 27 23.5M 32 19L 32 31M 37 17L 37 33M 57 21L 57 29M 52 19L 52 31M 47 17L 47 33M 42 11L 42 39"></path></g></g></g><g id="g-root-tx_theorche_1qaps2a140pt6z-stroke" data-item-order="1000000000" transform="translate(506, 165)"></g><g id="g-root-tx_orchestr_1qegjf6140afij-stroke" data-item-order="1000000000" transform="translate(270, 183)"></g><g id="g-root-ic_cale_8x4w2a140r7y8-stroke" data-item-order="1000000000" transform="translate(131, 267)"><g id="ic_cale_8x4w2a140r7y8-stroke" fill="none" stroke-linecap="round" stroke-linejoin="round" stroke-miterlimit="4" stroke="#ffffff" stroke-width="2"><g><path d="M 22.438 25.360001L 22.438 19.26C 22.441311 17.016754 24.26075 15.199997 26.504 15.2L 52.933998 15.2C 55.177246 15.199997 56.996689 17.016754 57 19.259998L 57 45.689999C 57 47.935589 55.179588 49.756001 52.933998 49.756001L 41.751999 49.756001M 22.438 23.326L 57 23.326M 39.720001 30.950001L 48.34 30.950001L 41.444 42.158001M 30.969999 11.128L 30.969999 18.792M 48.467999 11.128L 48.467999 18.792M 39.720001 11.128L 39.720001 18.792M 20.147999 43.147999C 20.147757 44.832638 21.513359 46.198441 23.198 46.198441C 24.882641 46.198441 26.248243 44.832638 26.247999 43.147999C 26.248243 41.463356 24.882641 40.097557 23.198 40.097557C 21.513359 40.097557 20.147757 41.463356 20.147999 43.147999M 25.788 31.351999L 26.688 34.304001C 26.994715 35.321869 28.037865 35.927826 29.073999 35.690002L 32.073997 34.996002C 33.240116 34.727833 34.444618 35.25264 35.042229 36.289268C 35.639843 37.325897 35.490417 38.631237 34.673996 39.505997L 32.580002 41.764C 31.856089 42.545444 31.856089 43.75256 32.580002 44.534004L 34.658001 46.799999C 35.471016 47.673649 35.620125 48.975002 35.025803 50.009911C 34.431473 51.044819 33.23233 51.571896 32.068001 51.309998L 29.068001 50.616001C 28.034439 50.381554 26.995428 50.985752 26.688 52L 25.788 54.953999C 25.444916 56.097809 24.392157 56.881134 23.198 56.881134C 22.003841 56.881134 20.951084 56.097809 20.608 54.953999L 19.708 52C 19.408005 50.97678 18.363739 50.363537 17.323999 50.599998L 14.323999 51.293999C 13.166933 51.543537 11.981233 51.01672 11.390873 49.990784C 10.800514 48.964844 10.940838 47.674988 11.738 46.799999L 13.834 44.542C 14.555983 43.759804 14.555983 42.554199 13.834 41.772003L 11.738 39.506001C 10.921582 38.631237 10.772155 37.325897 11.369768 36.289268C 11.967382 35.25264 13.171882 34.727833 14.337999 34.995998L 17.337999 35.690002C 18.37347 35.926636 19.415321 35.32093 19.722 34.304001L 20.622 31.351999C 20.972599 30.219757 22.019718 29.447828 23.205 29.447828C 24.390282 29.447828 25.437399 30.219757 25.787998 31.351999Z"></path></g></g></g><g id="g-root-tx_theevent_1hd7fpu1408zd2-stroke" data-item-order="1000000000" transform="translate(466, 261)"></g><g id="g-root-tx_eventman_1lpwh8y140r7ym-stroke" data-item-order="1000000000" transform="translate(258, 279)"></g><g id="g-root-ic_exch_18mk85u14090cg-stroke" data-item-order="1000000000" transform="translate(171, 363)"><g id="ic_exch_18mk85u14090cg-stroke" fill="none" stroke-linecap="round" stroke-linejoin="round" stroke-miterlimit="4" stroke="#ffffff" stroke-width="2"><g><path d="M 26.007999 56L 30.007999 52L 26.007999 48M 41.007999 31L 57.007999 31L 57.007999 57L 41.007999 57ZM 18 42C 18 47.522846 22.477154 52 28 52L 30 52M 49.007999 12L 45.007999 16L 49.007999 20M 57 26C 57 20.477154 52.52285 16 47 16L 45 16M 41.007999 49L 57.007999 49M 49 52.5C 48.723858 52.5 48.5 52.723858 48.5 53C 48.5 53.276142 48.723858 53.5 49 53.5C 49.276142 53.5 49.5 53.276142 49.5 53C 49.5 52.723858 49.276142 52.5 49 52.5L 49 52.5M 11.008 11L 37.007999 11L 37.007999 31L 11.008 31ZM 11.008 17L 37.007999 17M 16.007999 21L 25.007999 21M 16.007999 25L 20.007999 25"></path></g></g></g><g id="g-root-tx_actionsa_1lqj1hu140g0so-stroke" data-item-order="1000000000" transform="translate(426, 357)"></g><g id="g-root-tx_callback_hye98y14091c6-stroke" data-item-order="1000000000" transform="translate(282, 375)"></g></g></g></svg>