<?xml version="1.0" encoding="utf-8" standalone="yes"?>
<!DOCTYPE svg PUBLIC "-//W3C//DTD SVG 1.1//EN" "http://www.w3.org/Graphics/SVG/1.1/DTD/svg11.dtd">
<svg width="811" height="397" viewBox="0 0 811 397" style="fill:none;stroke:none;fill-rule:evenodd;clip-rule:evenodd;stroke-linecap:round;stroke-linejoin:round;stroke-miterlimit:1.5;" version="1.1" xmlns="http://www.w3.org/2000/svg" xmlns:xlink="http://www.w3.org/1999/xlink"><style class="text-font-style fontImports" data-font-family="Roboto">@import url('https://fonts.googleapis.com/css2?family=Roboto:wght@400;700&amp;display=block');</style><g id="items" style="isolation: isolate"><g id="blend" style="mix-blend-mode: normal"><g id="g-root-sy_4_cu_4kffyqy6vls8-fill" data-item-order="-152385" transform="translate(458.331787109375, 278)"><g id="sy_4_cu_4kffyqy6vls8-fill" stroke="none" fill="#f366bb"><g><path d="M 82 46C 82 65.8823 65.8823 82 46 82C 26.1177 82 10 65.8823 10 46C 10 26.1177 26.1177 10 46 10C 65.8823 10 82 26.1177 82 46Z"></path></g></g></g><g id="g-root-sy_4_cu_1_58exey6vjep-fill" data-item-order="-152383" transform="translate(240.88525390625, 14)"><g id="sy_4_cu_1_58exey6vjep-fill" stroke="none" fill="#f366bb"><g><path d="M 10 28.8658L 65.6365 87.4995L 71.2586 68.5227C 90.01 79.9283 106.7212 95.7057 119.905 115.937C 129.137 130.105 135.461 145.053 139.124 160.16C 129.557 166.631 123.269 177.581 123.269 190C 123.269 202.819 129.969 214.074 140.059 220.452C 131.312 261.77 103.4074 297.515 62.1658 313.026L 74.3752 347.212C 130.492 326.74 166.677 277.385 176.181 221.788C 187.538 215.733 195.269 203.769 195.269 190C 195.269 175.856 187.112 163.618 175.247 157.731C 170.988 136.552 162.709 115.684 150.066 96.2822C 131.779 68.2192 108.1902 47.1633 81.819 32.877L 88.5965 10L 10 28.8658Z"></path></g></g></g><g id="g-root-sy_3_cu_1qapgnmy6vk0a-fill" data-item-order="-152379" transform="translate(458.33154296875, 194)"><g id="sy_3_cu_1qapgnmy6vk0a-fill" stroke="none" fill="#fb6762"><g><path d="M 82 46C 82 65.8823 65.8823 82 46 82C 26.1177 82 10 65.8823 10 46C 10 26.1177 26.1177 10 46 10C 65.8823 10 82 26.1177 82 46Z"></path></g></g></g><g id="g-root-sy_3_cu_1_1qapgnmy6vk0b-fill" data-item-order="-152377" transform="translate(98.33152770996094, 149.602783203125)"><g id="sy_3_cu_1_1qapgnmy6vk0b-fill" stroke="none" fill="#fb6762"><g><path d="M 65.559606 192.065C 90.966906 211.242 123.230006 222.57 158.340006 221.65C 179.698006 221.623 199.298006 218.041 216.929006 211.609L 204.720006 177.423C 190.652006 182.714 175.032006 185.65 158.091006 185.65L 157.841006 185.65L 157.590006 185.657C 132.073006 186.368 109.105506 178.897 90.753006 166.141C 91.451506 163.342 91.822306 160.413 91.822306 157.397C 91.822306 137.515 75.704506 121.397 55.822306 121.397C 55.251306 121.397 54.683406 121.411 54.118906 121.437C 43.713606 97.0247 43.047206 68.5421 55.944906 41.3555C 58.063006 36.8909 60.530906 32.6833 63.296906 28.7495L 32.494206 10C 29.121606 15.004 26.080106 20.3169 23.419606 25.925C 4.311606 66.2018 6.753206 107.3637 23.520806 141.485C 21.152806 146.283 19.822306 151.685 19.822306 157.397C 19.822306 177.279 35.940006 193.397 55.822306 193.397C 59.196606 193.397 62.462506 192.933 65.559606 192.065Z"></path></g></g></g><g id="g-root-sy_2_cu_1luvyj6y6vksk-fill" data-item-order="-152373" transform="translate(458.33160400390625, 110)"><g id="sy_2_cu_1luvyj6y6vksk-fill" stroke="none" fill="#f79438"><g><path d="M 82 46C 82 65.8823 65.8823 82 46 82C 26.1177 82 10 65.8823 10 46C 10 26.1177 26.1177 10 46 10C 65.8823 10 82 26.1177 82 46Z"></path></g></g></g><g id="g-root-sy_2_cu_1_1luvyj6y6vksl-fill" data-item-order="-152371" transform="translate(120.82568359375, 80)"><g id="sy_2_cu_1_1luvyj6y6vksl-fill" stroke="none" fill="#f79438"><g><path d="M 171.07 41.6631C 183.05 49.4425 193.86 60.0099 202.712 73.5974L 202.718 73.6074C 209.619 84.2141 214.09 96.0025 216.233 108.0936L 180.613 113.458C 179.229 106.3132 176.549 99.3995 172.546 93.2444C 167.835 86.0145 162.328 80.0555 156.248 75.3013C 150.352 79.5183 143.13 82 135.328 82C 120.907 82 108.4662 73.5204 102.7201 61.2752C 102.1114 61.3487 101.5027 61.4289 100.8939 61.5158C 77.639 64.8361 55.1885 77.8927 40.8027 98.3523L 10 79.6029C 30.2564 49.5478 62.4567 30.6387 95.8055 25.8772C 99.25 25.3855 102.7147 25.0444 106.1871 24.8579C 112.731 15.854 123.346 10 135.328 10C 153.743 10 168.928 23.8258 171.07 41.6631Z"></path></g></g></g><g id="g-root-sy_1_cu_1cz8yaay6vlla-fill" data-item-order="-152367" transform="translate(458.33160400390625, 26)"><g id="sy_1_cu_1cz8yaay6vlla-fill" stroke="none" fill="#ffe711"><g><path d="M 82 46C 82 65.8823 65.8823 82 46 82C 26.1177 82 10 65.8823 10 46C 10 26.1177 26.1177 10 46 10C 65.8823 10 82 26.1177 82 46Z"></path></g></g></g><g id="g-root-sy_1_cu_1_1cz8yaay6vllb-fill" data-item-order="-152365" transform="translate(173.90676879882812, 178.09332275390625)"><g id="sy_1_cu_1_1cz8yaay6vllb-fill" stroke="none" fill="#ffe711"><g><path d="M 147.724969 80.7629C 151.806969 75.1392 155.170969 69.0218 157.783969 62.59C 164.412969 46.2757 166.308969 27.8095 163.151969 10L 127.530969 15.3648C 129.727969 26.7086 128.658969 38.636 124.431969 49.0384C 123.953969 50.2158 123.436969 51.3715 122.879969 52.5028C 119.518969 51.4653 115.948969 50.9067 112.246969 50.9067C 95.489269 50.9067 81.405869 62.3566 77.393269 77.86C 65.263269 76.9974 55.604869 71.1896 49.432669 61.1709C 47.695869 58.3516 46.235069 55.199 45.072969 51.7292C 41.915769 42.3028 31.714769 37.2205 22.288269 40.3777C 12.861869 43.5349 7.779569 53.7359 10.936769 63.1624C 12.284169 67.1855 13.895169 71.0187 15.750769 74.6436C 28.567969 99.6822 53.056269 114.787 82.982669 113.938C 84.731169 113.889 86.454269 113.794 88.151669 113.654C 94.532069 119.406 102.980669 122.907 112.246969 122.907C 132.128969 122.907 148.246969 106.7889 148.246969 86.9067C 148.246969 84.8121 148.067969 82.7594 147.724969 80.7629Z"></path></g></g></g><g id="g-root-ic_48px_18lavf6y6wyrw-fill" data-item-order="0" transform="translate(470.3314208984375, 38)"></g><g id="g-root-tx_configva_147csk2y6vkek-fill" data-item-order="0" transform="translate(542.3314208984375, 50)"><g id="tx_configva_147csk2y6vkek-fill" stroke="none" fill="#fffbd5"><g><text style="font-style: normal; font-variant-caps: normal; font-weight: normal; font-width: normal; font-size: 20px; line-height: normal; font-family: Roboto, sans-serif; font-size-adjust: none; font-kerning: auto; font-variant-alternates: normal; font-variant-ligatures: normal; font-variant-numeric: normal; font-variant-east-asian: normal; font-variant-position: normal; font-variant-emoji: normal; font-feature-settings: normal; font-optical-sizing: auto; font-variation-settings: normal; white-space: pre;"><tspan x="12" y="34" dominant-baseline="ideographic">Config Validation</tspan></text></g></g></g><g id="g-root-ic_exch_1ha2npuy6wzk6-fill" data-item-order="0" transform="translate(222.15371704101562, 92)"></g><g id="g-root-ic_48px_6hd3my6wyyz-fill" data-item-order="0" transform="translate(470.3314208984375, 122)"></g><g id="g-root-tx_setup_1utnc7my6vkej-fill" data-item-order="0" transform="translate(542.3314208984375, 134)"><g id="tx_setup_1utnc7my6vkej-fill" stroke="none" fill="#fff0e2"><g><text style="font-style: normal; font-variant-caps: normal; font-weight: normal; font-width: normal; font-size: 20px; line-height: normal; font-family: Roboto, sans-serif; font-size-adjust: none; font-kerning: auto; font-variant-alternates: normal; font-variant-ligatures: normal; font-variant-numeric: normal; font-variant-east-asian: normal; font-variant-position: normal; font-variant-emoji: normal; font-feature-settings: normal; font-optical-sizing: auto; font-variation-settings: normal; white-space: pre;"><tspan x="12" y="34" dominant-baseline="ideographic">Setup</tspan></text></g></g></g><g id="g-root-ic_stop_1q8u1eay6wz60-fill" data-item-order="0" transform="translate(366.1536865234375, 170)"></g><g id="g-root-ic_48px_hvvyc2y6wyde-fill" data-item-order="0" transform="translate(470.3314208984375, 206)"></g><g id="g-root-ic_appr_958qs2y6vl6t-fill" data-item-order="0" transform="translate(252.15371704101562, 230)"></g><g id="g-root-tx_executio_vagu4yy6vjsy-fill" data-item-order="0" transform="translate(542.3314208984375, 218)"><g id="tx_executio_vagu4yy6vjsy-fill" stroke="none" fill="#ffe9e8"><g><text style="font-style: normal; font-variant-caps: normal; font-weight: normal; font-width: normal; font-size: 20px; line-height: normal; font-family: Roboto, sans-serif; font-size-adjust: none; font-kerning: auto; font-variant-alternates: normal; font-variant-ligatures: normal; font-variant-numeric: normal; font-variant-east-asian: normal; font-variant-position: normal; font-variant-emoji: normal; font-feature-settings: normal; font-optical-sizing: auto; font-variation-settings: normal; white-space: pre;"><tspan x="12" y="34" dominant-baseline="ideographic">Execution</tspan></text></g></g></g><g id="g-root-ic_chec_v5h1g2y6wxs7-fill" data-item-order="0" transform="translate(120.15371704101562, 272)"></g><g id="g-root-ic_48px_18i6hzmy6wydd-fill" data-item-order="0" transform="translate(470.3314208984375, 290)"></g><g id="g-root-tx_stop_1qckvwyy6vj0p-fill" data-item-order="0" transform="translate(542.3314208984375, 302)"><g id="tx_stop_1qckvwyy6vj0p-fill" stroke="none" fill="#ffe8f6"><g><text style="font-style: normal; font-variant-caps: normal; font-weight: normal; font-width: normal; font-size: 20px; line-height: normal; font-family: Roboto, sans-serif; font-size-adjust: none; font-kerning: auto; font-variant-alternates: normal; font-variant-ligatures: normal; font-variant-numeric: normal; font-variant-east-asian: normal; font-variant-position: normal; font-variant-emoji: normal; font-feature-settings: normal; font-optical-sizing: auto; font-variation-settings: normal; white-space: pre;"><tspan x="12" y="34" dominant-baseline="ideographic">Stop</tspan></text></g></g></g><g id="g-root-sy_4_cu_4kffyqy6vls8-stroke" data-item-order="-152385" transform="translate(458.331787109375, 278)"><g id="sy_4_cu_4kffyqy6vls8-stroke" fill="none" stroke-linecap="round" stroke-linejoin="round" stroke-miterlimit="4" stroke="#2c2c2c" stroke-width="2"><g><path d="M 82 46C 82 65.8823 65.8823 82 46 82C 26.1177 82 10 65.8823 10 46C 10 26.1177 26.1177 10 46 10C 65.8823 10 82 26.1177 82 46Z"></path></g></g></g><g id="g-root-sy_4_cu_1_58exey6vjep-stroke" data-item-order="-152383" transform="translate(240.88525390625, 14)"><g id="sy_4_cu_1_58exey6vjep-stroke" fill="none" stroke-linecap="round" stroke-linejoin="round" stroke-miterlimit="4" stroke="#2c2c2c" stroke-width="2"><g><path d="M 10 28.8658L 65.6365 87.4995L 71.2586 68.5227C 90.01 79.9283 106.7212 95.7057 119.9048 115.9367C 129.1374 130.1048 135.4614 145.053 139.1238 160.1596C 129.5572 166.6305 123.2686 177.5809 123.2686 190C 123.2686 202.8193 129.969 214.0737 140.0588 220.4519C 131.3124 261.7701 103.4074 297.5153 62.1658 313.0258L 74.3752 347.212C 130.4925 326.7398 166.6775 277.3851 176.1812 221.788C 187.5384 215.7328 195.2686 203.7691 195.2686 190C 195.2686 175.8564 187.1122 163.6178 175.2466 157.7312C 170.988 136.5524 162.7093 115.6842 150.0659 96.2822C 131.7788 68.2192 108.1902 47.1633 81.819 32.877L 88.5965 10L 10 28.8658Z"></path></g></g></g><g id="g-root-sy_3_cu_1qapgnmy6vk0a-stroke" data-item-order="-152379" transform="translate(458.33154296875, 194)"><g id="sy_3_cu_1qapgnmy6vk0a-stroke" fill="none" stroke-linecap="round" stroke-linejoin="round" stroke-miterlimit="4" stroke="#2c2c2c" stroke-width="2"><g><path d="M 82 46C 82 65.8823 65.8823 82 46 82C 26.1177 82 10 65.8823 10 46C 10 26.1177 26.1177 10 46 10C 65.8823 10 82 26.1177 82 46Z"></path></g></g></g><g id="g-root-sy_3_cu_1_1qapgnmy6vk0b-stroke" data-item-order="-152377" transform="translate(98.33152770996094, 149.602783203125)"><g id="sy_3_cu_1_1qapgnmy6vk0b-stroke" fill="none" stroke-linecap="round" stroke-linejoin="round" stroke-miterlimit="4" stroke="#2c2c2c" stroke-width="2"><g><path d="M 65.559606 192.0649C 90.966906 211.2422 123.230406 222.5704 158.340406 221.6501C 179.698206 221.6225 199.297606 218.0415 216.929406 211.6092L 204.720006 177.423C 190.652006 182.7139 175.032106 185.6503 158.091506 185.6503L 157.840706 185.6503L 157.590006 185.6573C 132.073006 186.3685 109.105506 178.8972 90.753006 166.1412C 91.451506 163.3419 91.822306 160.4128 91.822306 157.3972C 91.822306 137.515 75.704506 121.3972 55.822306 121.3972C 55.251306 121.3972 54.683406 121.4105 54.118906 121.4368C 43.713606 97.0247 43.047206 68.5421 55.944906 41.3555C 58.063006 36.8909 60.530906 32.6833 63.296906 28.7495L 32.494206 10C 29.121606 15.004 26.080106 20.3169 23.419606 25.925C 4.311606 66.2018 6.753206 107.3637 23.520806 141.4851C 21.152806 146.283 19.822306 151.6847 19.822306 157.3972C 19.822306 177.2795 35.940006 193.3972 55.822306 193.3972C 59.196606 193.3972 62.462506 192.933 65.559606 192.0649Z"></path></g></g></g><g id="g-root-sy_2_cu_1luvyj6y6vksk-stroke" data-item-order="-152373" transform="translate(458.33160400390625, 110)"><g id="sy_2_cu_1luvyj6y6vksk-stroke" fill="none" stroke-linecap="round" stroke-linejoin="round" stroke-miterlimit="4" stroke="#2c2c2c" stroke-width="2"><g><path d="M 82 46C 82 65.8823 65.8823 82 46 82C 26.1177 82 10 65.8823 10 46C 10 26.1177 26.1177 10 46 10C 65.8823 10 82 26.1177 82 46Z"></path></g></g></g><g id="g-root-sy_2_cu_1_1luvyj6y6vksl-stroke" data-item-order="-152371" transform="translate(120.82568359375, 80)"><g id="sy_2_cu_1_1luvyj6y6vksl-stroke" fill="none" stroke-linecap="round" stroke-linejoin="round" stroke-miterlimit="4" stroke="#2c2c2c" stroke-width="2"><g><path d="M 171.0696 41.6631C 183.0501 49.4425 193.8597 60.0099 202.7119 73.5974L 202.7184 73.6074C 209.6186 84.2141 214.0903 96.0025 216.2334 108.0936L 180.6126 113.4584C 179.2287 106.3132 176.5488 99.3995 172.5457 93.2444C 167.8349 86.0145 162.3284 80.0555 156.2479 75.3013C 150.3519 79.5183 143.1298 82 135.3281 82C 120.9069 82 108.4662 73.5204 102.7201 61.2752C 102.1114 61.3487 101.5027 61.4289 100.8939 61.5158C 77.639 64.8361 55.1885 77.8927 40.8027 98.3523L 10 79.6029C 30.2564 49.5478 62.4567 30.6387 95.8055 25.8772C 99.25 25.3855 102.7147 25.0444 106.1871 24.8579C 112.7309 15.854 123.3459 10 135.3281 10C 153.7426 10 168.9278 23.8258 171.0696 41.6631Z"></path></g></g></g><g id="g-root-sy_1_cu_1cz8yaay6vlla-stroke" data-item-order="-152367" transform="translate(458.33160400390625, 26)"><g id="sy_1_cu_1cz8yaay6vlla-stroke" fill="none" stroke-linecap="round" stroke-linejoin="round" stroke-miterlimit="4" stroke="#2c2c2c" stroke-width="2"><g><path d="M 82 46C 82 65.8823 65.8823 82 46 82C 26.1177 82 10 65.8823 10 46C 10 26.1177 26.1177 10 46 10C 65.8823 10 82 26.1177 82 46Z"></path></g></g></g><g id="g-root-sy_1_cu_1_1cz8yaay6vllb-stroke" data-item-order="-152365" transform="translate(173.90676879882812, 178.09332275390625)"><g id="sy_1_cu_1_1cz8yaay6vllb-stroke" fill="none" stroke-linecap="round" stroke-linejoin="round" stroke-miterlimit="4" stroke="#2c2c2c" stroke-width="2"><g><path d="M 147.724869 80.7629C 151.807269 75.1392 155.170969 69.0218 157.784269 62.59C 164.413069 46.2757 166.308669 27.8095 163.151969 10L 127.531269 15.3648C 129.728369 26.7086 128.658969 38.636 124.432369 49.0384C 123.953869 50.2158 123.436669 51.3715 122.880169 52.5028C 119.519469 51.4653 115.948469 50.9067 112.247069 50.9067C 95.489269 50.9067 81.405869 62.3566 77.393269 77.86C 65.263269 76.9974 55.604869 71.1896 49.432669 61.1709C 47.695869 58.3516 46.235069 55.199 45.072969 51.7292C 41.915769 42.3028 31.714769 37.2205 22.288269 40.3777C 12.861869 43.5349 7.779569 53.7359 10.936769 63.1624C 12.284169 67.1855 13.895169 71.0187 15.750769 74.6436C 28.567969 99.6822 53.056269 114.7868 82.982669 113.9385C 84.731169 113.8889 86.454269 113.7937 88.151669 113.6543C 94.532069 119.4057 102.980669 122.9067 112.247069 122.9067C 132.129269 122.9067 148.247069 106.7889 148.247069 86.9067C 148.247069 84.8121 148.068169 82.7594 147.724869 80.7629Z"></path></g></g></g><g id="g-root-ic_48px_18lavf6y6wyrw-stroke" data-item-order="0" transform="translate(470.3314208984375, 38)"><g id="ic_48px_18lavf6y6wyrw-stroke" fill="none" stroke-linecap="round" stroke-linejoin="round" stroke-miterlimit="4" stroke="#2c2c2c" stroke-width="2"><g><path d="M 37.8418 23.3774L 46.2969 20.1836L 46.2969 47.951M 15.07227 30.1785C 15.07227 24.4817 17.78873 19.69524 23.0107 19.69524C 28.2328 19.69524 30.9492 24.4817 30.9492 30.1785L 30.9492 37.2727C 30.9492 42.9695 28.1054 47.8816 23.0107 47.8816C 17.91609 47.8816 15.07227 42.9695 15.07227 37.2727L 15.07227 30.1785Z"></path></g></g></g><g id="g-root-tx_configva_147csk2y6vkek-stroke" data-item-order="0" transform="translate(542.3314208984375, 50)"></g><g id="g-root-ic_exch_1ha2npuy6wzk6-stroke" data-item-order="0" transform="translate(222.15371704101562, 92)"><g id="ic_exch_1ha2npuy6wzk6-stroke" fill="none" stroke-linecap="round" stroke-linejoin="round" stroke-miterlimit="4" stroke="#2c2c2c" stroke-width="2"><g><path d="M 19 26L 19 21.5C 18.999468 19.509674 19.790298 17.6008 21.198235 16.193989C 22.606171 14.787179 24.515675 13.997876 26.506001 14L 30 14M 23.006001 22L 19.006001 26L 15.006001 22M 27.006001 11L 30.006001 14L 27.006001 17M 20 50.5C 19.723858 50.5 19.5 50.723858 19.5 51C 19.5 51.276142 19.723858 51.5 20 51.5C 20.276142 51.5 20.5 51.276142 20.5 51C 20.5 50.723858 20.276142 50.5 20 50.5L 20 50.5M 29 55C 29 56.104568 28.10457 57 27 57L 13 57C 11.895431 57 11 56.104568 11 55L 11 33C 11 31.89543 11.895431 31 13 31L 27 31C 28.10457 31 29 31.89543 29 33ZM 57 15C 57 17.209139 55.209141 19 53 19L 43 19C 40.790863 19 39 17.209139 39 15C 39 12.790861 40.790863 11 43 11L 53 11C 55.209141 11 57 12.790861 57 15ZM 44.5 14.5C 44.223858 14.5 44 14.723858 44 15C 44 15.276142 44.223858 15.5 44.5 15.5C 44.776142 15.5 45 15.276142 45 15C 45 14.723858 44.776142 14.5 44.5 14.5L 44.5 14.5M 57 23C 57 25.209139 55.209141 27 53 27L 43 27C 40.790863 27 39 25.209139 39 23C 39 20.790861 40.790863 19 43 19L 53 19C 55.209141 19 57 20.790861 57 23ZM 44.5 22.5C 44.223858 22.5 44 22.723858 44 23C 44 23.276142 44.223858 23.5 44.5 23.5C 44.776142 23.5 45 23.276142 45 23C 45 22.723858 44.776142 22.5 44.5 22.5L 44.5 22.5M 57 31C 57 33.209137 55.209141 35 53 35L 43 35C 40.790863 35 39 33.209137 39 31C 39 28.790861 40.790863 27 43 27L 53 27C 55.209141 27 57 28.790861 57 31ZM 44.5 30.5C 44.223858 30.5 44 30.723858 44 31C 44 31.276142 44.223858 31.5 44.5 31.5C 44.776142 31.5 45 31.276142 45 31C 45 30.723858 44.776142 30.5 44.5 30.5L 44.5 30.5"></path></g></g></g><g id="g-root-ic_48px_6hd3my6wyyz-stroke" data-item-order="0" transform="translate(470.3314208984375, 122)"><g id="ic_48px_6hd3my6wyyz-stroke" fill="none" stroke-linecap="round" stroke-linejoin="round" stroke-miterlimit="4" stroke="#2c2c2c" stroke-width="2"><g><path d="M 15.07227 30.1785C 15.07227 24.4817 17.78873 19.69524 23.0107 19.69524C 28.2328 19.69524 30.9492 24.4817 30.9492 30.1785L 30.9492 37.2727C 30.9492 42.9695 28.1054 47.8816 23.0107 47.8816C 17.91609 47.8816 15.07227 42.9695 15.07227 37.2727L 15.07227 30.1785ZM 36.8315 27.5154C 36.8315 22.8951 40.0559 19.69531 44.4376 19.69531C 51.7066 19.69531 54.1859 26.7886 49.4213 33.0984L 37.33 47.4175L 53.9507 47.4175"></path></g></g></g><g id="g-root-tx_setup_1utnc7my6vkej-stroke" data-item-order="0" transform="translate(542.3314208984375, 134)"></g><g id="g-root-ic_stop_1q8u1eay6wz60-stroke" data-item-order="0" transform="translate(366.1536865234375, 170)"><g id="ic_stop_1q8u1eay6wz60-stroke" fill="none" stroke-linecap="round" stroke-linejoin="round" stroke-miterlimit="4" stroke="#2c2c2c" stroke-width="2"><g><path d="M 31 39L 31 29M 29 29L 33 29M 45 39L 45 29M 45 29L 46 29C 47.656857 29 49 30.343147 49 32C 49 33.656853 47.656857 35 46 35L 45 35M 39 29C 37.895432 29 37 29.89543 37 31L 37 37C 37 38.104568 37.895432 39 39 39C 40.104568 39 41 38.104568 41 37L 41 31C 41 29.89543 40.104568 29 39 29ZM 25 29L 23 29C 21.895432 29 21 29.89543 21 31C 21 34 25 34 25 37C 25 38.104568 24.104568 39 23 39L 21 39M 42.698002 11L 25.298 11C 24.767611 11.000113 24.258986 11.210901 23.883999 11.586L 11.586 23.888C 11.210901 24.262985 11.000113 24.77161 11 25.302L 11 42.702C 11.000113 43.232391 11.210901 43.741016 11.586 44.116001L 23.888 56.417999C 24.262985 56.793098 24.77161 57.003887 25.302 57.004002L 42.702 57.004002C 43.232391 57.003887 43.741016 56.793098 44.116001 56.417999L 56.417999 44.116001C 56.793098 43.741016 57.003887 43.232391 57.004002 42.702L 57.004002 25.302C 57.003887 24.77161 56.793098 24.262985 56.417999 23.888L 44.112 11.586C 43.737015 11.210901 43.22839 11.000113 42.698002 11Z"></path></g></g></g><g id="g-root-ic_48px_hvvyc2y6wyde-stroke" data-item-order="0" transform="translate(470.3314208984375, 206)"><g id="ic_48px_hvvyc2y6wyde-stroke" fill="none" stroke-linecap="round" stroke-linejoin="round" stroke-miterlimit="4" stroke="#2c2c2c" stroke-width="2"><g><path d="M 15.07227 30.1785C 15.07227 24.4817 17.78873 19.69524 23.0107 19.69524C 28.2328 19.69524 30.9492 24.4817 30.9492 30.1785L 30.9492 37.2727C 30.9492 42.9695 28.1054 47.8816 23.0107 47.8816C 17.91609 47.8816 15.07227 42.9695 15.07227 37.2727L 15.07227 30.1785ZM 37.1212 27.0681C 37.0021 24.6592 38.4826 19.70994 45.0653 19.70994C 51.648 19.70994 52.6563 24.5974 52.4282 27.357C 52.1767 30.3999 50.2718 33.5079 42.2007 33.5079C 49.7136 33.5079 53.1255 35.562 53.1255 41.1245C 53.1255 45.9328 48.8755 47.8898 44.9922 47.8898C 42.2014 47.866 36.6196 46.2871 36.6196 40.1622"></path></g></g></g><g id="g-root-ic_appr_958qs2y6vl6t-stroke" data-item-order="0" transform="translate(252.15371704101562, 230)"><g id="ic_appr_958qs2y6vl6t-stroke" fill="none" stroke-linecap="round" stroke-linejoin="round" stroke-miterlimit="4" stroke="#2c2c2c" stroke-width="2"><g><path d="M 42.84 19.5C 40.988853 18.581583 39.025536 17.909214 37 17.5L 37 13C 37 11.895431 36.104568 11 35 11L 33 11C 31.89543 11 31 11.895431 31 13L 31 17.5C 28.974466 17.909214 27.01115 18.581583 25.16 19.5L 22 16.32C 21.219925 15.544553 19.960075 15.544553 19.18 16.32L 16.32 19.16C 15.941375 19.535534 15.728403 20.046726 15.728403 20.58C 15.728403 21.113276 15.941375 21.624466 16.32 22L 19.5 25.16C 18.581583 27.01115 17.909214 28.974466 17.5 31.000002L 13 31C 11.895431 31 11 31.89543 11 33L 11 35C 11 36.104568 11.895431 37 13 37L 17.5 37C 17.909214 39.025536 18.581583 40.988853 19.5 42.840004L 16.32 46C 15.544553 46.780075 15.544553 48.039925 16.32 48.82L 19.139999 51.66C 19.515533 52.038624 20.026726 52.251598 20.560001 52.251598C 21.093275 52.251598 21.604465 52.038624 21.98 51.66L 25.16 48.48C 27.01115 49.398418 28.974466 50.070789 31.000002 50.480003L 31 55C 31 56.104568 31.89543 57 33 57L 35 57C 36.104568 57 37 56.104568 37 55L 37 50.5C 39.025536 50.09079 40.988853 49.418419 42.840004 48.500004L 46 51.68C 46.780075 52.455448 48.039925 52.455448 48.82 51.68L 51.66 48.84C 52.435448 48.059925 52.435448 46.800076 51.66 46.02L 48.48 42.84C 49.398418 40.988853 50.070789 39.025536 50.480003 37L 55 37C 56.104568 37 57 36.104568 57 35L 57 33C 57 31.89543 56.104568 31 55 31L 50.5 31C 50.259998 30 49.939999 28.700001 49.52 27.5M 57 11L 35.48 37.200001C 35.128273 37.67128 34.586952 37.963886 34 38C 33.414814 38.015984 32.852005 37.77478 32.459999 37.34L 26 30"></path></g></g></g><g id="g-root-tx_executio_vagu4yy6vjsy-stroke" data-item-order="0" transform="translate(542.3314208984375, 218)"></g><g id="g-root-ic_chec_v5h1g2y6wxs7-stroke" data-item-order="0" transform="translate(120.15371704101562, 272)"><g id="ic_chec_v5h1g2y6wxs7-stroke" fill="none" stroke-linecap="round" stroke-linejoin="round" stroke-miterlimit="4" stroke="#2c2c2c" stroke-width="2"><g><path d="M 45.900002 24.400139L 21.900021 24.400139L 21.900021 56.4002L 45.900002 56.4002L 45.900002 24.400139ZM 49.900002 35.5998L 56.299999 35.5998M 49.900002 43.5998L 56.299999 43.5998M 49.900002 51.5998L 54.299999 51.5998C 55.5 51.5998 56.299999 50.799801 56.299999 49.5998L 56.299999 29.599859C 56.299999 28.39986 55.5 27.599859 54.299999 27.599859L 49.900002 27.599859M 22.900021 34.999802L 45.900002 34.999802M 22.900021 45.999802L 45.900002 45.999802M 17.899981 35.5998L 11.5 35.5998M 17.899981 43.5998L 11.5 43.5998M 17.9 51.5998L 13.5 51.5998C 12.3 51.5998 11.5 50.799801 11.5 49.5998L 11.5 29.599859C 11.5 28.39986 12.3 27.599859 13.5 27.599859L 17.9 27.599859M 10 10M 30.9 13.59986L 33.900002 16.399839L 38.900002 11.599854"></path></g></g></g><g id="g-root-ic_48px_18i6hzmy6wydd-stroke" data-item-order="0" transform="translate(470.3314208984375, 290)"><g id="ic_48px_18i6hzmy6wydd-stroke" fill="none" stroke-linecap="round" stroke-linejoin="round" stroke-miterlimit="4" stroke="#2c2c2c" stroke-width="2"><g><path d="M 15.07227 30.179C 15.07227 24.4822 17.78873 19.69573 23.0107 19.69573C 28.2328 19.69573 30.9492 24.4822 30.9492 30.179L 30.9492 37.2732C 30.9492 42.97 28.1054 47.8821 23.0107 47.8821C 17.91609 47.8821 15.07227 42.97 15.07227 37.2732L 15.07227 30.179ZM 49.9098 47.9788L 49.9098 19.55127L 36.2949 39.738L 55.3147 39.738"></path></g></g></g><g id="g-root-tx_stop_1qckvwyy6vj0p-stroke" data-item-order="0" transform="translate(542.3314208984375, 302)"></g></g></g></svg>