<?xml version="1.0" encoding="utf-8" standalone="yes"?>
<!DOCTYPE svg PUBLIC "-//W3C//DTD SVG 1.1//EN" "http://www.w3.org/Graphics/SVG/1.1/DTD/svg11.dtd">
<svg width="1044" height="481" viewBox="0 0 1044 481" style="fill:none;stroke:none;fill-rule:evenodd;clip-rule:evenodd;stroke-linecap:round;stroke-linejoin:round;stroke-miterlimit:1.5;" version="1.1" xmlns="http://www.w3.org/2000/svg" xmlns:xlink="http://www.w3.org/1999/xlink"><style class="text-font-style fontImports" data-font-family="Roboto">@import url(https://fonts.googleapis.com/css2?family=Roboto:wght@400;700&amp;amp;display=block);</style><g id="items" style="isolation: isolate"><g id="blend" style="mix-blend-mode: normal"><g id="g-root-cp_2_g-2_mdl3xe17cb4zv-fill" data-item-order="-454166" transform="translate(518, 51)"><g id="cp_2_g-2_mdl3xe17cb4zv-fill" stroke="none" fill="#ba5de5"><g><path d="M 490 10L 10 10L 10 124.227C 50.2747 127.291 82 160.941 82 202C 82 243.059 50.2747 276.709 10 279.773L 10 394L 490 394L 490 10Z"></path></g></g></g><g id="g-root-cp_0_g-0_hxrlsy17cb5s4-fill" data-item-order="-454162" transform="translate(446, 177)"><g id="cp_0_g-0_hxrlsy17cb5s4-fill" stroke="none" fill="#666666"><g><path d="M 76 142C 112.451 142 142 112.451 142 76C 142 39.5492 112.451 10 76 10C 39.5492 10 10 39.5492 10 76C 10 112.451 39.5492 142 76 142ZM 103.2699 84.8789C 103.5027 85.4801 103.6191 86.159 103.6191 86.9154C 103.6191 87.8658 103.3766 88.7192 102.8917 89.4756C 102.4262 90.2321 101.6989 90.8236 100.7097 91.2503C 99.7399 91.677 98.4986 91.8904 96.9858 91.8904C 95.7444 91.8904 94.6001 91.7643 93.5527 91.5122C 92.5248 91.26 91.6326 90.8527 90.8761 90.2902C 90.1391 89.7278 89.5669 88.9907 89.1596 88.0791C 88.7523 87.1675 88.5487 86.0523 88.5487 84.7334L 79.7915 84.7334C 79.7915 87.1191 80.2861 89.1847 81.2753 90.9303C 82.2645 92.6759 83.5834 94.1112 85.232 95.2361C 86.9 96.3611 88.7523 97.2048 90.7889 97.7673C 92.8254 98.3103 94.891 98.5819 96.9858 98.5819C 99.3132 98.5819 101.4177 98.32 103.299 97.7963C 105.1804 97.2727 106.7999 96.5065 108.1576 95.498C 109.5153 94.4894 110.553 93.2578 111.271 91.8031C 111.988 90.3484 112.347 88.6998 112.347 86.8572C 112.347 85.1116 112.046 83.5503 111.445 82.1732C 110.844 80.7961 109.9517 79.5645 108.7686 78.4783C 107.5855 77.3922 106.1114 76.4127 104.3464 75.5399C 102.6008 74.6671 100.574 73.8816 98.2659 73.1833C 96.8888 72.7566 95.6766 72.3202 94.6292 71.8741C 93.5818 71.428 92.6993 70.9528 91.9817 70.4485C 91.2641 69.9442 90.721 69.4012 90.3525 68.8193C 90.0033 68.2374 89.8288 67.5877 89.8288 66.87C 89.8288 65.9197 90.0809 65.0662 90.5852 64.3098C 91.0895 63.534 91.8459 62.923 92.8545 62.4769C 93.8631 62.0114 95.1238 61.7787 96.6366 61.7787C 98.2077 61.7787 99.5072 62.0502 100.5352 62.5933C 101.5825 63.1364 102.3583 63.8831 102.8626 64.8335C 103.3863 65.7645 103.6482 66.8506 103.6482 68.092L 112.318 68.092C 112.318 65.5705 111.668 63.3303 110.369 61.3714C 109.0886 59.4124 107.2848 57.8705 104.9574 56.7455C 102.6299 55.6206 99.9048 55.0581 96.7821 55.0581C 94.4934 55.0581 92.389 55.3393 90.4688 55.9018C 88.5681 56.4643 86.9194 57.2692 85.5229 58.3166C 84.1265 59.3445 83.0403 60.5859 82.2645 62.0405C 81.4887 63.4758 81.1008 65.0759 81.1008 66.8409C 81.1008 68.6641 81.4693 70.2643 82.2063 71.6414C 82.9627 73.0185 83.9907 74.2307 85.2902 75.278C 86.6091 76.306 88.122 77.2079 89.8288 77.9837C 91.555 78.7595 93.3782 79.4578 95.2983 80.0785C 97.0246 80.6215 98.4307 81.1452 99.5169 81.6495C 100.603 82.1538 101.4468 82.6678 102.048 83.1915C 102.6493 83.6957 103.0566 84.2582 103.2699 84.8789ZM 77.6095 55.64L 67.8923 55.64L 58.2921 87.8835L 48.7198 55.64L 39.0608 55.64L 53.7238 98L 56.4586 98L 62.8592 98L 77.6095 55.64Z"></path></g></g></g><g id="g-root-cp_1_g-1_hxrlsy17cb5s5-fill" data-item-order="-454158" transform="translate(26, 51)"><g id="cp_1_g-1_hxrlsy17cb5s5-fill" stroke="none" fill="#7f64ea"><g><path d="M 490 10L 10 10L 10 394L 490 394L 490 279.773C 449.725 276.709 418 243.059 418 202C 418 160.941 449.725 127.291 490 124.227L 490 10Z"></path></g></g></g><g id="g-root-ic_hori_14642le17cb4sv-fill" data-item-order="-36864" transform="translate(50, 147)"><g id="ic_hori_14642le17cb4sv-fill" stroke="none" fill="#ffffff"><g><path d="M 174 118L 116 118C 114.895432 118 114 117.104568 114 116L 114 96C 114 94.895432 114.895432 94 116 94L 150 94C 154.418274 94 158 90.418282 158 86L 158 54C 158 49.581722 154.418274 46 150 46L 116 46C 114.895432 46 114 45.104568 114 44L 114 18C 114 13.581722 110.418282 10 106 10C 101.581718 10 98 13.581722 98 18L 98 44C 98 45.104568 97.104568 46 96 46L 62 46C 57.581722 46 54 49.581722 54 54L 54 86C 54 90.418282 57.581722 94 62 94L 96 94C 97.104568 94 98 94.895432 98 96L 98 116C 98 117.104568 97.104568 118 96 118L 38 118C 33.581722 118 30 121.581718 30 126L 30 158C 30 162.418274 33.581722 166 38 166L 96 166C 97.104568 166 98 166.895432 98 168L 98 194C 98 198.418274 101.581718 202 106 202C 110.418282 202 114 198.418274 114 194L 114 168C 114 166.895432 114.895432 166 116 166L 174 166C 178.418274 166 182 162.418274 182 158L 182 126C 182 121.581718 178.418274 118 174 118Z"></path></g></g></g><g id="g-root-ic_1_8zmvj617c9p8l-fill" data-item-order="-36864" transform="translate(782, 147)"><g id="ic_1_8zmvj617c9p8l-fill" stroke="none" fill="#ffffff"><g><path d="M 10 66C 10.052764 45.035076 27.035074 28.052765 48 28L 164 28C 184.964935 28.052765 201.94725 45.035076 202.000015 66L 202 110.800003C 201.94725 131.764923 184.964935 148.747238 164 148.800003L 48 148.800003C 27.035074 148.747238 10.052764 131.764923 10 110.800003L 10 66ZM 55.751999 79.400002C 60.722565 79.400002 64.751999 83.429436 64.751999 88.400002C 64.751999 93.37056 60.722565 97.400002 55.751999 97.400002C 50.781437 97.400002 46.751999 93.37056 46.751999 88.400002C 46.751999 83.429436 50.781437 79.400002 55.751999 79.400002ZM 89.248001 79.400002C 94.218567 79.400002 98.248001 83.429436 98.248001 88.400002C 98.248001 93.37056 94.218567 97.400002 89.248001 97.400002C 84.277435 97.400002 80.248001 93.37056 80.248001 88.400002C 80.248001 83.429436 84.277435 79.400002 89.248001 79.400002ZM 122.751999 79.400002C 127.722565 79.400002 131.751999 83.429436 131.751999 88.400002C 131.751999 93.37056 127.722565 97.400002 122.751999 97.400002C 117.781441 97.400002 113.751999 93.37056 113.751999 88.400002C 113.751999 83.429436 117.781441 79.400002 122.751999 79.400002ZM 156.248001 97.400002C 151.277435 97.400002 147.248001 93.37056 147.248001 88.400002C 147.248001 83.429436 151.277435 79.400002 156.248001 79.400002C 161.218567 79.400002 165.248001 83.429436 165.248001 88.400002C 165.248001 93.37056 161.218567 97.400002 156.248001 97.400002ZM 66.400002 170C 61.981724 170 58.400002 173.581726 58.400002 178C 58.400002 182.418274 61.981724 186 66.400002 186L 146.399994 186C 150.818283 186 154.399994 182.418274 154.399994 178C 154.399994 173.581726 150.818283 170 146.399994 170L 66.400002 170Z"></path></g></g></g><g id="g-root-tx_messagec_1448tnm17cdzb7-fill" data-item-order="0" transform="translate(266, 189)"><g id="tx_messagec_1448tnm17cdzb7-fill" stroke="none" fill="#ffffff"><g><text style="font-style: normal; font-variant-caps: normal; font-weight: bold; font-width: normal; font-size: 20px; line-height: normal; font-family: Roboto, sans-serif; font-size-adjust: none; font-kerning: auto; font-variant-alternates: normal; font-variant-ligatures: normal; font-variant-numeric: normal; font-variant-east-asian: normal; font-variant-position: normal; font-variant-emoji: normal; font-feature-settings: normal; font-optical-sizing: auto; font-variation-settings: normal; white-space: pre;"><tspan x="12" y="34" dominant-baseline="ideographic">Message </tspan><tspan x="12" y="58" dominant-baseline="ideographic">Channel</tspan></text></g></g></g><g id="g-root-tx_commandc_1d14s2q17cdzwt-fill" data-item-order="0" transform="translate(650, 189)"><g id="tx_commandc_1d14s2q17cdzwt-fill" stroke="none" fill="#ffffff"><g><text style="font-style: normal; font-variant-caps: normal; font-weight: bold; font-width: normal; font-size: 20px; line-height: normal; font-family: Roboto, sans-serif; font-size-adjust: none; font-kerning: auto; font-variant-alternates: normal; font-variant-ligatures: normal; font-variant-numeric: normal; font-variant-east-asian: normal; font-variant-position: normal; font-variant-emoji: normal; font-feature-settings: normal; font-optical-sizing: auto; font-variation-settings: normal; white-space: pre;"><tspan x="23" y="34" dominant-baseline="ideographic">Command </tspan><tspan x="42" y="58" dominant-baseline="ideographic">Channel</tspan></text></g></g></g><g id="g-root-tx_trackage_4mxqua17cdwy4-fill" data-item-order="0" transform="translate(266, 249)"><g id="tx_trackage_4mxqua17cdwy4-fill" stroke="none" fill="#ffffff"><g><text style="font-style: normal; font-variant-caps: normal; font-weight: normal; font-width: normal; font-size: 15px; line-height: normal; font-family: Roboto, sans-serif; font-size-adjust: none; font-kerning: auto; font-variant-alternates: normal; font-variant-ligatures: normal; font-variant-numeric: normal; font-variant-east-asian: normal; font-variant-position: normal; font-variant-emoji: normal; font-feature-settings: normal; font-optical-sizing: auto; font-variation-settings: normal; white-space: pre;"><tspan x="12" y="28" dominant-baseline="ideographic">Track agent status </tspan><tspan x="12" y="46" dominant-baseline="ideographic">updates</tspan></text></g></g></g><g id="g-root-tx_handleex_hzn7du17cdxja-fill" data-item-order="0" transform="translate(638, 249)"><g id="tx_handleex_hzn7du17cdxja-fill" stroke="none" fill="#ffffff"><g><text style="font-style: normal; font-variant-caps: normal; font-weight: normal; font-width: normal; font-size: 15px; line-height: normal; font-family: Roboto, sans-serif; font-size-adjust: none; font-kerning: auto; font-variant-alternates: normal; font-variant-ligatures: normal; font-variant-numeric: normal; font-variant-east-asian: normal; font-variant-position: normal; font-variant-emoji: normal; font-feature-settings: normal; font-optical-sizing: auto; font-variation-settings: normal; white-space: pre;"><tspan x="23" y="28" dominant-baseline="ideographic">Handle external </tspan><tspan x="52" y="46" dominant-baseline="ideographic">commands</tspan></text></g></g></g><g id="g-root-cp_2_g-2_mdl3xe17cb4zv-stroke" data-item-order="-454166" transform="translate(518, 51)"><g id="cp_2_g-2_mdl3xe17cb4zv-stroke" fill="none" stroke-linecap="round" stroke-linejoin="round" stroke-miterlimit="4" stroke="#ffffff" stroke-width="2"><g><path d="M 490 10L 10 10L 10 124.2273C 50.2747 127.2911 82 160.9406 82 202C 82 243.0594 50.2747 276.7089 10 279.7727L 10 394L 490 394L 490 10Z"></path></g></g></g><g id="g-root-cp_0_g-0_hxrlsy17cb5s4-stroke" data-item-order="-454162" transform="translate(446, 177)"><g id="cp_0_g-0_hxrlsy17cb5s4-stroke" fill="none" stroke-linecap="round" stroke-linejoin="round" stroke-miterlimit="4" stroke="#ffffff" stroke-width="2"><g><path d="M 76 142C 112.4508 142 142 112.4508 142 76C 142 39.5492 112.4508 10 76 10C 39.5492 10 10 39.5492 10 76C 10 112.4508 39.5492 142 76 142ZM 103.2699 84.8789C 103.5027 85.4801 103.6191 86.159 103.6191 86.9154C 103.6191 87.8658 103.3766 88.7192 102.8917 89.4756C 102.4262 90.2321 101.6989 90.8236 100.7097 91.2503C 99.7399 91.677 98.4986 91.8904 96.9858 91.8904C 95.7444 91.8904 94.6001 91.7643 93.5527 91.5122C 92.5248 91.26 91.6326 90.8527 90.8761 90.2902C 90.1391 89.7278 89.5669 88.9907 89.1596 88.0791C 88.7523 87.1676 88.5487 86.0523 88.5487 84.7334L 79.7915 84.7334C 79.7915 87.1191 80.2861 89.1847 81.2753 90.9303C 82.2645 92.6759 83.5834 94.1112 85.232 95.2361C 86.9 96.3611 88.7523 97.2048 90.7889 97.7673C 92.8254 98.3103 94.891 98.5819 96.9858 98.5819C 99.3132 98.5819 101.4177 98.32 103.299 97.7963C 105.1804 97.2727 106.7999 96.5065 108.1576 95.498C 109.5153 94.4894 110.553 93.2578 111.2706 91.8031C 111.9883 90.3484 112.3471 88.6998 112.3471 86.8572C 112.3471 85.1116 112.0465 83.5503 111.4452 82.1732C 110.8439 80.7961 109.9517 79.5645 108.7686 78.4783C 107.5855 77.3922 106.1114 76.4127 104.3464 75.5399C 102.6008 74.6671 100.5739 73.8816 98.2659 73.1833C 96.8888 72.7566 95.6766 72.3202 94.6292 71.8741C 93.5818 71.428 92.6993 70.9528 91.9817 70.4485C 91.2641 69.9442 90.721 69.4012 90.3525 68.8193C 90.0033 68.2374 89.8288 67.5877 89.8288 66.87C 89.8288 65.9197 90.0809 65.0662 90.5852 64.3098C 91.0895 63.534 91.8459 62.923 92.8545 62.4769C 93.8631 62.0114 95.1238 61.7787 96.6366 61.7787C 98.2077 61.7787 99.5072 62.0502 100.5352 62.5933C 101.5825 63.1364 102.3583 63.8831 102.8626 64.8335C 103.3863 65.7645 103.6482 66.8506 103.6482 68.092L 112.318 68.092C 112.318 65.5705 111.6682 63.3303 110.3687 61.3714C 109.0886 59.4124 107.2848 57.8705 104.9574 56.7455C 102.6299 55.6206 99.9048 55.0581 96.7821 55.0581C 94.4934 55.0581 92.389 55.3393 90.4688 55.9018C 88.5681 56.4643 86.9194 57.2692 85.5229 58.3166C 84.1265 59.3445 83.0403 60.5859 82.2645 62.0405C 81.4887 63.4758 81.1008 65.0759 81.1008 66.8409C 81.1008 68.6641 81.4693 70.2643 82.2063 71.6414C 82.9627 73.0184 83.9907 74.2307 85.2902 75.278C 86.6091 76.306 88.122 77.2079 89.8288 77.9837C 91.555 78.7595 93.3782 79.4578 95.2983 80.0785C 97.0246 80.6215 98.4307 81.1452 99.5169 81.6495C 100.603 82.1538 101.4468 82.6678 102.048 83.1915C 102.6493 83.6957 103.0566 84.2582 103.2699 84.8789ZM 77.6095 55.64L 67.8923 55.64L 58.2921 87.8835L 48.7198 55.64L 39.0608 55.64L 53.7238 98L 62.8592 98L 77.6095 55.64Z"></path></g></g></g><g id="g-root-cp_1_g-1_hxrlsy17cb5s5-stroke" data-item-order="-454158" transform="translate(26, 51)"><g id="cp_1_g-1_hxrlsy17cb5s5-stroke" fill="none" stroke-linecap="round" stroke-linejoin="round" stroke-miterlimit="4" stroke="#ffffff" stroke-width="2"><g><path d="M 490 10L 10 10L 10 394L 490 394L 490 279.7727C 449.7253 276.7089 418 243.0594 418 202C 418 160.9406 449.7253 127.2911 490 124.2273L 490 10Z"></path></g></g></g><g id="g-root-ic_hori_14642le17cb4sv-stroke" data-item-order="-36864" transform="translate(50, 147)"></g><g id="g-root-ic_1_8zmvj617c9p8l-stroke" data-item-order="-36864" transform="translate(782, 147)"></g><g id="g-root-tx_messagec_1448tnm17cdzb7-stroke" data-item-order="0" transform="translate(266, 189)"></g><g id="g-root-tx_commandc_1d14s2q17cdzwt-stroke" data-item-order="0" transform="translate(650, 189)"></g><g id="g-root-tx_trackage_4mxqua17cdwy4-stroke" data-item-order="0" transform="translate(266, 249)"></g><g id="g-root-tx_handleex_hzn7du17cdxja-stroke" data-item-order="0" transform="translate(638, 249)"></g></g></g></svg>