<?xml version="1.0" encoding="utf-8" standalone="yes"?>
<!DOCTYPE svg PUBLIC "-//W3C//DTD SVG 1.1//EN" "http://www.w3.org/Graphics/SVG/1.1/DTD/svg11.dtd">
<svg width="1003" height="492" viewBox="0 0 1003 492" style="fill:none;stroke:none;fill-rule:evenodd;clip-rule:evenodd;stroke-linecap:round;stroke-linejoin:round;stroke-miterlimit:1.5;" version="1.1" xmlns="http://www.w3.org/2000/svg" xmlns:xlink="http://www.w3.org/1999/xlink"><style class="text-font-style fontImports" data-font-family="Roboto">@import url('https://fonts.googleapis.com/css2?family=Roboto:wght@400;700&amp;display=block');</style><g id="items" style="isolation: isolate"><g id="blend" style="mix-blend-mode: normal"><g id="g-root-cp_3_text-3_qn6fe9wsxlah-fill" data-item-order="-376256" transform="translate(341.3333435058594, 62)"><g id="cp_3_text-3_qn6fe9wsxlah-fill" stroke="none" fill="#92bd39"><g><path d="M 59.2616 10.0023C 68.1815 10.0823 77.8013 11.0919 87.4912 12.6613C 132.9205 19.9984 166 59.0733 166 105.0755L 166 118L 154.0002 118L 154.0002 95.0794C 154.0002 79.6054 136.1705 71.0887 124.2406 80.9548C 124.0406 81.1148 123.8407 81.2847 123.6507 81.4547C 105.4509 96.9587 82.6513 106.0051 58.7416 106.0051L 58.0317 106.0051C 31.7121 106.0051 10.2724 84.7434 10.0024 58.4935C 9.7324 31.5839 32.3421 9.7424 59.2616 10.0023ZM 58.0317 94.0098C 77.9214 94.0098 94.0511 77.886 94.0511 58.0037C 94.0511 38.1214 77.9214 21.9877 58.0317 21.9877C 38.142 21.9877 22.0022 38.1114 22.0022 58.0037C 22.0022 77.896 38.132 94.0098 58.0317 94.0098ZM 166 118L 154 118L 154 142L 166 142L 166 118Z"></path></g></g></g><g id="g-root-cp_3_stick-3_qn6fe9wsxlaj-fill" data-item-order="-376234" transform="translate(484.3333435058594, 194)"><g id="cp_3_stick-3_qn6fe9wsxlaj-fill" stroke="none" fill="#92bd39"><g><path d="M 23 10L 11 10L 11 250L 23 250L 23 10Z"></path></g></g></g><g id="g-root-cp_1_text-1_m7cx9twsxm2t-fill" data-item-order="-376228" transform="translate(329.3333435058594, 182)"><g id="cp_1_text-1_m7cx9twsxm2t-fill" stroke="none" fill="#3cc583"><g><path d="M 59.2616 10.0023C 68.1815 10.0823 77.8013 11.0919 87.4912 12.6613C 132.9205 19.9984 166 59.0733 166 105.0755L 166 118L 154.0002 118L 154.0002 95.0794C 154.0002 79.6054 136.1705 71.0887 124.2406 80.9548C 124.0406 81.1148 123.8407 81.2847 123.6507 81.4547C 105.4509 96.9587 82.6513 106.0051 58.7416 106.0051L 58.0317 106.0051C 31.7121 106.0051 10.2724 84.7434 10.0024 58.4935C 9.7324 31.5839 32.3421 9.7424 59.2616 10.0023ZM 58.0317 94.0098C 77.9214 94.0098 94.0511 77.886 94.0511 58.0037C 94.0511 38.1214 77.9214 21.9877 58.0317 21.9877C 38.142 21.9877 22.0022 38.1114 22.0022 58.0037C 22.0022 77.896 38.132 94.0098 58.0317 94.0098ZM 166 118L 154 118L 154 142L 166 142L 166 118Z"></path></g></g></g><g id="g-root-cp_1_stick-1_1_m7cx9twsxm2v-fill" data-item-order="-376208" transform="translate(473.3333435058594, 314)"><g id="cp_1_stick-1_1_m7cx9twsxm2v-fill" stroke="none" fill="#3cc583"><g><path d="M 22 10L 10 10L 10 130L 22 130L 22 10Z"></path></g></g></g><g id="g-root-cp_2_text-2_m7cx9twsxm2x-fill" data-item-order="-376196" transform="translate(497.3333435058594, 182)"><g id="cp_2_text-2_m7cx9twsxm2x-fill" stroke="none" fill="#1eabda"><g><path d="M 116.7383 10.0023C 107.8185 10.0823 98.1987 11.0919 88.5088 12.6613C 43.0795 19.9984 10 59.0733 10 105.0755L 10 118L 21.9998 118L 21.9998 95.0794C 21.9998 79.6054 39.8295 71.0887 51.7594 80.9548C 51.9594 81.1148 52.1593 81.2847 52.3493 81.4547C 70.5491 96.9587 93.3487 106.0051 117.2584 106.0051L 117.9683 106.0051C 144.2879 106.0051 165.7276 84.7434 165.9976 58.4935C 166.2676 31.5839 143.6579 9.7424 116.7383 10.0023ZM 117.9683 94.0098C 98.0786 94.0098 81.9489 77.886 81.9489 58.0037C 81.9489 38.1214 98.0786 21.9877 117.9683 21.9877C 137.858 21.9877 153.9978 38.1114 153.9978 58.0037C 153.9978 77.896 137.868 94.0098 117.9683 94.0098ZM 10 118L 22 118L 22 142L 10 142Z"></path></g></g></g><g id="g-root-cp_2_stick-2_m7cx9twsxm2z-fill" data-item-order="-376178" transform="translate(497.3333435058594, 314)"><g id="cp_2_stick-2_m7cx9twsxm2z-fill" stroke="none" fill="#1eabda"><g><path d="M 10 10L 22 10L 22 130L 10 130Z"></path></g></g></g><g id="g-root-tx_agentcco_1hbceb5wsxkb2-fill" data-item-order="0" transform="translate(209.33334350585938, 80)"><g id="tx_agentcco_1hbceb5wsxkb2-fill" stroke="none" fill="#92bd39"><g><text style="font-style: normal; font-variant-caps: normal; font-weight: bold; font-width: normal; font-size: 20px; line-height: normal; font-family: Roboto, sans-serif; font-size-adjust: none; font-kerning: auto; font-variant-alternates: normal; font-variant-ligatures: normal; font-variant-numeric: normal; font-variant-east-asian: normal; font-variant-position: normal; font-variant-emoji: normal; font-feature-settings: normal; font-optical-sizing: auto; font-variation-settings: normal; white-space: pre;"><tspan x="12" y="34" dominant-baseline="ideographic">FileWriter 1</tspan></text></g></g></g><g id="g-root-ic_sett_4ikt4hwsxkao-fill" data-item-order="0" transform="translate(365.3333435058594, 86)"></g><g id="g-root-tx_agentaco_1cxebg1wsxk3l-fill" data-item-order="0" transform="translate(197.33334350585938, 200)"><g id="tx_agentaco_1cxebg1wsxk3l-fill" stroke="none" fill="#3cc583"><g><text style="font-style: normal; font-variant-caps: normal; font-weight: bold; font-width: normal; font-size: 20px; line-height: normal; font-family: Roboto, sans-serif; font-size-adjust: none; font-kerning: auto; font-variant-alternates: normal; font-variant-ligatures: normal; font-variant-numeric: normal; font-variant-east-asian: normal; font-variant-position: normal; font-variant-emoji: normal; font-feature-settings: normal; font-optical-sizing: auto; font-variation-settings: normal; white-space: pre;"><tspan x="12" y="34" dominant-baseline="ideographic">FileWriter 2</tspan></text></g></g></g><g id="g-root-ic_sett_1upat0xwsxn2b-fill" data-item-order="0" transform="translate(353.3333435058594, 206)"></g><g id="g-root-ic_2_4my4q9wsxmva-fill" data-item-order="0" transform="translate(581.3333740234375, 206)"></g><g id="g-root-tx_agentbco_1qbcq5twsxm30-fill" data-item-order="0" transform="translate(677.3333740234375, 200)"><g id="tx_agentbco_1qbcq5twsxm30-fill" stroke="none" fill="#1eabda"><g><text style="font-style: normal; font-variant-caps: normal; font-weight: bold; font-width: normal; font-size: 20px; line-height: normal; font-family: Roboto, sans-serif; font-size-adjust: none; font-kerning: auto; font-variant-alternates: normal; font-variant-ligatures: normal; font-variant-numeric: normal; font-variant-east-asian: normal; font-variant-position: normal; font-variant-emoji: normal; font-feature-settings: normal; font-optical-sizing: auto; font-variation-settings: normal; white-space: pre;"><tspan x="12" y="34" dominant-baseline="ideographic">FileWriter 3</tspan></text></g></g></g><g id="g-root-cp_3_text-3_qn6fe9wsxlah-stroke" data-item-order="-376256" transform="translate(341.3333435058594, 62)"><g id="cp_3_text-3_qn6fe9wsxlah-stroke" fill="none" stroke-linecap="round" stroke-linejoin="round" stroke-miterlimit="4" stroke="#ffffff" stroke-width="2"><g><path d="M 154 118L 154 142M 166 142L 166 118M 58.0317 94.0098C 77.9214 94.0098 94.0511 77.886 94.0511 58.0037C 94.0511 38.1214 77.9214 21.9877 58.0317 21.9877C 38.142 21.9877 22.0022 38.1114 22.0022 58.0037C 22.0022 77.896 38.132 94.0098 58.0317 94.0098ZM 166 118L 166 105.0755C 166 59.0733 132.9205 19.9984 87.4912 12.6613C 77.8013 11.0919 68.1815 10.0823 59.2616 10.0023C 32.3421 9.7424 9.7324 31.5839 10.0024 58.4935C 10.2724 84.7434 31.7121 106.0051 58.0317 106.0051L 58.7416 106.0051C 82.6513 106.0051 105.4509 96.9587 123.6507 81.4547C 123.8407 81.2847 124.0406 81.1148 124.2406 80.9548C 136.1705 71.0887 154.0002 79.6054 154.0002 95.0794L 154.0002 118"></path></g></g></g><g id="g-root-cp_3_stick-3_qn6fe9wsxlaj-stroke" data-item-order="-376234" transform="translate(484.3333435058594, 194)"><g id="cp_3_stick-3_qn6fe9wsxlaj-stroke" fill="none" stroke-linecap="round" stroke-linejoin="round" stroke-miterlimit="4" stroke="#ffffff" stroke-width="2"><g><path d="M 11 10L 11 250M 11 250L 10 250M 11 250L 23 250M 23 250L 23 10M 23 250L 24 250"></path></g></g></g><g id="g-root-cp_1_text-1_m7cx9twsxm2t-stroke" data-item-order="-376228" transform="translate(329.3333435058594, 182)"><g id="cp_1_text-1_m7cx9twsxm2t-stroke" fill="none" stroke-linecap="round" stroke-linejoin="round" stroke-miterlimit="4" stroke="#ffffff" stroke-width="2"><g><path d="M 154 118L 154 142M 166 142L 166 118M 58.0317 94.0098C 77.9214 94.0098 94.0511 77.886 94.0511 58.0037C 94.0511 38.1214 77.9214 21.9877 58.0317 21.9877C 38.142 21.9877 22.0022 38.1114 22.0022 58.0037C 22.0022 77.896 38.132 94.0098 58.0317 94.0098ZM 166 118L 166 105.0755C 166 59.0733 132.9205 19.9984 87.4912 12.6613C 77.8013 11.0919 68.1815 10.0823 59.2616 10.0023C 32.3421 9.7424 9.7324 31.5839 10.0024 58.4935C 10.2724 84.7434 31.7121 106.0051 58.0317 106.0051L 58.7416 106.0051C 82.6513 106.0051 105.4509 96.9587 123.6507 81.4547C 123.8407 81.2847 124.0406 81.1148 124.2406 80.9548C 136.1705 71.0887 154.0002 79.6054 154.0002 95.0794L 154.0002 118"></path></g></g></g><g id="g-root-cp_1_stick-1_1_m7cx9twsxm2v-stroke" data-item-order="-376208" transform="translate(473.3333435058594, 314)"><g id="cp_1_stick-1_1_m7cx9twsxm2v-stroke" fill="none" stroke-linecap="round" stroke-linejoin="round" stroke-miterlimit="4" stroke="#ffffff" stroke-width="2"><g><path d="M 10 10L 10 130L 22 130L 22 10"></path></g></g></g><g id="g-root-cp_2_text-2_m7cx9twsxm2x-stroke" data-item-order="-376196" transform="translate(497.3333435058594, 182)"><g id="cp_2_text-2_m7cx9twsxm2x-stroke" fill="none" stroke-linecap="round" stroke-linejoin="round" stroke-miterlimit="4" stroke="#ffffff" stroke-width="2"><g><path d="M 22 118L 22 142M 10 142L 10 118M 117.9683 94.0098C 98.0786 94.0098 81.9489 77.886 81.9489 58.0037C 81.9489 38.1214 98.0786 21.9877 117.9683 21.9877C 137.858 21.9877 153.9978 38.1114 153.9978 58.0037C 153.9978 77.896 137.868 94.0098 117.9683 94.0098ZM 10 118L 10 105.0755C 10 59.0733 43.0795 19.9984 88.5088 12.6613C 98.1987 11.0919 107.8185 10.0823 116.7383 10.0023C 143.6579 9.7424 166.2676 31.5839 165.9976 58.4935C 165.7276 84.7434 144.2879 106.0051 117.9683 106.0051L 117.2584 106.0051C 93.3487 106.0051 70.5491 96.9587 52.3493 81.4547C 52.1593 81.2847 51.9594 81.1148 51.7594 80.9548C 39.8295 71.0887 21.9998 79.6054 21.9998 95.0794L 21.9998 118"></path></g></g></g><g id="g-root-cp_2_stick-2_m7cx9twsxm2z-stroke" data-item-order="-376178" transform="translate(497.3333435058594, 314)"><g id="cp_2_stick-2_m7cx9twsxm2z-stroke" fill="none" stroke-linecap="round" stroke-linejoin="round" stroke-miterlimit="4" stroke="#ffffff" stroke-width="2"><g><path d="M 22 10L 22 130L 10 130L 10 10"></path></g></g></g><g id="g-root-tx_agentcco_1hbceb5wsxkb2-stroke" data-item-order="0" transform="translate(209.33334350585938, 80)"></g><g id="g-root-ic_sett_4ikt4hwsxkao-stroke" data-item-order="0" transform="translate(365.3333435058594, 86)"><g id="ic_sett_4ikt4hwsxkao-stroke" fill="none" stroke-linecap="round" stroke-linejoin="round" stroke-miterlimit="4" stroke="#92bd39" stroke-width="2"><g><path d="M 31 43L 11 43C 11.846 38.428001 11.706 35.841999 14.218 34.764L 23 31L 23 27C 23 27 21.110001 26.302 21.110001 22C 19.147999 22 19.147999 18 21.110001 18C 21.110001 17.424 17.822001 13.142 21.954 14C 22.936001 10 32.615997 10 33.598 14C 33.857594 15.397473 33.540127 16.840506 32.718002 18C 34.620003 18 34.099998 22 32.732002 22C 32.732002 26.302 31 27 31 27L 31 31L 34 32.285999M 42.625999 44.063999C 42.626003 45.651268 43.912735 46.938004 45.5 46.938004C 47.087269 46.938004 48.374001 45.651268 48.374001 44.064003C 48.374001 42.476734 47.087269 41.190002 45.5 41.190002C 43.912735 41.190002 42.626003 42.476734 42.626003 44.064003ZM 10 10M 47.942001 32.942001L 48.790001 35.725998C 49.079254 36.684647 50.062237 37.254845 51.038002 37.029999L 53.862 36.375999C 54.959873 36.12854 56.09087 36.625343 56.65136 37.601265C 57.211845 38.577183 57.071003 39.804428 56.304001 40.627998L 54.327999 42.757999C 53.651917 43.492813 53.651917 44.623184 54.327999 45.357998L 56.304001 47.487999C 57.071003 48.311573 57.211845 49.538818 56.65136 50.514736C 56.09087 51.490654 54.959873 51.987461 53.862 51.740002L 51.037998 51.085999C 50.062634 50.867977 49.084904 51.442032 48.799999 52.400002L 47.952 55.183998C 47.627914 56.261845 46.635513 56.999741 45.509998 56.999741C 44.384487 56.999741 43.392086 56.261845 43.068001 55.183998L 42.209999 52.400002C 41.920746 51.441357 40.937763 50.871155 39.961998 51.096001L 37.138 51.75C 36.040127 51.997459 34.90913 51.500656 34.34864 50.524734C 33.788155 49.548817 33.928997 48.321571 34.695999 47.498001L 36.672001 45.368C 37.348076 44.633183 37.348076 43.502815 36.671997 42.767998L 34.695999 40.638C 33.928997 39.81443 33.788155 38.587181 34.34864 37.611263C 34.90913 36.635345 36.040127 36.138542 37.138 36.386002L 39.961998 37.040001C 40.937763 37.264847 41.920746 36.694645 42.209999 35.736L 43.057999 32.952C 43.379871 31.873486 44.370766 31.133551 45.496281 31.131245C 46.621799 31.128941 47.615715 31.864813 47.942001 32.942001Z"></path></g></g></g><g id="g-root-tx_agentaco_1cxebg1wsxk3l-stroke" data-item-order="0" transform="translate(197.33334350585938, 200)"></g><g id="g-root-ic_sett_1upat0xwsxn2b-stroke" data-item-order="0" transform="translate(353.3333435058594, 206)"><g id="ic_sett_1upat0xwsxn2b-stroke" fill="none" stroke-linecap="round" stroke-linejoin="round" stroke-miterlimit="4" stroke="#3cc583" stroke-width="2"><g><path d="M 42.625999 23.938C 42.626003 25.525267 43.912735 26.812 45.5 26.812C 47.087269 26.812 48.374001 25.525267 48.374001 23.938C 48.374001 22.350735 47.087269 21.064001 45.5 21.064001C 43.912735 21.064001 42.626003 22.350735 42.626003 23.938ZM 47.942001 12.816L 48.799999 15.6C 49.09008 16.55814 50.071972 17.128578 51.048 16.906L 53.872002 16.25C 54.969875 16.002541 56.100872 16.499344 56.661358 17.475264C 57.221848 18.451183 57.081005 19.678429 56.313999 20.501999L 54.338001 22.632C 53.655762 23.368252 53.655762 24.505749 54.337997 25.241999L 56.313999 27.372C 57.081005 28.195572 57.221848 29.422817 56.661358 30.398737C 56.100872 31.374655 54.969875 31.87146 53.872002 31.624001L 51.048 30.969999C 50.071651 30.745333 49.088425 31.316551 48.799999 32.276001L 47.952 35.059998C 47.627914 36.137844 46.635513 36.87574 45.509998 36.87574C 44.384487 36.87574 43.392086 36.137844 43.068001 35.059998L 42.220001 32.276001C 41.93158 31.316551 40.948349 30.745333 39.972 30.970001L 37.148003 31.624001C 36.050125 31.87146 34.919128 31.374655 34.358643 30.398737C 33.798157 29.422817 33.938995 28.195572 34.706001 27.372L 36.681999 25.242001C 37.364235 24.505749 37.364235 23.368252 36.681999 22.632L 34.706001 20.501999C 33.938995 19.678429 33.798157 18.451183 34.358643 17.475264C 34.919128 16.499344 36.050125 16.002541 37.148003 16.25L 39.972 16.906C 40.94471 17.122675 41.920132 16.553459 42.209999 15.6L 43.057999 12.816C 43.382084 11.738155 44.374485 11.000258 45.5 11.000258C 46.625515 11.000258 47.617916 11.738155 47.942001 12.816ZM 25 57L 26 45L 31 45L 31 38C 31 32.477154 26.522848 28 21 28C 15.477153 28 11 32.477154 11 38L 11 45L 16 45L 17 57ZM 14 18C 14 21.865993 17.134007 25 21 25C 24.865993 25 28 21.865993 28 18C 28 14.134007 24.865993 11 21 11C 17.134007 11 14 14.134007 14 18Z"></path></g></g></g><g id="g-root-ic_2_4my4q9wsxmva-stroke" data-item-order="0" transform="translate(581.3333740234375, 206)"><g id="ic_2_4my4q9wsxmva-stroke" fill="none" stroke-linecap="round" stroke-linejoin="round" stroke-miterlimit="4" stroke="#1eabda" stroke-width="2"><g><path d="M 35.648003 33.686001L 42.324001 19L 49 33.686001M 37.127998 30.431999L 47.52 30.431999M 37.5 45L 53 45C 55.209141 45 57 43.209141 57 41L 57 15C 57 12.790861 55.209141 11 53 11L 17 11C 14.790861 11 13 12.790861 13 15L 13 33.299999M 33 55C 33 56.104568 32.104568 57 31 57L 13 57C 11.895431 57 11 56.104568 11 55L 11 48C 11 41.92487 15.924868 37 22 37C 28.075132 37 33 41.92487 33 48ZM 11 51L 33 51M 17 45.5C 17 45.776142 17.223858 46 17.5 46C 17.776142 46 18 45.776142 18 45.5C 18 45.223858 17.776142 45 17.5 45C 17.223858 45 17 45.223858 17 45.5M 26 45.5C 26 45.776142 26.223858 46 26.5 46C 26.776142 46 27 45.776142 27 45.5C 27 45.223858 26.776142 45 26.5 45C 26.223858 45 26 45.223858 26 45.5M 22 37L 22 33M 19 30C 19 31.656855 20.343147 33 22 33C 23.656855 33 25 31.656855 25 30C 25 28.343147 23.656855 27 22 27C 20.343147 27 19 28.343147 19 30"></path></g></g></g><g id="g-root-tx_agentbco_1qbcq5twsxm30-stroke" data-item-order="0" transform="translate(677.3333740234375, 200)"></g></g></g></svg>