<?xml version="1.0" encoding="utf-8" standalone="yes"?>
<!DOCTYPE svg PUBLIC "-//W3C//DTD SVG 1.1//EN" "http://www.w3.org/Graphics/SVG/1.1/DTD/svg11.dtd">
<svg width="924" height="457" viewBox="0 0 924 457" style="fill:none;stroke:none;fill-rule:evenodd;clip-rule:evenodd;stroke-linecap:round;stroke-linejoin:round;stroke-miterlimit:1.5;" version="1.1" xmlns="http://www.w3.org/2000/svg" xmlns:xlink="http://www.w3.org/1999/xlink"><style class="text-font-style fontImports" data-font-family="Roboto">@import url(https://fonts.googleapis.com/css2?family=Roboto:wght@400;700&amp;amp;display=block);</style><g id="items" style="isolation: isolate"><g id="blend" style="mix-blend-mode: normal"><g id="g-root-cp_4_g-4_qqxlds15yfy0x-fill" data-item-order="-378421" transform="translate(295.9039611816406, 69.06997680664062)"></g><g id="g-root-cp_3_g-3_hval4w15yfytm-fill" data-item-order="-378417" transform="translate(295.9039611816406, 225.21600341796875)"></g><g id="g-root-cp_2_g-2_hval4w15yfytn-fill" data-item-order="-378413" transform="translate(452, 225.23098754882812)"></g><g id="g-root-cp_1_g-1_hval4w15yfyto-fill" data-item-order="-378409" transform="translate(451.83197021484375, 69.36798095703125)"></g><g id="g-root-tx_plugin_94ndkw15yfzt2-fill" data-item-order="0" transform="translate(206, 81)"><g id="tx_plugin_94ndkw15yfzt2-fill" stroke="none" fill="#f366bb"><g><text style="font-style: normal; font-variant-caps: normal; font-weight: normal; font-width: normal; font-size: 20px; line-height: normal; font-family: Roboto, sans-serif; font-size-adjust: none; font-kerning: auto; font-variant-alternates: normal; font-variant-ligatures: normal; font-variant-numeric: normal; font-variant-east-asian: normal; font-variant-position: normal; font-variant-emoji: normal; font-feature-settings: normal; font-optical-sizing: auto; font-variation-settings: normal; white-space: pre;"><tspan x="12" y="34" dominant-baseline="ideographic">Plugin</tspan></text></g></g></g><g id="g-root-tx_config_qs6jk015yg074-fill" data-item-order="0" transform="translate(626, 81)"><g id="tx_config_qs6jk015yg074-fill" stroke="none" fill="#ffe711"><g><text style="font-style: normal; font-variant-caps: normal; font-weight: normal; font-width: normal; font-size: 20px; line-height: normal; font-family: Roboto, sans-serif; font-size-adjust: none; font-kerning: auto; font-variant-alternates: normal; font-variant-ligatures: normal; font-variant-numeric: normal; font-variant-east-asian: normal; font-variant-position: normal; font-variant-emoji: normal; font-feature-settings: normal; font-optical-sizing: auto; font-variation-settings: normal; white-space: pre;"><tspan x="12" y="34" dominant-baseline="ideographic">Config</tspan></text></g></g></g><g id="g-root-tx_pluginst_1lzae0w15yfytr-fill" data-item-order="0" transform="translate(98, 117)"><g id="tx_pluginst_1lzae0w15yfytr-fill" stroke="none" fill="#f4f4f4"><g><text style="font-style: normal; font-variant-caps: normal; font-weight: normal; font-width: normal; font-size: 15px; line-height: normal; font-family: Roboto, sans-serif; font-size-adjust: none; font-kerning: auto; font-variant-alternates: normal; font-variant-ligatures: normal; font-variant-numeric: normal; font-variant-east-asian: normal; font-variant-position: normal; font-variant-emoji: normal; font-feature-settings: normal; font-optical-sizing: auto; font-variation-settings: normal; white-space: pre;"><tspan x="23" y="28" dominant-baseline="ideographic">Plugins that extend the </tspan><tspan x="39" y="46" dominant-baseline="ideographic">agent's functionality.</tspan></text></g></g></g><g id="g-root-tx_configur_5vzwg15yg075-fill" data-item-order="0" transform="translate(626, 117)"><g id="tx_configur_5vzwg15yg075-fill" stroke="none" fill="#f4f4f4"><g><text style="font-style: normal; font-variant-caps: normal; font-weight: normal; font-width: normal; font-size: 15px; line-height: normal; font-family: Roboto, sans-serif; font-size-adjust: none; font-kerning: auto; font-variant-alternates: normal; font-variant-ligatures: normal; font-variant-numeric: normal; font-variant-east-asian: normal; font-variant-position: normal; font-variant-emoji: normal; font-feature-settings: normal; font-optical-sizing: auto; font-variation-settings: normal; white-space: pre;"><tspan x="12" y="28" dominant-baseline="ideographic">Configuration settings for the </tspan><tspan x="12" y="46" dominant-baseline="ideographic">agent.</tspan></text></g></g></g><g id="g-root-tx_controle_1qd8gw015yfzt0-fill" data-item-order="0" transform="translate(134, 297)"><g id="tx_controle_1qd8gw015yfzt0-fill" stroke="none" fill="#fb6762"><g><text style="font-style: normal; font-variant-caps: normal; font-weight: normal; font-width: normal; font-size: 20px; line-height: normal; font-family: Roboto, sans-serif; font-size-adjust: none; font-kerning: auto; font-variant-alternates: normal; font-variant-ligatures: normal; font-variant-numeric: normal; font-variant-east-asian: normal; font-variant-position: normal; font-variant-emoji: normal; font-feature-settings: normal; font-optical-sizing: auto; font-variation-settings: normal; white-space: pre;"><tspan x="15" y="34" dominant-baseline="ideographic">ControlEvents</tspan></text></g></g></g><g id="g-root-tx_stateeve_18kpi8015yg002-fill" data-item-order="0" transform="translate(626, 297)"><g id="tx_stateeve_18kpi8015yg002-fill" stroke="none" fill="#f79438"><g><text style="font-style: normal; font-variant-caps: normal; font-weight: normal; font-width: normal; font-size: 20px; line-height: normal; font-family: Roboto, sans-serif; font-size-adjust: none; font-kerning: auto; font-variant-alternates: normal; font-variant-ligatures: normal; font-variant-numeric: normal; font-variant-east-asian: normal; font-variant-position: normal; font-variant-emoji: normal; font-feature-settings: normal; font-optical-sizing: auto; font-variation-settings: normal; white-space: pre;"><tspan x="12" y="34" dominant-baseline="ideographic">StateEvents</tspan></text></g></g></g><g id="g-root-tx_eventsth_zqxx8g15yfzt1-fill" data-item-order="0" transform="translate(110, 333)"><g id="tx_eventsth_zqxx8g15yfzt1-fill" stroke="none" fill="#f4f4f4"><g><text style="font-style: normal; font-variant-caps: normal; font-weight: normal; font-width: normal; font-size: 15px; line-height: normal; font-family: Roboto, sans-serif; font-size-adjust: none; font-kerning: auto; font-variant-alternates: normal; font-variant-ligatures: normal; font-variant-numeric: normal; font-variant-east-asian: normal; font-variant-position: normal; font-variant-emoji: normal; font-feature-settings: normal; font-optical-sizing: auto; font-variation-settings: normal; white-space: pre;"><tspan x="14" y="28" dominant-baseline="ideographic">Events that control the </tspan><tspan x="52" y="46" dominant-baseline="ideographic">agent's behavior.</tspan></text></g></g></g><g id="g-root-tx_eventsre_hyeykg15yg003-fill" data-item-order="0" transform="translate(626, 333)"><g id="tx_eventsre_hyeykg15yg003-fill" stroke="none" fill="#f4f4f4"><g><text style="font-style: normal; font-variant-caps: normal; font-weight: normal; font-width: normal; font-size: 15px; line-height: normal; font-family: Roboto, sans-serif; font-size-adjust: none; font-kerning: auto; font-variant-alternates: normal; font-variant-ligatures: normal; font-variant-numeric: normal; font-variant-east-asian: normal; font-variant-position: normal; font-variant-emoji: normal; font-feature-settings: normal; font-optical-sizing: auto; font-variation-settings: normal; white-space: pre;"><tspan x="12" y="28" dominant-baseline="ideographic">Events related to the agent's </tspan><tspan x="12" y="46" dominant-baseline="ideographic">state.</tspan></text></g></g></g><g id="g-root-cp_4_g-4_qqxlds15yfy0x-stroke" data-item-order="-378421" transform="translate(295.9039611816406, 69.06997680664062)"><g id="cp_4_g-4_qqxlds15yfy0x-stroke" fill="none" stroke-linecap="round" stroke-linejoin="round" stroke-miterlimit="4" stroke="#f366bb" stroke-width="2"><g><path d="M 102.183831 25.816231C 106.428831 30.061331 109.819331 34.837331 112.355331 39.930431C 122.409931 60.123331 119.032231 85.301931 102.222431 102.145131C 102.209531 102.158031 102.196631 102.170931 102.183831 102.183831C 86.744131 117.623431 64.281031 121.759031 45.078831 114.590631C 43.904831 114.152331 42.743031 113.671831 41.595731 113.149031C 35.877731 110.543531 30.520931 106.888431 25.816231 102.183831C 4.727931 81.095531 4.727931 46.904531 25.816231 25.816231C 46.904531 4.727931 81.095531 4.727931 102.183831 25.816231ZM 45.078831 114.590631L 166.273931 166.180131L 113.368731 41.928431L 113.361931 41.935431L 112.355331 39.930431C 122.409931 60.123331 119.032231 85.301931 102.222431 102.145131C 102.209531 102.158031 102.196631 102.170931 102.183831 102.183831C 86.744131 117.623431 64.281031 121.759031 45.078831 114.590631ZM 41.595731 113.149031L 43.136931 113.764031L 45.078831 114.590631"></path></g></g></g><g id="g-root-cp_3_g-3_hval4w15yfytm-stroke" data-item-order="-378417" transform="translate(295.9039611816406, 225.21600341796875)"><g id="cp_3_g-3_hval4w15yfytm-stroke" fill="none" stroke-linecap="round" stroke-linejoin="round" stroke-miterlimit="4" stroke="#fb6762" stroke-width="2"><g><path d="M 102.183831 150.4696C 106.587231 146.0662 110.071131 141.0916 112.635631 135.7842C 113.444731 134.1097 114.162231 132.4021 114.788331 130.6689C 121.680931 111.5864 117.479431 89.3977 102.183831 74.1021C 85.800131 57.7185 61.508031 54.0634 41.595731 63.1368C 35.877731 65.7423 30.520931 69.3974 25.816231 74.1021C 4.727931 95.1904 4.727931 129.3813 25.816231 150.4696C 46.904531 171.5579 81.095531 171.5579 102.183831 150.4696ZM 166.167931 10L 43.030931 62.4161L 41.595731 63.1368C 61.508031 54.0634 85.800131 57.7185 102.183831 74.1021C 117.479431 89.3977 121.680931 111.5864 114.788331 130.6689L 166.167931 10ZM 113.255931 134.2447L 113.262731 134.2517M 113.262731 134.2517L 112.635631 135.7842M 113.262731 134.2517L 114.788331 130.6689"></path></g></g></g><g id="g-root-cp_2_g-2_hval4w15yfytn-stroke" data-item-order="-378413" transform="translate(452, 225.23098754882812)"><g id="cp_2_g-2_hval4w15yfytn-stroke" fill="none" stroke-linecap="round" stroke-linejoin="round" stroke-miterlimit="4" stroke="#f79438" stroke-width="2"><g><path d="M 74.0902 150.3639C 69.7119 145.9856 66.2426 141.0426 63.6824 135.7693C 53.9109 115.6432 57.3801 90.7064 74.0902 73.9964C 89.5298 58.5567 111.993 54.4211 131.1952 61.5895C 132.4791 62.0688 133.7484 62.5986 135 63.179C 140.5972 65.7742 145.8414 69.38 150.4577 73.9964C 171.546 95.0847 171.546 129.2756 150.4577 150.3639C 129.3694 171.4522 95.1785 171.4522 74.0902 150.3639ZM 131.1952 61.5895L 10 10L 62.9052 134.2517L 62.9121 134.2447L 63.6824 135.7693C 53.9109 115.6432 57.3801 90.7064 74.0902 73.9964C 89.5298 58.5567 111.993 54.4211 131.1952 61.5895ZM 135 63.179L 133.1371 62.4161L 131.1952 61.5895"></path></g></g></g><g id="g-root-cp_1_g-1_hval4w15yfyto-stroke" data-item-order="-378409" transform="translate(451.83197021484375, 69.36798095703125)"><g id="cp_1_g-1_hval4w15yfyto-stroke" fill="none" stroke-linecap="round" stroke-linejoin="round" stroke-miterlimit="4" stroke="#ffe711" stroke-width="2"><g><path d="M 73.9842 25.816231C 69.6831 30.117431 66.2592 34.963531 63.7125 40.132431C 62.8294 41.924931 62.0518 43.756231 61.3797 45.617031C 54.487 64.699531 58.6885 86.888131 73.9842 102.183831C 90.5316 118.731131 115.1463 122.294331 135.168 112.873231C 140.6623 110.287831 145.8108 106.724731 150.3517 102.183831C 171.44 81.095531 171.44 46.904631 150.3517 25.816231C 129.2634 4.727931 95.0725 4.727931 73.9842 25.816231ZM 10 166.285931L 133.1371 113.869731L 135.168 112.873231C 115.1463 122.294331 90.5316 118.731131 73.9842 102.183831C 58.6885 86.888131 54.487 64.699531 61.3797 45.617031L 10 166.285931ZM 62.9121 42.041131L 62.9052 42.034131M 62.9052 42.034131L 63.7125 40.132431M 62.9052 42.034131L 61.3797 45.617031"></path></g></g></g><g id="g-root-tx_plugin_94ndkw15yfzt2-stroke" data-item-order="0" transform="translate(206, 81)"></g><g id="g-root-tx_config_qs6jk015yg074-stroke" data-item-order="0" transform="translate(626, 81)"></g><g id="g-root-tx_pluginst_1lzae0w15yfytr-stroke" data-item-order="0" transform="translate(98, 117)"></g><g id="g-root-tx_configur_5vzwg15yg075-stroke" data-item-order="0" transform="translate(626, 117)"></g><g id="g-root-tx_controle_1qd8gw015yfzt0-stroke" data-item-order="0" transform="translate(134, 297)"></g><g id="g-root-tx_stateeve_18kpi8015yg002-stroke" data-item-order="0" transform="translate(626, 297)"></g><g id="g-root-tx_eventsth_zqxx8g15yfzt1-stroke" data-item-order="0" transform="translate(110, 333)"></g><g id="g-root-tx_eventsre_hyeykg15yg003-stroke" data-item-order="0" transform="translate(626, 333)"></g></g></g></svg>