<?xml version="1.0" encoding="utf-8" standalone="yes"?>
<!DOCTYPE svg PUBLIC "-//W3C//DTD SVG 1.1//EN" "http://www.w3.org/Graphics/SVG/1.1/DTD/svg11.dtd">
<svg width="1008" height="519" viewBox="0 0 1008 519" style="fill:none;stroke:none;fill-rule:evenodd;clip-rule:evenodd;stroke-linecap:round;stroke-linejoin:round;stroke-miterlimit:1.5;" version="1.1" xmlns="http://www.w3.org/2000/svg" xmlns:xlink="http://www.w3.org/1999/xlink"><style class="text-font-style fontImports" data-font-family="Roboto">@import url('https://fonts.googleapis.com/css2?family=Roboto:wght@400;700&amp;display=block');</style><g id="items" style="isolation: isolate"><g id="blend" style="mix-blend-mode: normal"><g id="g-root-cp_0_g-0_qu1wshxwxc7b-fill" data-item-order="-361340" transform="translate(261, 73.95001220703125)"><g id="cp_0_g-0_qu1wshxwxc7b-fill" stroke="none" fill="#4f3d58"><g><path d="M 224.9 49.32L 207.01 65.32L 183.21 59.44L 177.03 64.96L 200.83 70.84L 182.95 86.84L 159.15 80.96L 33.7947 192.828C 33.9295 193.548 34 194.291 34 195.05C 34 201.677 28.6274 207.05 22 207.05C 15.3726 207.05 10 201.677 10 195.05C 10 188.422 15.3726 183.05 22 183.05C 23.3911 183.05 24.7269 183.287 25.9693 183.722L 151.01 72.14L 147.77 47.52L 165.66 31.52L 168.9 56.14L 175.08 50.61L 171.83 26L 189.72 10L 193.89 41.66L 224.9 49.32Z"></path></g></g><g id="cp_0_g-0_qu1wshxwxc7b-fill" stroke="none" fill="#4f3d58"><g><path d="M 308.109922 230.717871C 304.839922 256.887871 297.999922 282.427871 287.799922 306.637871C 287.579922 306.497871 287.349922 306.357871 287.119922 306.227871C 285.589922 305.347871 284.019922 304.587871 282.429922 303.957871C 292.279922 280.467871 298.899922 255.717871 302.099922 230.347871C 303.809922 230.597871 305.569922 230.727871 307.349922 230.727871C 307.599922 230.727871 307.859922 230.727871 308.109922 230.717871ZM 308.109922 158.737871C 307.859922 158.727871 307.599922 158.727871 307.349922 158.727871C 305.569922 158.727871 303.819922 158.857871 302.109922 159.107871C 298.899922 133.757871 292.269922 108.987871 282.419922 85.497871C 284.019922 84.867871 285.589922 84.107871 287.119922 83.227871C 287.349922 83.097871 287.579922 82.957871 287.799922 82.817871C 297.999922 107.027871 304.829922 132.577871 308.109922 158.737871Z"></path></g></g></g><g id="g-root-cp_1_g-1_qu1wshxwxc7e-fill" data-item-order="-361334" transform="translate(225, 79.99996948242188)"><g id="cp_1_g-1_qu1wshxwxc7e-fill" stroke="none" fill="#974bbb"><g><path d="M 106 189.279816C 106 215.789816 84.51 237.279816 58 237.279816C 31.49 237.279816 10 215.789816 10 189.279816C 10 162.769816 31.49 141.279816 58 141.279816C 67.86 141.279816 77.03 144.249816 84.65 149.349816L 65.49 166.479816C 63.13 165.699816 60.62 165.279816 58 165.279816C 44.75 165.279816 34 176.029816 34 189.279816C 34 202.529816 44.75 213.279816 58 213.279816C 71.25 213.279816 82 202.529816 82 189.279816C 82 187.599816 81.83 185.949816 81.49 184.369816L 100.65 167.229816C 104.07 173.829816 106 181.329816 106 189.279816Z"></path></g></g><g id="cp_1_g-1_qu1wshxwxc7e-fill" stroke="none" fill="#974bbb"><g><path d="M 323.799916 76.768131C 323.579916 76.908131 323.349916 77.048131 323.119916 77.178131C 321.589916 78.058131 320.019916 78.818131 318.419916 79.448131C 302.079916 85.978131 282.999916 79.688131 273.939916 64.008131C 263.999916 46.788131 269.899916 24.768131 287.119916 14.828131C 304.339916 4.888131 326.359916 10.788131 336.299916 28.008131C 346.109916 44.988131 340.489916 66.648131 323.799916 76.768131Z"></path></g></g></g><g id="g-root-cp_2_g-2_me8eo1xwxczp-fill" data-item-order="-361328" transform="translate(189, 175.280029296875)"><g id="cp_2_g-2_me8eo1xwxczp-fill" stroke="none" fill="#c061ed"><g><path d="M 163.97 47.51L 145.82 63.74C 151.02 72.62 154 82.96 154 94C 154 127.14 127.14 154 94 154C 60.86 154 34 127.14 34 94C 34 60.86 60.86 34 94 34C 107.43 34 119.82 38.41 129.82 45.86L 147.97 29.63C 133.37 17.37 114.55 10 94 10C 47.61 10 10 47.61 10 94C 10 140.39 47.61 178 94 178C 140.39 178 178 140.39 178 94C 178 76.81 172.84 60.82 163.97 47.51Z"></path></g></g><g id="cp_2_g-2_me8eo1xwxczp-fill" stroke="none" fill="#c061ed"><g><path d="M 415.350098 93.398438C 415.350098 113.028438 399.640098 128.988438 380.110098 129.388438C 379.860098 129.398438 379.600098 129.398438 379.350098 129.398438C 377.570098 129.398438 375.810098 129.268438 374.100098 129.018438C 356.710098 126.478438 343.350098 111.498438 343.350098 93.398438C 343.350098 75.298438 356.710098 60.318438 374.110098 57.778438C 375.820098 57.528438 377.570098 57.398438 379.350098 57.398438C 379.600098 57.398438 379.860098 57.398447 380.110098 57.408438C 399.640098 57.808438 415.350098 73.768438 415.350098 93.398438Z"></path></g></g></g><g id="g-root-cp_3_g-3_me8eo1xwxczs-fill" data-item-order="-361322" transform="translate(153, 139.2799072265625)"><g id="cp_3_g-3_me8eo1xwxczs-fill" stroke="none" fill="#e2a3ff"><g><path d="M 226.99 59.34L 208.99 75.44C 219.72 90.93 226 109.73 226 130C 226 183.02 183.02 226 130 226C 76.98 226 34 183.02 34 130C 34 76.98 76.98 34 130 34C 154.11 34 176.14 42.88 192.99 57.56L 210.99 41.46C 189.65 21.92 161.22 10 130 10C 63.73 10 10 63.73 10 130C 10 196.27 63.73 250 130 250C 196.27 250 250 196.27 250 130C 250 103.58 241.46 79.16 226.99 59.34Z"></path></g></g><g id="cp_3_g-3_me8eo1xwxczs-fill" stroke="none" fill="#e2a3ff"><g><path d="M 408.299916 290.06813C 398.359916 307.28813 376.339916 313.18813 359.119916 303.24813C 341.899916 293.30813 335.999916 271.28813 345.939916 254.06813C 354.999916 238.38813 374.079916 232.09813 390.429916 238.62813C 392.019916 239.25813 393.589916 240.01813 395.119916 240.89813C 395.349916 241.02813 395.579916 241.16813 395.799916 241.30813C 412.489916 251.42813 418.109916 273.08813 408.299916 290.06813Z"></path></g></g></g><g id="g-root-ic_pent_qs6hj5xwyrd8-fill" data-item-order="0" transform="translate(497, 92)"></g><g id="g-root-tx_orchestr_zly2ipxwyrka-fill" data-item-order="0" transform="translate(581, 86)"><g id="tx_orchestr_zly2ipxwyrka-fill" stroke="none" fill="#484848"><g><text style="font-style: normal; font-variant-caps: normal; font-weight: bold; font-width: normal; font-size: 20px; line-height: normal; font-family: Roboto, sans-serif; font-size-adjust: none; font-kerning: auto; font-variant-alternates: normal; font-variant-ligatures: normal; font-variant-numeric: normal; font-variant-east-asian: normal; font-variant-position: normal; font-variant-emoji: normal; font-feature-settings: normal; font-optical-sizing: auto; font-variation-settings: normal; white-space: pre;"><tspan x="12" y="34" dominant-baseline="ideographic">Orchestrator</tspan></text></g></g></g><g id="g-root-tx_centralm_1upb2gxxwysy3-fill" data-item-order="0" transform="translate(581, 122)"><g id="tx_centralm_1upb2gxxwysy3-fill" stroke="none" fill="#484848"><g><text style="font-style: normal; font-variant-caps: normal; font-weight: normal; font-width: normal; font-size: 15px; line-height: normal; font-family: Roboto, sans-serif; font-size-adjust: none; font-kerning: auto; font-variant-alternates: normal; font-variant-ligatures: normal; font-variant-numeric: normal; font-variant-east-asian: normal; font-variant-position: normal; font-variant-emoji: normal; font-feature-settings: normal; font-optical-sizing: auto; font-variation-settings: normal; white-space: pre;"><tspan x="12" y="31" dominant-baseline="ideographic">Central management system</tspan></text></g></g></g><g id="g-root-ic_mana_13zw5dtxwysjl-fill" data-item-order="0" transform="translate(535, 235)"></g><g id="g-root-tx_agents_qn6ou9xwyryf-fill" data-item-order="0" transform="translate(619, 223)"><g id="tx_agents_qn6ou9xwyryf-fill" stroke="none" fill="#484848"><g><text style="font-style: normal; font-variant-caps: normal; font-weight: bold; font-width: normal; font-size: 20px; line-height: normal; font-family: Roboto, sans-serif; font-size-adjust: none; font-kerning: auto; font-variant-alternates: normal; font-variant-ligatures: normal; font-variant-numeric: normal; font-variant-east-asian: normal; font-variant-position: normal; font-variant-emoji: normal; font-feature-settings: normal; font-optical-sizing: auto; font-variation-settings: normal; white-space: pre;"><tspan x="12" y="34" dominant-baseline="ideographic">Agents</tspan></text></g></g></g><g id="g-root-tx_entities_w56pxwyryg-fill" data-item-order="0" transform="translate(619, 259)"><g id="tx_entities_w56pxwyryg-fill" stroke="none" fill="#484848"><g><text style="font-style: normal; font-variant-caps: normal; font-weight: normal; font-width: normal; font-size: 15px; line-height: normal; font-family: Roboto, sans-serif; font-size-adjust: none; font-kerning: auto; font-variant-alternates: normal; font-variant-ligatures: normal; font-variant-numeric: normal; font-variant-east-asian: normal; font-variant-position: normal; font-variant-emoji: normal; font-feature-settings: normal; font-optical-sizing: auto; font-variation-settings: normal; white-space: pre;"><tspan x="12" y="28" dominant-baseline="ideographic">Entities managed by the </tspan><tspan x="12" y="46" dominant-baseline="ideographic">Orchestrator</tspan></text></g></g></g><g id="g-root-ic_sync_1hjgtvlxwxddy-fill" data-item-order="0" transform="translate(496, 377)"></g><g id="g-root-tx_registra_1hhlem9xwxedo-fill" data-item-order="0" transform="translate(580, 371)"><g id="tx_registra_1hhlem9xwxedo-fill" stroke="none" fill="#484848"><g><text style="font-style: normal; font-variant-caps: normal; font-weight: bold; font-width: normal; font-size: 20px; line-height: normal; font-family: Roboto, sans-serif; font-size-adjust: none; font-kerning: auto; font-variant-alternates: normal; font-variant-ligatures: normal; font-variant-numeric: normal; font-variant-east-asian: normal; font-variant-position: normal; font-variant-emoji: normal; font-feature-settings: normal; font-optical-sizing: auto; font-variation-settings: normal; white-space: pre;"><tspan x="12" y="34" dominant-baseline="ideographic">Registration Process</tspan></text></g></g></g><g id="g-root-tx_initials_dkgtohxwxcst-fill" data-item-order="0" transform="translate(580, 407)"><g id="tx_initials_dkgtohxwxcst-fill" stroke="none" fill="#484848"><g><text style="font-style: normal; font-variant-caps: normal; font-weight: normal; font-width: normal; font-size: 15px; line-height: normal; font-family: Roboto, sans-serif; font-size-adjust: none; font-kerning: auto; font-variant-alternates: normal; font-variant-ligatures: normal; font-variant-numeric: normal; font-variant-east-asian: normal; font-variant-position: normal; font-variant-emoji: normal; font-feature-settings: normal; font-optical-sizing: auto; font-variation-settings: normal; white-space: pre;"><tspan x="12" y="31" dominant-baseline="ideographic">Initial step for Agent integration</tspan></text></g></g></g><g id="g-root-cp_0_g-0_qu1wshxwxc7b-stroke" data-item-order="-361340" transform="translate(261, 73.95001220703125)"><g id="cp_0_g-0_qu1wshxwxc7b-stroke" fill="none" stroke-linecap="round" stroke-linejoin="round" stroke-miterlimit="4" stroke="#ffffff" stroke-width="2"><g><path d="M 224.9 49.32L 207.01 65.32L 183.21 59.44L 177.03 64.96L 200.83 70.84L 182.95 86.84L 159.15 80.96L 33.7947 192.8277C 33.9295 193.5478 34 194.2906 34 195.0498C 34 201.6772 28.6274 207.0498 22 207.0498C 15.3726 207.0498 10 201.6772 10 195.0498C 10 188.4224 15.3726 183.0498 22 183.0498C 23.3911 183.0498 24.7269 183.2865 25.9693 183.7218L 151.01 72.14L 147.77 47.52L 165.66 31.52L 168.9 56.14L 175.08 50.61L 171.83 26L 189.72 10L 193.89 41.66L 224.9 49.32Z"></path></g></g><g id="cp_0_g-0_qu1wshxwxc7b-stroke" fill="none" stroke-linecap="round" stroke-linejoin="round" stroke-miterlimit="4" stroke="#ffffff" stroke-width="2"><g><path d="M 308.109922 230.717871C 304.839922 256.887871 297.999922 282.427871 287.799922 306.637871C 287.579922 306.497871 287.349922 306.357871 287.119922 306.227871C 285.589922 305.347871 284.019922 304.587871 282.429922 303.957871C 292.279922 280.467871 298.899922 255.717871 302.099922 230.347871C 303.809922 230.597871 305.569922 230.727871 307.349922 230.727871C 307.599922 230.727871 307.859922 230.727871 308.109922 230.717871ZM 308.109922 158.737871C 307.859922 158.727871 307.599922 158.727871 307.349922 158.727871C 305.569922 158.727871 303.819922 158.857871 302.109922 159.107871C 298.899922 133.757871 292.269922 108.987871 282.419922 85.497871C 284.019922 84.867871 285.589922 84.107871 287.119922 83.227871C 287.349922 83.097871 287.579922 82.957871 287.799922 82.817871C 297.999922 107.027871 304.829922 132.577871 308.109922 158.737871Z"></path></g></g></g><g id="g-root-cp_1_g-1_qu1wshxwxc7e-stroke" data-item-order="-361334" transform="translate(225, 79.99996948242188)"><g id="cp_1_g-1_qu1wshxwxc7e-stroke" fill="none" stroke-linecap="round" stroke-linejoin="round" stroke-miterlimit="4" stroke="#ffffff" stroke-width="2"><g><path d="M 106 189.279816C 106 215.789816 84.51 237.279816 58 237.279816C 31.49 237.279816 10 215.789816 10 189.279816C 10 162.769816 31.49 141.279816 58 141.279816C 67.86 141.279816 77.03 144.249816 84.65 149.349816L 65.49 166.479816C 63.13 165.699816 60.62 165.279816 58 165.279816C 44.75 165.279816 34 176.029816 34 189.279816C 34 202.529816 44.75 213.279816 58 213.279816C 71.25 213.279816 82 202.529816 82 189.279816C 82 187.599816 81.83 185.949816 81.49 184.369816L 100.65 167.229816C 104.07 173.829816 106 181.329816 106 189.279816Z"></path></g></g><g id="cp_1_g-1_qu1wshxwxc7e-stroke" fill="none" stroke-linecap="round" stroke-linejoin="round" stroke-miterlimit="4" stroke="#ffffff" stroke-width="2"><g><path d="M 323.799916 76.768131C 323.579916 76.908131 323.349916 77.048131 323.119916 77.178131C 321.589916 78.058131 320.019916 78.818131 318.419916 79.448131C 302.079916 85.978131 282.999916 79.688131 273.939916 64.008131C 263.999916 46.788131 269.899916 24.768131 287.119916 14.828131C 304.339916 4.888131 326.359916 10.788131 336.299916 28.008131C 346.109916 44.988131 340.489916 66.648131 323.799916 76.768131Z"></path></g></g></g><g id="g-root-cp_2_g-2_me8eo1xwxczp-stroke" data-item-order="-361328" transform="translate(189, 175.280029296875)"><g id="cp_2_g-2_me8eo1xwxczp-stroke" fill="none" stroke-linecap="round" stroke-linejoin="round" stroke-miterlimit="4" stroke="#ffffff" stroke-width="2"><g><path d="M 163.97 47.51L 145.82 63.74C 151.02 72.62 154 82.96 154 94C 154 127.14 127.14 154 94 154C 60.86 154 34 127.14 34 94C 34 60.86 60.86 34 94 34C 107.43 34 119.82 38.41 129.82 45.86L 147.97 29.63C 133.37 17.37 114.55 10 94 10C 47.61 10 10 47.61 10 94C 10 140.39 47.61 178 94 178C 140.39 178 178 140.39 178 94C 178 76.81 172.84 60.82 163.97 47.51Z"></path></g></g><g id="cp_2_g-2_me8eo1xwxczp-stroke" fill="none" stroke-linecap="round" stroke-linejoin="round" stroke-miterlimit="4" stroke="#ffffff" stroke-width="2"><g><path d="M 415.350098 93.398438C 415.350098 113.028438 399.640098 128.988438 380.110098 129.388438C 379.860098 129.398438 379.600098 129.398438 379.350098 129.398438C 377.570098 129.398438 375.810098 129.268438 374.100098 129.018438C 356.710098 126.478438 343.350098 111.498438 343.350098 93.398438C 343.350098 75.298438 356.710098 60.318438 374.110098 57.778438C 375.820098 57.528438 377.570098 57.398438 379.350098 57.398438C 379.600098 57.398438 379.860098 57.398438 380.110098 57.408438C 399.640098 57.808438 415.350098 73.768438 415.350098 93.398438Z"></path></g></g></g><g id="g-root-cp_3_g-3_me8eo1xwxczs-stroke" data-item-order="-361322" transform="translate(153, 139.2799072265625)"><g id="cp_3_g-3_me8eo1xwxczs-stroke" fill="none" stroke-linecap="round" stroke-linejoin="round" stroke-miterlimit="4" stroke="#ffffff" stroke-width="2"><g><path d="M 226.99 59.34L 208.99 75.44C 219.72 90.93 226 109.73 226 130C 226 183.02 183.02 226 130 226C 76.98 226 34 183.02 34 130C 34 76.98 76.98 34 130 34C 154.11 34 176.14 42.88 192.99 57.56L 210.99 41.46C 189.65 21.92 161.22 10 130 10C 63.73 10 10 63.73 10 130C 10 196.27 63.73 250 130 250C 196.27 250 250 196.27 250 130C 250 103.58 241.46 79.16 226.99 59.34Z"></path></g></g><g id="cp_3_g-3_me8eo1xwxczs-stroke" fill="none" stroke-linecap="round" stroke-linejoin="round" stroke-miterlimit="4" stroke="#ffffff" stroke-width="2"><g><path d="M 408.299916 290.06813C 398.359916 307.28813 376.339916 313.18813 359.119916 303.24813C 341.899916 293.30813 335.999916 271.28813 345.939916 254.06813C 354.999916 238.38813 374.079916 232.09813 390.429916 238.62813C 392.019916 239.25813 393.589916 240.01813 395.119916 240.89813C 395.349916 241.02813 395.579916 241.16813 395.799916 241.30813C 412.489916 251.42813 418.109916 273.08813 408.299916 290.06813Z"></path></g></g></g><g id="g-root-ic_pent_qs6hj5xwyrd8-stroke" data-item-order="0" transform="translate(497, 92)"><g id="ic_pent_qs6hj5xwyrd8-stroke" fill="none" stroke-linecap="round" stroke-linejoin="round" stroke-miterlimit="4" stroke="#ffffff" stroke-width="2"><g><path d="M 32.820602 13.01816C 33.5214 12.50888 34.4706 12.50888 35.1716 13.01816L 55.649601 27.896259C 56.350601 28.40554 56.643799 29.308281 56.376202 30.132401L 48.554199 54.205601C 48.286598 55.029598 47.5186 55.587601 46.652199 55.587601L 21.34004 55.587601C 20.473579 55.587601 19.705681 55.029598 19.43792 54.205601L 11.61605 30.132401C 11.348302 29.308281 11.641618 28.40554 12.3426 27.896259L 32.820602 13.01816ZM 43.404598 38.497002C 42.996201 40.154999 42.1446 41.725998 40.849197 43.0214C 37.0662 46.804199 30.933001 46.804199 27.150221 43.0214C 23.36738 39.2384 23.36738 33.105202 27.150221 29.322439C 30.933001 25.539581 37.0662 25.539581 40.849197 29.322439L 42.813202 31.2864M 37.3204 31.296801L 42.8214 31.296801L 42.8214 25.795761"></path></g></g></g><g id="g-root-tx_orchestr_zly2ipxwyrka-stroke" data-item-order="0" transform="translate(581, 86)"></g><g id="g-root-tx_centralm_1upb2gxxwysy3-stroke" data-item-order="0" transform="translate(581, 122)"></g><g id="g-root-ic_mana_13zw5dtxwysjl-stroke" data-item-order="0" transform="translate(535, 235)"><g id="ic_mana_13zw5dtxwysjl-stroke" fill="none" stroke-linecap="round" stroke-linejoin="round" stroke-miterlimit="4" stroke="#ffffff" stroke-width="2"><g><path d="M 30 53C 30 55.209141 31.790861 57 34 57C 36.209137 57 38 55.209141 38 53C 38 50.790859 36.209137 49 34 49C 31.790861 49 30 50.790859 30 53M 34 57C 32.387375 56.993229 30.936539 56.018749 30.320332 54.528484C 29.704123 53.038223 30.043077 51.323681 31.18 50.18L 50.18 31.18C 51.76704 29.820892 54.132778 29.912271 55.610252 31.389748C 57.08773 32.867226 57.179108 35.23296 55.82 36.82L 36.82 55.82C 36.073299 56.571175 35.059155 56.995533 34 57ZM 30 15C 30 17.209139 31.790861 19 34 19C 36.209137 19 38 17.209139 38 15C 38 12.790861 36.209137 11 34 11C 31.790861 11 30 12.790861 30 15M 30 34C 30 36.209137 31.790861 38 34 38C 36.209137 38 38 36.209137 38 34C 38 31.790861 36.209137 30 34 30C 31.790861 30 30 31.790861 30 34M 34 11C 35.612625 11.006771 37.063461 11.981252 37.679668 13.471516C 38.295876 14.961779 37.956924 16.676319 36.82 17.82L 17.82 36.82C 16.25985 38.370895 13.740149 38.370895 12.18 36.82C 10.629106 35.25985 10.629106 32.74015 12.18 31.18L 31.18 12.18C 31.926701 11.428824 32.940845 11.004465 34 11ZM 43.5 20.5C 45.112621 20.506771 46.563461 21.481251 47.179668 22.971516C 47.795879 24.461779 47.456924 26.176321 46.32 27.32L 27.32 46.32C 25.73296 47.679108 23.367224 47.58773 21.889748 46.110252C 20.41227 44.632778 20.320892 42.26704 21.68 40.68L 40.68 21.68C 41.426701 20.928825 42.440845 20.504465 43.5 20.5Z"></path></g></g></g><g id="g-root-tx_agents_qn6ou9xwyryf-stroke" data-item-order="0" transform="translate(619, 223)"></g><g id="g-root-tx_entities_w56pxwyryg-stroke" data-item-order="0" transform="translate(619, 259)"></g><g id="g-root-ic_sync_1hjgtvlxwxddy-stroke" data-item-order="0" transform="translate(496, 377)"><g id="ic_sync_1hjgtvlxwxddy-stroke" fill="none" stroke-linecap="round" stroke-linejoin="round" stroke-miterlimit="4" stroke="#ffffff" stroke-width="2"><g><path d="M 10 10M 48 41.001999L 57 41.001999L 57 32.001999M 56.316002 41C 54.493988 35.843327 49.41576 32.570965 43.967026 33.042435C 38.518288 33.513908 34.077637 37.609924 33.168472 43.002922C 32.259308 48.395924 35.11166 53.721413 40.104675 55.953178C 45.097694 58.184944 50.96809 56.758327 54.380001 52.484001M 27 45L 11 45C 10.999802 39.879585 13.795003 35.167534 18.288727 32.712929C 22.782452 30.258322 28.257736 30.452782 32.566002 33.220001M 17.676001 15.184C 20.334749 17.943356 24.002159 19.501591 27.834 19.5C 29.755585 19.50161 31.657206 19.11026 33.421997 18.349998M 16.5 19.5C 16.5 24.19442 20.30558 28 25 28C 29.69442 28 33.5 24.19442 33.5 19.5C 33.5 14.80558 29.69442 11 25 11C 20.30558 11 16.5 14.80558 16.5 19.5Z"></path></g></g></g><g id="g-root-tx_registra_1hhlem9xwxedo-stroke" data-item-order="0" transform="translate(580, 371)"></g><g id="g-root-tx_initials_dkgtohxwxcst-stroke" data-item-order="0" transform="translate(580, 407)"></g></g></g></svg>