<?xml version="1.0" encoding="utf-8" standalone="yes"?>
<!DOCTYPE svg PUBLIC "-//W3C//DTD SVG 1.1//EN" "http://www.w3.org/Graphics/SVG/1.1/DTD/svg11.dtd">
<svg width="1009" height="432" viewBox="0 0 1009 432" style="fill:none;stroke:none;fill-rule:evenodd;clip-rule:evenodd;stroke-linecap:round;stroke-linejoin:round;stroke-miterlimit:1.5;" version="1.1" xmlns="http://www.w3.org/2000/svg" xmlns:xlink="http://www.w3.org/1999/xlink"><style class="text-font-style fontImports" data-font-family="Roboto">@import url('https://fonts.googleapis.com/css2?family=Roboto:wght@400;700&amp;display=block');</style><g id="items" style="isolation: isolate"><g id="blend" style="mix-blend-mode: normal"><g id="g-root-cp_1_g-1_8vwevmyqgq2t-fill" data-item-order="-401870" transform="translate(26, 206)"><g id="cp_1_g-1_8vwevmyqgq2t-fill" stroke="none" fill="#ffe711"><g><path d="M 178 46C 178 39.37 172.63 34 166 34L 118 34L 94 10L 70 34L 22 34C 15.38 34 10 39.37 10 46L 10 58L 178 58L 178 46ZM 178 58L 10 58L 10 154L 178 154L 178 58ZM 10 166C 10 172.63 15.37 178 22 178L 166 178C 172.63 178 178 172.63 178 166L 178 154L 10 154L 10 166Z"></path></g></g></g><g id="g-root-cp_2_g-2_1um6fkiyqgoav-fill" data-item-order="-401846" transform="translate(218, 206)"><g id="cp_2_g-2_1um6fkiyqgoav-fill" stroke="none" fill="#f79438"><g><path d="M 178 46C 178 39.37 172.63 34 166 34L 118 34L 94 10L 70 34L 22 34C 15.38 34 10 39.37 10 46L 10 58L 178 58L 178 46ZM 178 58L 10 58L 10 154L 178 154L 178 58ZM 10 166C 10 172.63 15.37 178 22 178L 166 178C 172.63 178 178 172.63 178 166L 178 154L 10 154L 10 166Z"></path></g></g></g><g id="g-root-cp_3_g-3_1um6fkiyqgoax-fill" data-item-order="-401822" transform="translate(410, 206)"><g id="cp_3_g-3_1um6fkiyqgoax-fill" stroke="none" fill="#fb6762"><g><path d="M 178 46C 178 39.37 172.63 34 166 34L 118 34L 94 10L 70 34L 22 34C 15.38 34 10 39.37 10 46L 10 58L 178 58L 178 46ZM 178 58L 10 58L 10 154L 178 154L 178 58ZM 10 166C 10 172.63 15.37 178 22 178L 166 178C 172.63 178 178 172.63 178 166L 178 154L 10 154L 10 166Z"></path></g></g></g><g id="g-root-cp_4_g-4_1q6cxg2yqgp37-fill" data-item-order="-401798" transform="translate(602, 206)"><g id="cp_4_g-4_1q6cxg2yqgp37-fill" stroke="none" fill="#f366bb"><g><path d="M 178 46C 178 39.37 172.63 34 166 34L 118 34L 94 10L 70 34L 22 34C 15.38 34 10 39.37 10 46L 10 58L 178 58L 178 46ZM 178 58L 10 58L 10 154L 178 154L 178 58ZM 10 166C 10 172.63 15.37 178 22 178L 166 178C 172.63 178 178 172.63 178 166L 178 154L 10 154L 10 166Z"></path></g></g></g><g id="g-root-cp_5_g-5_1q6cxg2yqgp39-fill" data-item-order="-401774" transform="translate(794, 206)"><g id="cp_5_g-5_1q6cxg2yqgp39-fill" stroke="none" fill="#cb68f9"><g><path d="M 178 46C 178 39.37 172.63 34 166 34L 118 34L 94 10L 70 34L 22 34C 15.38 34 10 39.37 10 46L 10 58L 178 58L 178 46ZM 178 58L 10 58L 10 154L 178 154L 178 58ZM 10 166C 10 172.63 15.37 178 22 178L 166 178C 172.63 178 178 172.63 178 166L 178 154L 10 154L 10 166Z"></path></g></g></g><g id="g-root-ic_2_mahaoiyqgpoi-fill" data-item-order="0" transform="translate(50, 62)"></g><g id="g-root-ic_circ_4hyc0iyqi39h-fill" data-item-order="0" transform="translate(242, 62)"></g><g id="g-root-ic_2_1uux2s2yqmbr4-fill" data-item-order="0" transform="translate(434, 62)"></g><g id="g-root-ic_2_v4vcr6yqnq4j-fill" data-item-order="0" transform="translate(626, 62)"></g><g id="g-root-ic_cale_5voeqyqp4p2-fill" data-item-order="0" transform="translate(818, 62)"></g><g id="g-root-tx_oneshota_hteuduyqgoao-fill" data-item-order="0" transform="translate(38, 254)"><g id="tx_oneshota_hteuduyqgoao-fill" stroke="none" fill="#2c2c2c"><g><text style="font-style: normal; font-variant-caps: normal; font-weight: bold; font-width: normal; font-size: 20px; line-height: normal; font-family: Roboto, sans-serif; font-size-adjust: none; font-kerning: auto; font-variant-alternates: normal; font-variant-ligatures: normal; font-variant-numeric: normal; font-variant-east-asian: normal; font-variant-position: normal; font-variant-emoji: normal; font-feature-settings: normal; font-optical-sizing: auto; font-variation-settings: normal; white-space: pre;"><tspan x="16.24" y="34" dominant-baseline="ideographic">OneShotAgent</tspan></text></g></g></g><g id="g-root-tx_loopinga_dbpx02yqi3gj-fill" data-item-order="0" transform="translate(236, 254)"><g id="tx_loopinga_dbpx02yqi3gj-fill" stroke="none" fill="#2c2c2c"><g><text style="font-style: normal; font-variant-caps: normal; font-weight: bold; font-width: normal; font-size: 20px; line-height: normal; font-family: Roboto, sans-serif; font-size-adjust: none; font-kerning: auto; font-variant-alternates: normal; font-variant-ligatures: normal; font-variant-numeric: normal; font-variant-east-asian: normal; font-variant-position: normal; font-variant-emoji: normal; font-feature-settings: normal; font-optical-sizing: auto; font-variation-settings: normal; white-space: pre;"><tspan x="12.44" y="34" dominant-baseline="ideographic">LoopingAgent</tspan></text></g></g></g><g id="g-root-tx_periodic_1hi7m8iyqmb5y-fill" data-item-order="0" transform="translate(422, 254)"><g id="tx_periodic_1hi7m8iyqmb5y-fill" stroke="none" fill="#2c2c2c"><g><text style="font-style: normal; font-variant-caps: normal; font-weight: bold; font-width: normal; font-size: 20px; line-height: normal; font-family: Roboto, sans-serif; font-size-adjust: none; font-kerning: auto; font-variant-alternates: normal; font-variant-ligatures: normal; font-variant-numeric: normal; font-variant-east-asian: normal; font-variant-position: normal; font-variant-emoji: normal; font-feature-settings: normal; font-optical-sizing: auto; font-variation-settings: normal; white-space: pre;"><tspan x="17.48" y="34" dominant-baseline="ideographic">PeriodicAgent</tspan></text></g></g></g><g id="g-root-tx_eventage_13ymxqqyqnqbl-fill" data-item-order="0" transform="translate(632, 254)"><g id="tx_eventage_13ymxqqyqnqbl-fill" stroke="none" fill="#2c2c2c"><g><text style="font-style: normal; font-variant-caps: normal; font-weight: bold; font-width: normal; font-size: 20px; line-height: normal; font-family: Roboto, sans-serif; font-size-adjust: none; font-kerning: auto; font-variant-alternates: normal; font-variant-ligatures: normal; font-variant-numeric: normal; font-variant-east-asian: normal; font-variant-position: normal; font-variant-emoji: normal; font-feature-settings: normal; font-optical-sizing: auto; font-variation-settings: normal; white-space: pre;"><tspan x="12.15" y="34" dominant-baseline="ideographic">EventAgent</tspan></text></g></g></g><g id="g-root-tx_schedule_8zn9eayqp4w4-fill" data-item-order="0" transform="translate(800, 254)"><g id="tx_schedule_8zn9eayqp4w4-fill" stroke="none" fill="#2c2c2c"><g><text style="font-style: normal; font-variant-caps: normal; font-weight: bold; font-width: normal; font-size: 20px; line-height: normal; font-family: Roboto, sans-serif; font-size-adjust: none; font-kerning: auto; font-variant-alternates: normal; font-variant-ligatures: normal; font-variant-numeric: normal; font-variant-east-asian: normal; font-variant-position: normal; font-variant-emoji: normal; font-feature-settings: normal; font-optical-sizing: auto; font-variation-settings: normal; white-space: pre;"><tspan x="13.7" y="34" dominant-baseline="ideographic">ScheduledAgent</tspan></text></g></g></g><g id="g-root-tx_performs_1hclcgiyqgow9-fill" data-item-order="0" transform="translate(38, 290)"><g id="tx_performs_1hclcgiyqgow9-fill" stroke="none" fill="#2c2c2c"><g><text style="font-style: normal; font-variant-caps: normal; font-weight: normal; font-width: normal; font-size: 15px; line-height: normal; font-family: Roboto, sans-serif; font-size-adjust: none; font-kerning: auto; font-variant-alternates: normal; font-variant-ligatures: normal; font-variant-numeric: normal; font-variant-east-asian: normal; font-variant-position: normal; font-variant-emoji: normal; font-feature-settings: normal; font-optical-sizing: auto; font-variation-settings: normal; white-space: pre;"><tspan x="23.12" y="28" dominant-baseline="ideographic">Performs a single </tspan><tspan x="17.12" y="46" dominant-baseline="ideographic">task and then exits.</tspan></text></g></g></g><g id="g-root-tx_continuo_18f2wyayqi4uc-fill" data-item-order="0" transform="translate(230, 290)"><g id="tx_continuo_18f2wyayqi4uc-fill" stroke="none" fill="#2c2c2c"><g><text style="font-style: normal; font-variant-caps: normal; font-weight: normal; font-width: normal; font-size: 15px; line-height: normal; font-family: Roboto, sans-serif; font-size-adjust: none; font-kerning: auto; font-variant-alternates: normal; font-variant-ligatures: normal; font-variant-numeric: normal; font-variant-east-asian: normal; font-variant-position: normal; font-variant-emoji: normal; font-feature-settings: normal; font-optical-sizing: auto; font-variation-settings: normal; white-space: pre;"><tspan x="37" y="31" dominant-baseline="ideographic">Continuously </tspan><tspan x="12" y="49" dominant-baseline="ideographic">performs a task until </tspan><tspan x="17" y="67" dominant-baseline="ideographic">externally stopped.</tspan></text></g></g></g><g id="g-root-tx_executes_i0a2c2yqmbyn-fill" data-item-order="0" transform="translate(422, 290)"><g id="tx_executes_i0a2c2yqmbyn-fill" stroke="none" fill="#2c2c2c"><g><text style="font-style: normal; font-variant-caps: normal; font-weight: normal; font-width: normal; font-size: 15px; line-height: normal; font-family: Roboto, sans-serif; font-size-adjust: none; font-kerning: auto; font-variant-alternates: normal; font-variant-ligatures: normal; font-variant-numeric: normal; font-variant-east-asian: normal; font-variant-position: normal; font-variant-emoji: normal; font-feature-settings: normal; font-optical-sizing: auto; font-variation-settings: normal; white-space: pre;"><tspan x="16.27" y="28" dominant-baseline="ideographic">Executes at regular </tspan><tspan x="32.27" y="46" dominant-baseline="ideographic">time intervals.</tspan></text></g></g></g><g id="g-root-tx_responds_vvpuyqnrwi-fill" data-item-order="0" transform="translate(620, 290)"><g id="tx_responds_vvpuyqnrwi-fill" stroke="none" fill="#2c2c2c"><g><text style="font-style: normal; font-variant-caps: normal; font-weight: normal; font-width: normal; font-size: 15px; line-height: normal; font-family: Roboto, sans-serif; font-size-adjust: none; font-kerning: auto; font-variant-alternates: normal; font-variant-ligatures: normal; font-variant-numeric: normal; font-variant-east-asian: normal; font-variant-position: normal; font-variant-emoji: normal; font-feature-settings: normal; font-optical-sizing: auto; font-variation-settings: normal; white-space: pre;"><tspan x="32.54" y="31" dominant-baseline="ideographic">Responds to </tspan><tspan x="14.54" y="49" dominant-baseline="ideographic">external events or </tspan><tspan x="48.54" y="67" dominant-baseline="ideographic">signals.</tspan></text></g></g></g><g id="g-root-tx_runsbase_v7zq6qyqp3wt-fill" data-item-order="0" transform="translate(806, 290)"><g id="tx_runsbase_v7zq6qyqp3wt-fill" stroke="none" fill="#2c2c2c"><g><text style="font-style: normal; font-variant-caps: normal; font-weight: normal; font-width: normal; font-size: 15px; line-height: normal; font-family: Roboto, sans-serif; font-size-adjust: none; font-kerning: auto; font-variant-alternates: normal; font-variant-ligatures: normal; font-variant-numeric: normal; font-variant-east-asian: normal; font-variant-position: normal; font-variant-emoji: normal; font-feature-settings: normal; font-optical-sizing: auto; font-variation-settings: normal; white-space: pre;"><tspan x="26.36" y="28" dominant-baseline="ideographic">Runs based on a </tspan><tspan x="12.36" y="46" dominant-baseline="ideographic">predefined schedule.</tspan></text></g></g></g><g id="g-root-cp_1_g-1_8vwevmyqgq2t-stroke" data-item-order="-401870" transform="translate(26, 206)"><g id="cp_1_g-1_8vwevmyqgq2t-stroke" fill="none" stroke-linecap="round" stroke-linejoin="round" stroke-miterlimit="4" stroke="#2c2c2c" stroke-width="2"><g><path d="M 10 58L 10 46C 10 39.37 15.38 34 22 34L 70 34L 94 10L 118 34L 166 34C 172.63 34 178 39.37 178 46L 178 58M 178 58L 178 154M 10 154L 10 58M 178 154L 178 166C 178 172.63 172.63 178 166 178L 22 178C 15.37 178 10 172.63 10 166L 10 154"></path></g></g></g><g id="g-root-cp_2_g-2_1um6fkiyqgoav-stroke" data-item-order="-401846" transform="translate(218, 206)"><g id="cp_2_g-2_1um6fkiyqgoav-stroke" fill="none" stroke-linecap="round" stroke-linejoin="round" stroke-miterlimit="4" stroke="#2c2c2c" stroke-width="2"><g><path d="M 10 58L 10 46C 10 39.37 15.38 34 22 34L 70 34L 94 10L 118 34L 166 34C 172.63 34 178 39.37 178 46L 178 58M 178 58L 178 154M 10 154L 10 58M 178 154L 178 166C 178 172.63 172.63 178 166 178L 22 178C 15.37 178 10 172.63 10 166L 10 154"></path></g></g></g><g id="g-root-cp_3_g-3_1um6fkiyqgoax-stroke" data-item-order="-401822" transform="translate(410, 206)"><g id="cp_3_g-3_1um6fkiyqgoax-stroke" fill="none" stroke-linecap="round" stroke-linejoin="round" stroke-miterlimit="4" stroke="#2c2c2c" stroke-width="2"><g><path d="M 10 58L 10 46C 10 39.37 15.38 34 22 34L 70 34L 94 10L 118 34L 166 34C 172.63 34 178 39.37 178 46L 178 58M 178 58L 178 154M 10 154L 10 58M 178 154L 178 166C 178 172.63 172.63 178 166 178L 22 178C 15.37 178 10 172.63 10 166L 10 154"></path></g></g></g><g id="g-root-cp_4_g-4_1q6cxg2yqgp37-stroke" data-item-order="-401798" transform="translate(602, 206)"><g id="cp_4_g-4_1q6cxg2yqgp37-stroke" fill="none" stroke-linecap="round" stroke-linejoin="round" stroke-miterlimit="4" stroke="#2c2c2c" stroke-width="2"><g><path d="M 10 58L 10 46C 10 39.37 15.38 34 22 34L 70 34L 94 10L 118 34L 166 34C 172.63 34 178 39.37 178 46L 178 58M 178 58L 178 154M 10 154L 10 58M 178 154L 178 166C 178 172.63 172.63 178 166 178L 22 178C 15.37 178 10 172.63 10 166L 10 154"></path></g></g></g><g id="g-root-cp_5_g-5_1q6cxg2yqgp39-stroke" data-item-order="-401774" transform="translate(794, 206)"><g id="cp_5_g-5_1q6cxg2yqgp39-stroke" fill="none" stroke-linecap="round" stroke-linejoin="round" stroke-miterlimit="4" stroke="#2c2c2c" stroke-width="2"><g><path d="M 10 58L 10 46C 10 39.37 15.38 34 22 34L 70 34L 94 10L 118 34L 166 34C 172.63 34 178 39.37 178 46L 178 58M 178 58L 178 154M 10 154L 10 58M 178 154L 178 166C 178 172.63 172.63 178 166 178L 22 178C 15.37 178 10 172.63 10 166L 10 154"></path></g></g></g><g id="g-root-ic_2_mahaoiyqgpoi-stroke" data-item-order="0" transform="translate(50, 62)"><g id="ic_2_mahaoiyqgpoi-stroke" fill="none" stroke-linecap="round" stroke-linejoin="round" stroke-miterlimit="4" stroke="#ffe711" stroke-width="2"><g><path d="M 127.5 97.5C 127.5 114.068542 114.068542 127.5 97.5 127.5C 80.931465 127.5 67.500008 114.068542 67.500008 97.5C 67.500008 80.931458 80.931458 67.5 97.5 67.5M 10 10M 127.5 75L 100.150002 102.345001C 99.447525 103.048485 98.494171 103.443771 97.5 103.443771C 96.505844 103.443771 95.552483 103.048485 94.850006 102.345009L 86.25 93.75M 52.5 97.5L 12.5 97.5C 12.499504 84.698967 19.487509 72.918839 30.721817 66.782318C 41.956127 60.645805 55.644341 61.131954 66.415009 68.050003M 29.190001 22.959999C 35.836872 29.858391 45.005398 33.753975 54.584999 33.749996C 59.388962 33.754028 64.143013 32.775654 68.555 30.874998M 26.25 33.75C 26.25 45.486053 35.76395 55 47.5 55C 59.23605 55 68.75 45.486053 68.75 33.75C 68.75 22.013948 59.23605 12.5 47.5 12.5C 35.76395 12.5 26.25 22.013948 26.25 33.75Z"></path></g></g></g><g id="g-root-ic_circ_4hyc0iyqi39h-stroke" data-item-order="0" transform="translate(242, 62)"><g id="ic_circ_4hyc0iyqi39h-stroke" fill="none" stroke-linecap="round" stroke-linejoin="round" stroke-miterlimit="4" stroke="#f79438" stroke-width="2"><g><path d="M 65.714287 70L 125.714279 70M 108.571426 52.85714L 125.714279 70L 108.571426 87.142853M 110.285713 108.48571C 94.539482 124.898239 70.397766 130.091492 49.295517 121.605652C 28.193258 113.119804 14.36787 92.658844 14.36787 69.914284C 14.36787 47.169735 28.193258 26.708769 49.295517 18.222923C 70.397766 9.737077 94.539482 14.930333 110.285721 31.342857"></path></g></g></g><g id="g-root-ic_2_1uux2s2yqmbr4-stroke" data-item-order="0" transform="translate(434, 62)"><g id="ic_2_1uux2s2yqmbr4-stroke" fill="none" stroke-linecap="round" stroke-linejoin="round" stroke-miterlimit="4" stroke="#fb6762" stroke-width="2"><g><path d="M 43.09 69.980003L 70.019997 69.980003L 89.604996 94.459999M 100.614998 111.595001C 100.614281 115.718315 103.95668 119.06131 108.079994 119.06131C 112.203308 119.06131 115.545723 115.718315 115.544998 111.595001C 115.545723 107.471687 112.203308 104.128693 108.079994 104.128693C 103.95668 104.128693 100.614281 107.471687 100.614998 111.595001M 15.575 56.065002C 17.135347 49.887234 19.735815 44.020119 23.264999 38.714996M 35.224998 25.84C 40.199814 21.849216 45.846581 18.777784 51.900002 16.77M 69.209999 13.77C 75.578415 13.716849 81.912453 14.708337 87.959999 16.705M 103.5 24.865C 108.616043 28.664005 113.065018 33.287014 116.665001 38.545002M 124.059998 54.5C 125.816864 60.62706 126.528488 67.006409 126.165001 73.369995M 122.395004 90.524994C 120.20356 96.198547 117.02256 101.438141 112.999992 105.999992M 90.915001 122.220001C 73.585411 129.137665 53.95385 127.016541 38.501808 116.556946C 23.049768 106.097351 13.786375 88.659271 13.77 69.999992"></path></g></g></g><g id="g-root-ic_2_v4vcr6yqnq4j-stroke" data-item-order="0" transform="translate(626, 62)"><g id="ic_2_v4vcr6yqnq4j-stroke" fill="none" stroke-linecap="round" stroke-linejoin="round" stroke-miterlimit="4" stroke="#f366bb" stroke-width="2"><g><path d="M 112.5 72.5L 112.5 112.5C 112.5 120.784271 105.784271 127.5 97.5 127.5L 27.5 127.5C 19.215729 127.5 12.5 120.784271 12.5 112.5L 12.5 42.5C 12.5 34.215729 19.215729 27.5 27.5 27.5L 67.5 27.5M 77.5 37.5C 77.5 51.307121 88.692886 62.5 102.5 62.5C 116.307114 62.5 127.5 51.307121 127.5 37.5C 127.5 23.692883 116.307114 12.5 102.5 12.5C 88.692886 12.5 77.5 23.692883 77.5 37.5M 102.5 48.75C 103.190353 48.75 103.75 49.309647 103.75 50C 103.75 50.690353 103.190353 51.25 102.5 51.25C 101.809647 51.25 101.25 50.690353 101.25 50C 101.25 49.309647 101.809647 48.75 102.5 48.75M 102.5 38.75L 102.5 23.75"></path></g></g></g><g id="g-root-ic_cale_5voeqyqp4p2-stroke" data-item-order="0" transform="translate(818, 62)"><g id="ic_cale_5voeqyqp4p2-stroke" fill="none" stroke-linecap="round" stroke-linejoin="round" stroke-miterlimit="4" stroke="#cb68f9" stroke-width="2"><g><path d="M 41.095001 48.399998L 41.095001 33.150002C 41.103275 27.541883 45.651878 22.999994 51.259998 23L 117.334991 23C 122.943115 22.999994 127.491722 27.541883 127.5 33.149998L 127.5 99.224998C 127.5 104.838974 122.948975 109.389999 117.334991 109.389999L 89.380005 109.389999M 41.095001 43.315002L 127.5 43.315002M 84.299995 62.375L 105.849998 62.375L 88.610001 90.395004M 62.424999 12.82L 62.424999 31.98M 106.169998 12.82L 106.169998 31.98M 84.299995 12.82L 84.299995 31.98M 35.369999 92.869995C 35.369392 97.081596 38.783398 100.496101 42.994999 100.496101C 47.2066 100.496101 50.620609 97.081596 50.619999 92.869995C 50.620609 88.658394 47.2066 85.243896 42.994999 85.243896C 38.783398 85.243896 35.369392 88.658394 35.369999 92.869995M 49.470001 63.379997L 51.720001 70.760002C 52.486786 73.30468 55.094662 74.819557 57.684998 74.224998L 65.184998 72.489998C 68.100288 71.81958 71.111542 73.131592 72.605576 75.723175C 74.099609 78.314751 73.726044 81.578094 71.684998 83.764999L 66.449997 89.410004C 64.640221 91.363609 64.640221 94.381401 66.450005 96.335007L 71.645004 102C 73.677536 104.18412 74.050316 107.437508 72.564499 110.02478C 71.07869 112.612045 68.080818 113.929741 65.169998 113.274994L 57.670002 111.540001C 55.086098 110.953888 52.488571 112.464378 51.720001 115L 49.470001 122.384995C 48.612293 125.244522 45.980392 127.202835 42.994999 127.202835C 40.009605 127.202835 37.377708 125.244522 36.52 122.384995L 34.27 115C 33.520012 112.441948 30.909346 110.908844 28.309998 111.5L 20.809999 113.235001C 17.917334 113.858841 14.953082 112.541801 13.477183 109.976959C 12.001285 107.412109 12.352095 104.187469 14.344999 102L 19.585001 96.354996C 21.389957 94.399506 21.389957 91.385498 19.585001 89.43L 14.345 83.764999C 12.303955 81.578094 11.930387 78.314751 13.424421 75.723175C 14.918455 73.131592 17.929705 71.81958 20.844999 72.489998L 28.344999 74.224998C 30.933678 74.816597 33.538307 73.302322 34.305 70.759995L 36.555 63.379997C 37.431499 60.549393 40.049294 58.619572 43.012501 58.619572C 45.975704 58.619572 48.593498 60.549393 49.469997 63.379997Z"></path></g></g></g><g id="g-root-tx_oneshota_hteuduyqgoao-stroke" data-item-order="0" transform="translate(38, 254)"></g><g id="g-root-tx_loopinga_dbpx02yqi3gj-stroke" data-item-order="0" transform="translate(236, 254)"></g><g id="g-root-tx_periodic_1hi7m8iyqmb5y-stroke" data-item-order="0" transform="translate(422, 254)"></g><g id="g-root-tx_eventage_13ymxqqyqnqbl-stroke" data-item-order="0" transform="translate(632, 254)"></g><g id="g-root-tx_schedule_8zn9eayqp4w4-stroke" data-item-order="0" transform="translate(800, 254)"></g><g id="g-root-tx_performs_1hclcgiyqgow9-stroke" data-item-order="0" transform="translate(38, 290)"></g><g id="g-root-tx_continuo_18f2wyayqi4uc-stroke" data-item-order="0" transform="translate(230, 290)"></g><g id="g-root-tx_executes_i0a2c2yqmbyn-stroke" data-item-order="0" transform="translate(422, 290)"></g><g id="g-root-tx_responds_vvpuyqnrwi-stroke" data-item-order="0" transform="translate(620, 290)"></g><g id="g-root-tx_runsbase_v7zq6qyqp3wt-stroke" data-item-order="0" transform="translate(806, 290)"></g></g></g></svg>