<?xml version="1.0" encoding="utf-8" standalone="yes"?>
<!DOCTYPE svg PUBLIC "-//W3C//DTD SVG 1.1//EN" "http://www.w3.org/Graphics/SVG/1.1/DTD/svg11.dtd">
<svg width="982" height="492" viewBox="0 0 982 492" style="fill:none;stroke:none;fill-rule:evenodd;clip-rule:evenodd;stroke-linecap:round;stroke-linejoin:round;stroke-miterlimit:1.5;" version="1.1" xmlns="http://www.w3.org/2000/svg" xmlns:xlink="http://www.w3.org/1999/xlink"><style class="text-font-style fontImports" data-font-family="Roboto">@import url('https://fonts.googleapis.com/css2?family=Roboto:wght@400;700&amp;display=block');</style><g id="items" style="isolation: isolate"><g id="blend" style="mix-blend-mode: normal"><g id="g-root-cp_4_g-4_1uqisi9vym686-fill" data-item-order="-353800" transform="translate(126.66665649414062, 74)"><g id="cp_4_g-4_1uqisi9vym686-fill" stroke="none" fill="#4e88e7"><g><path d="M 130 10C 63.7258 10 10 63.7258 10 130C 10 196.2742 63.7258 250 130 250L 598 250C 664.2742 250 718 196.2742 718 130C 718 63.7258 664.2742 10 598 10L 130 10ZM 130 22C 70.3532 22 22 70.3532 22 130C 22 189.6468 70.3532 238 130 238L 442 238C 501.6468 238 550 189.6468 550 130C 550 70.3532 501.6468 22 442 22L 130 22Z"></path></g></g></g><g id="g-root-cp_4_line_1uqisi9vym688-fill" data-item-order="-353795" transform="translate(745.1666259765625, 308)"></g><g id="g-root-cp_3_g-3_1qapadtvym70i-fill" data-item-order="-353790" transform="translate(138.66665649414062, 86)"><g id="cp_3_g-3_1qapadtvym70i-fill" stroke="none" fill="#de8431"><g><path d="M 118 10C 58.3532 10 10 58.3532 10 118C 10 177.6468 58.3532 226 118 226L 430 226C 489.6468 226 538 177.6468 538 118C 538 58.3532 489.6468 10 430 10L 118 10ZM 118 22C 64.9807 22 22 64.9807 22 118C 22 171.0193 64.9807 214 118 214L 274 214C 327.0193 214 370 171.0193 370 118C 370 64.9807 327.0193 22 274 22L 118 22Z"></path></g></g></g><g id="g-root-cp_3_line_2_1qapadtvym70k-fill" data-item-order="-353785" transform="translate(577.1666259765625, 299)"></g><g id="g-root-cp_2_g-2_1qapadtvym70m-fill" data-item-order="-353780" transform="translate(150.66665649414062, 98)"><g id="cp_2_g-2_1qapadtvym70m-fill" stroke="none" fill="#7f64ea"><g><path d="M 106 10C 52.9807 10 10 52.9807 10 106C 10 159.0193 52.9807 202 106 202L 262 202C 315.0193 202 358 159.0193 358 106C 358 52.9807 315.0193 10 262 10L 106 10ZM 106 190C 152.3919 190 190 152.3919 190 106C 190 59.6081 152.3919 22 106 22C 59.6081 22 22 59.6081 22 106C 22 152.3919 59.6081 190 106 190Z"></path></g></g></g><g id="g-root-cp_2_line_4_1qapadtvym70o-fill" data-item-order="-353775" transform="translate(409.1666564941406, 289)"></g><g id="g-root-cp_1_g-1_1qapadtvym70q-fill" data-item-order="-353770" transform="translate(162.66665649414062, 110)"><g id="cp_1_g-1_1qapadtvym70q-fill" stroke="none" fill="#de58a9"><g><path d="M 178 94C 178 140.3919 140.3919 178 94 178C 47.6081 178 10 140.3919 10 94C 10 47.6081 47.6081 10 94 10C 140.3919 10 178 47.6081 178 94Z"></path></g></g></g><g id="g-root-cp_1_line_6_1luvs9dvym7t0-fill" data-item-order="-353765" transform="translate(240.16665649414062, 278)"></g><g id="g-root-tx_0_qpnd1tvynlky-fill" data-item-order="0" transform="translate(234.66665649414062, 182)"><g id="tx_0_qpnd1tvynlky-fill" stroke="none" fill="#ffffff"><g><text style="font-style: normal; font-variant-caps: normal; font-weight: bold; font-width: normal; font-size: 20px; line-height: normal; font-family: Roboto, sans-serif; font-size-adjust: none; font-kerning: auto; font-variant-alternates: normal; font-variant-ligatures: normal; font-variant-numeric: normal; font-variant-east-asian: normal; font-variant-position: normal; font-variant-emoji: normal; font-feature-settings: normal; font-optical-sizing: auto; font-variation-settings: normal; white-space: pre;"><tspan x="16.26" y="34" dominant-baseline="ideographic">0</tspan></text></g></g></g><g id="g-root-tx_60_1hbxwpdvynlkx-fill" data-item-order="0" transform="translate(396.6666564941406, 182)"><g id="tx_60_1hbxwpdvynlkx-fill" stroke="none" fill="#ffffff"><g><text style="font-style: normal; font-variant-caps: normal; font-weight: bold; font-width: normal; font-size: 20px; line-height: normal; font-family: Roboto, sans-serif; font-size-adjust: none; font-kerning: auto; font-variant-alternates: normal; font-variant-ligatures: normal; font-variant-numeric: normal; font-variant-east-asian: normal; font-variant-position: normal; font-variant-emoji: normal; font-feature-settings: normal; font-optical-sizing: auto; font-variation-settings: normal; white-space: pre;"><tspan x="16.26" y="34" dominant-baseline="ideographic">60</tspan></text></g></g></g><g id="g-root-tx_80_8x4edtvynls0-fill" data-item-order="0" transform="translate(564.6666259765625, 182)"><g id="tx_80_8x4edtvynls0-fill" stroke="none" fill="#ffffff"><g><text style="font-style: normal; font-variant-caps: normal; font-weight: bold; font-width: normal; font-size: 20px; line-height: normal; font-family: Roboto, sans-serif; font-size-adjust: none; font-kerning: auto; font-variant-alternates: normal; font-variant-ligatures: normal; font-variant-numeric: normal; font-variant-east-asian: normal; font-variant-position: normal; font-variant-emoji: normal; font-feature-settings: normal; font-optical-sizing: auto; font-variation-settings: normal; white-space: pre;"><tspan x="16.26" y="34" dominant-baseline="ideographic">80</tspan></text></g></g></g><g id="g-root-tx_100_qoeevlvynjev-fill" data-item-order="0" transform="translate(726.6666259765625, 182)"><g id="tx_100_qoeevlvynjev-fill" stroke="none" fill="#ffffff"><g><text style="font-style: normal; font-variant-caps: normal; font-weight: bold; font-width: normal; font-size: 20px; line-height: normal; font-family: Roboto, sans-serif; font-size-adjust: none; font-kerning: auto; font-variant-alternates: normal; font-variant-ligatures: normal; font-variant-numeric: normal; font-variant-east-asian: normal; font-variant-position: normal; font-variant-emoji: normal; font-feature-settings: normal; font-optical-sizing: auto; font-variation-settings: normal; white-space: pre;"><tspan x="16.39" y="34" dominant-baseline="ideographic">100</tspan></text></g></g></g><g id="g-root-tx_terminat_mdkpg1vym5fz-fill" data-item-order="0" transform="translate(204.66665649414062, 374)"><g id="tx_terminat_mdkpg1vym5fz-fill" stroke="none" fill="#de58a9"><g><text style="font-style: normal; font-variant-caps: normal; font-weight: bold; font-width: normal; font-size: 20px; line-height: normal; font-family: Roboto, sans-serif; font-size-adjust: none; font-kerning: auto; font-variant-alternates: normal; font-variant-ligatures: normal; font-variant-numeric: normal; font-variant-east-asian: normal; font-variant-position: normal; font-variant-emoji: normal; font-feature-settings: normal; font-optical-sizing: auto; font-variation-settings: normal; white-space: pre;"><tspan x="16.03" y="34" dominant-baseline="ideographic">Arrange</tspan></text></g></g></g><g id="g-root-tx_complete_zqa5zlvym615-fill" data-item-order="0" transform="translate(384.6666564941406, 374)"><g id="tx_complete_zqa5zlvym615-fill" stroke="none" fill="#7f64ea"><g><text style="font-style: normal; font-variant-caps: normal; font-weight: bold; font-width: normal; font-size: 20px; line-height: normal; font-family: Roboto, sans-serif; font-size-adjust: none; font-kerning: auto; font-variant-alternates: normal; font-variant-ligatures: normal; font-variant-numeric: normal; font-variant-east-asian: normal; font-variant-position: normal; font-variant-emoji: normal; font-feature-settings: normal; font-optical-sizing: auto; font-variation-settings: normal; white-space: pre;"><tspan x="17.41" y="34" dominant-baseline="ideographic">Start</tspan></text></g></g></g><g id="g-root-tx_activeag_1hit4nlvym5u3-fill" data-item-order="0" transform="translate(540.6666259765625, 374)"><g id="tx_activeag_1hit4nlvym5u3-fill" stroke="none" fill="#de8431"><g><text style="font-style: normal; font-variant-caps: normal; font-weight: bold; font-width: normal; font-size: 20px; line-height: normal; font-family: Roboto, sans-serif; font-size-adjust: none; font-kerning: auto; font-variant-alternates: normal; font-variant-ligatures: normal; font-variant-numeric: normal; font-variant-east-asian: normal; font-variant-position: normal; font-variant-emoji: normal; font-feature-settings: normal; font-optical-sizing: auto; font-variation-settings: normal; white-space: pre;"><tspan x="16.39" y="34" dominant-baseline="ideographic">Monitor</tspan></text></g></g></g><g id="g-root-tx_totalage_8vvg7lvynjlx-fill" data-item-order="0" transform="translate(702.6666259765625, 374)"><g id="tx_totalage_8vvg7lvynjlx-fill" stroke="none" fill="#4e88e7"><g><text style="font-style: normal; font-variant-caps: normal; font-weight: bold; font-width: normal; font-size: 20px; line-height: normal; font-family: Roboto, sans-serif; font-size-adjust: none; font-kerning: auto; font-variant-alternates: normal; font-variant-ligatures: normal; font-variant-numeric: normal; font-variant-east-asian: normal; font-variant-position: normal; font-variant-emoji: normal; font-feature-settings: normal; font-optical-sizing: auto; font-variation-settings: normal; white-space: pre;"><tspan x="13.02" y="34" dominant-baseline="ideographic">Shutdown</tspan></text></g></g></g><g id="g-root-cp_4_g-4_1uqisi9vym686-stroke" data-item-order="-353800" transform="translate(126.66665649414062, 74)"><g id="cp_4_g-4_1uqisi9vym686-stroke" fill="none" stroke-linecap="round" stroke-linejoin="round" stroke-miterlimit="4" stroke="#ffffff" stroke-width="2"><g><path d="M 130 10C 63.7258 10 10 63.7258 10 130C 10 196.2742 63.7258 250 130 250L 598 250C 664.2742 250 718 196.2742 718 130C 718 63.7258 664.2742 10 598 10L 130 10ZM 130 22C 70.3532 22 22 70.3532 22 130C 22 189.6468 70.3532 238 130 238L 442 238C 501.6468 238 550 189.6468 550 130C 550 70.3532 501.6468 22 442 22L 130 22Z"></path></g></g></g><g id="g-root-cp_4_line_1uqisi9vym688-stroke" data-item-order="-353795" transform="translate(745.1666259765625, 308)"><g id="cp_4_line_1uqisi9vym688-stroke" fill="none" stroke-linecap="round" stroke-linejoin="round" stroke-miterlimit="4" stroke="#484848" stroke-width="2"><g><path d="M 16.5 10L 16.5 64M 23 57.5L 16.5 64L 10 57.500001"></path></g></g></g><g id="g-root-cp_3_g-3_1qapadtvym70i-stroke" data-item-order="-353790" transform="translate(138.66665649414062, 86)"><g id="cp_3_g-3_1qapadtvym70i-stroke" fill="none" stroke-linecap="round" stroke-linejoin="round" stroke-miterlimit="4" stroke="#ffffff" stroke-width="2"><g><path d="M 118 10C 58.3532 10 10 58.3532 10 118C 10 177.6468 58.3532 226 118 226L 430 226C 489.6468 226 538 177.6468 538 118C 538 58.3532 489.6468 10 430 10L 118 10ZM 118 22C 64.9807 22 22 64.9807 22 118C 22 171.0193 64.9807 214 118 214L 274 214C 327.0193 214 370 171.0193 370 118C 370 64.9807 327.0193 22 274 22L 118 22Z"></path></g></g></g><g id="g-root-cp_3_line_2_1qapadtvym70k-stroke" data-item-order="-353785" transform="translate(577.1666259765625, 299)"><g id="cp_3_line_2_1qapadtvym70k-stroke" fill="none" stroke-linecap="round" stroke-linejoin="round" stroke-miterlimit="4" stroke="#484848" stroke-width="2"><g><path d="M 16.5 10L 16.5 73M 23 66.5L 16.5 73L 10 66.500001"></path></g></g></g><g id="g-root-cp_2_g-2_1qapadtvym70m-stroke" data-item-order="-353780" transform="translate(150.66665649414062, 98)"><g id="cp_2_g-2_1qapadtvym70m-stroke" fill="none" stroke-linecap="round" stroke-linejoin="round" stroke-miterlimit="4" stroke="#ffffff" stroke-width="2"><g><path d="M 106 10C 52.9807 10 10 52.9807 10 106C 10 159.0193 52.9807 202 106 202L 262 202C 315.0193 202 358 159.0193 358 106C 358 52.9807 315.0193 10 262 10L 106 10ZM 106 190C 152.3919 190 190 152.3919 190 106C 190 59.6081 152.3919 22 106 22C 59.6081 22 22 59.6081 22 106C 22 152.3919 59.6081 190 106 190Z"></path></g></g></g><g id="g-root-cp_2_line_4_1qapadtvym70o-stroke" data-item-order="-353775" transform="translate(409.1666564941406, 289)"><g id="cp_2_line_4_1qapadtvym70o-stroke" fill="none" stroke-linecap="round" stroke-linejoin="round" stroke-miterlimit="4" stroke="#484848" stroke-width="2"><g><path d="M 16.5 10L 16.5 83M 23 76.5L 16.5 83L 10 76.500001"></path></g></g></g><g id="g-root-cp_1_g-1_1qapadtvym70q-stroke" data-item-order="-353770" transform="translate(162.66665649414062, 110)"><g id="cp_1_g-1_1qapadtvym70q-stroke" fill="none" stroke-linecap="round" stroke-linejoin="round" stroke-miterlimit="4" stroke="#ffffff" stroke-width="2"><g><path d="M 178 94C 178 140.3919 140.3919 178 94 178C 47.6081 178 10 140.3919 10 94C 10 47.6081 47.6081 10 94 10C 140.3919 10 178 47.6081 178 94Z"></path></g></g></g><g id="g-root-cp_1_line_6_1luvs9dvym7t0-stroke" data-item-order="-353765" transform="translate(240.16665649414062, 278)"><g id="cp_1_line_6_1luvs9dvym7t0-stroke" fill="none" stroke-linecap="round" stroke-linejoin="round" stroke-miterlimit="4" stroke="#484848" stroke-width="2"><g><path d="M 16.5 10L 16.5 94M 23 87.5L 16.5 94L 10 87.500001"></path></g></g></g><g id="g-root-tx_0_qpnd1tvynlky-stroke" data-item-order="0" transform="translate(234.66665649414062, 182)"></g><g id="g-root-tx_60_1hbxwpdvynlkx-stroke" data-item-order="0" transform="translate(396.6666564941406, 182)"></g><g id="g-root-tx_80_8x4edtvynls0-stroke" data-item-order="0" transform="translate(564.6666259765625, 182)"></g><g id="g-root-tx_100_qoeevlvynjev-stroke" data-item-order="0" transform="translate(726.6666259765625, 182)"></g><g id="g-root-tx_terminat_mdkpg1vym5fz-stroke" data-item-order="0" transform="translate(204.66665649414062, 374)"></g><g id="g-root-tx_complete_zqa5zlvym615-stroke" data-item-order="0" transform="translate(384.6666564941406, 374)"></g><g id="g-root-tx_activeag_1hit4nlvym5u3-stroke" data-item-order="0" transform="translate(540.6666259765625, 374)"></g><g id="g-root-tx_totalage_8vvg7lvynjlx-stroke" data-item-order="0" transform="translate(702.6666259765625, 374)"></g></g></g></svg>