<?xml version="1.0" encoding="utf-8" standalone="yes"?>
<!DOCTYPE svg PUBLIC "-//W3C//DTD SVG 1.1//EN" "http://www.w3.org/Graphics/SVG/1.1/DTD/svg11.dtd">
<svg width="612" height="696" viewBox="0 0 612 696" style="fill:none;stroke:none;fill-rule:evenodd;clip-rule:evenodd;stroke-linecap:round;stroke-linejoin:round;stroke-miterlimit:1.5;" version="1.1" xmlns="http://www.w3.org/2000/svg" xmlns:xlink="http://www.w3.org/1999/xlink"><style class="text-font-style fontImports" data-font-family="Roboto">@import url('https://fonts.googleapis.com/css2?family=Roboto:wght@400;700&amp;display=block');</style><g id="items" style="isolation: isolate"><g id="blend" style="mix-blend-mode: normal"><g id="g-root-cp_3_shape-3_1cymkdn8e1l3b-fill" data-item-order="-318084" transform="translate(284.302734375, 104)"><g id="cp_3_shape-3_1cymkdn8e1l3b-fill" stroke="none" fill="#92bd39"><g><path d="M 27.696778 256L 15.696778 256L 15.696778 160L 27.696778 160L 27.696778 256ZM 32.2969 28.191L 27.6969 28.191L 27.6969 160L 15.6969 160L 15.6969 28.1909L 11.0169 28.1909C 10.2369 28.1909 9.7469 27.3409 10.1369 26.6609L 20.8599 10.4483C 21.2561 9.8494 22.1356 9.8508 22.5298 10.451L 33.1769 26.6609C 33.5769 27.341 33.0869 28.191 32.2969 28.191Z"></path></g></g></g><g id="g-root-cp_3_shape-3_1_18jfjcb8e1ipt-fill" data-item-order="-318074" transform="translate(32, 350)"><g id="cp_3_shape-3_1_18jfjcb8e1ipt-fill" stroke="none" fill="#92bd39"><g><path d="M 268 10.0994C 267.956 46.0337 243.972 64.3209 214 64.3209L 45.9999 64.3209C 26.1177 64.3209 10.000022 80.4233 10 100.3055L 539 100.3055C 539 80.4233 522.882 64.3209 503 64.3209L 335 64.3209C 305.027 64.3209 280.045 46.033 280 10.0974M 280 10L 268 10Z"></path></g></g></g><g id="g-root-cp_1_shape-1_18jfjcb8e1ipv-fill" data-item-order="-318064" transform="translate(32.499969482421875, 103.81640625)"><g id="cp_1_shape-1_18jfjcb8e1ipv-fill" stroke="none" fill="#3cc583"><g><path d="M 214.000203 292.183594L 45.999903 292.183494C 26.117703 292.183494 10.000003 276.081294 10.000003 256.199194L 10.000003 256.183594L 250.000203 256.183594C 250.000203 276.065794 233.882203 292.183594 214.000203 292.183594ZM 254.600031 28.374594L 250.000031 28.374594L 250.000031 160.183594L 10.000031 160.183594C 10.000052 140.301594 26.117731 124.504594 45.999931 124.504594L 172.000031 124.504594C 213.070031 124.504594 238.000031 94.374494 238.000031 55.034494L 238.000031 28.374494L 233.320031 28.374494C 232.540031 28.374494 232.050031 27.524494 232.440031 26.844494L 243.163031 10.631894C 243.559031 10.032994 244.439031 10.034394 244.833031 10.634594L 255.480031 26.844494C 255.880031 27.524594 255.390031 28.374594 254.600031 28.374594ZM 250.000031 160.183594L 250.000031 256.183594L 10.000031 256.183594L 10.000059 160.183594L 250.000031 160.183594Z"></path></g></g></g><g id="g-root-cp_2_shape-2_znsj3f8e1jil-fill" data-item-order="-318038" transform="translate(314.8775634765625, 103.81640625)"><g id="cp_2_shape-2_znsj3f8e1jil-fill" stroke="none" fill="#3cc583"><g><path d="M 51.622433 292.183655L 219.622433 292.183555C 239.504433 292.183555 255.622433 276.081355 255.622433 256.199255L 255.622433 256.183655L 15.622433 256.183655C 15.622433 276.065855 31.740133 292.183655 51.622433 292.183655ZM 11.022416 28.374594L 15.622416 28.374594L 15.622416 160.183594L 255.622016 160.183594C 255.622016 140.301594 239.505016 124.504594 219.623016 124.504594L 93.622416 124.504594C 52.552416 124.504594 27.622416 94.374494 27.622416 55.034494L 27.622416 28.374494L 32.302416 28.374494C 33.082416 28.374494 33.572416 27.524494 33.182416 26.844494L 22.459416 10.631894C 22.063216 10.032994 21.183716 10.034394 20.789516 10.634594L 10.142416 26.844494C 9.742416 27.524594 10.232416 28.374594 11.022416 28.374594ZM 15.62233 160.183594L 15.62233 256.183594L 255.62233 256.183594L 255.62233 160.183594L 15.62233 160.183594Z"></path></g></g></g><g id="g-root-cp_3_shape-3_2_znsj3f8e1jin-fill" data-item-order="-318012" transform="translate(32, 440)"><g id="cp_3_shape-3_2_znsj3f8e1jin-fill" stroke="none" fill="#92bd39"><g><path d="M 539 10L 539 105.9844L 10 105.9844L 10.000061 10L 539 10ZM 503 142.007813L 45.9999 142.007713C 26.1177 142.007713 10.000032 125.905513 10 106.023413L 10 106.007813L 539 106.007813C 539 125.890013 522.882 142.007813 503 142.007813Z"></path></g></g></g><g id="g-root-ic_4_hydxuz8e1kw4-fill" data-item-order="0" transform="translate(128.5, 242)"></g><g id="g-root-ic_4_qvw3wb4ia1an-fill" data-item-order="0" transform="translate(416.5, 242)"></g><g id="g-root-tx_identica_5uz6z8e1l36-fill" data-item-order="0" transform="translate(110.5, 302)"><g id="tx_identica_5uz6z8e1l36-fill" stroke="none" fill="#ffffff"><g><text style="font-style: normal; font-variant-caps: normal; font-weight: bold; font-width: normal; font-size: 20px; line-height: normal; font-family: Roboto, sans-serif; font-size-adjust: none; font-kerning: auto; font-variant-alternates: normal; font-variant-ligatures: normal; font-variant-numeric: normal; font-variant-east-asian: normal; font-variant-position: normal; font-variant-emoji: normal; font-feature-settings: normal; font-optical-sizing: auto; font-variation-settings: normal; white-space: pre;"><tspan x="16.48" y="34" dominant-baseline="ideographic">Agent 1</tspan></text></g></g></g><g id="g-root-tx_identica_18footn8e4c9b-fill" data-item-order="0" transform="translate(398, 302)"><g id="tx_identica_18footn8e4c9b-fill" stroke="none" fill="#ffffff"><g><text style="font-style: normal; font-variant-caps: normal; font-weight: bold; font-width: normal; font-size: 20px; line-height: normal; font-family: Roboto, sans-serif; font-size-adjust: none; font-kerning: auto; font-variant-alternates: normal; font-variant-ligatures: normal; font-variant-numeric: normal; font-variant-east-asian: normal; font-variant-position: normal; font-variant-emoji: normal; font-feature-settings: normal; font-optical-sizing: auto; font-variation-settings: normal; white-space: pre;"><tspan x="16.48" y="34" dominant-baseline="ideographic">Agent 2</tspan></text></g></g></g><g id="g-root-tx_firstide_18kohij8e1kw3-fill" data-item-order="0" transform="translate(62.5, 338)"><g id="tx_firstide_18kohij8e1kw3-fill" stroke="none" fill="#ffffff"><g><text style="font-style: normal; font-variant-caps: normal; font-weight: normal; font-width: normal; font-size: 15px; line-height: normal; font-family: Roboto, sans-serif; font-size-adjust: none; font-kerning: auto; font-variant-alternates: normal; font-variant-ligatures: normal; font-variant-numeric: normal; font-variant-east-asian: normal; font-variant-position: normal; font-variant-emoji: normal; font-feature-settings: normal; font-optical-sizing: auto; font-variation-settings: normal; white-space: pre;"><tspan x="14.02" y="31" dominant-baseline="ideographic">Using custom parameters</tspan></text></g></g></g><g id="g-root-tx_secondid_ddkn1n8e4d1k-fill" data-item-order="0" transform="translate(350, 338)"><g id="tx_secondid_ddkn1n8e4d1k-fill" stroke="none" fill="#ffffff"><g><text style="font-style: normal; font-variant-caps: normal; font-weight: normal; font-width: normal; font-size: 15px; line-height: normal; font-family: Roboto, sans-serif; font-size-adjust: none; font-kerning: auto; font-variant-alternates: normal; font-variant-ligatures: normal; font-variant-numeric: normal; font-variant-east-asian: normal; font-variant-position: normal; font-variant-emoji: normal; font-feature-settings: normal; font-optical-sizing: auto; font-variation-settings: normal; white-space: pre;"><tspan x="14.02" y="31" dominant-baseline="ideographic">Using custom parameters</tspan></text></g></g></g><g id="g-root-ic_sett_14148178djbic-fill" data-item-order="0" transform="translate(272, 428)"></g><g id="g-root-tx_customag_zk1rqj8dja4i-fill" data-item-order="0" transform="translate(224, 488)"><g id="tx_customag_zk1rqj8dja4i-fill" stroke="none" fill="#ffffff"><g><text style="font-style: normal; font-variant-caps: normal; font-weight: bold; font-width: normal; font-size: 20px; line-height: normal; font-family: Roboto, sans-serif; font-size-adjust: none; font-kerning: auto; font-variant-alternates: normal; font-variant-ligatures: normal; font-variant-numeric: normal; font-variant-east-asian: normal; font-variant-position: normal; font-variant-emoji: normal; font-feature-settings: normal; font-optical-sizing: auto; font-variation-settings: normal; white-space: pre;"><tspan x="17.42" y="34" dominant-baseline="ideographic">Custom Agent</tspan></text></g></g></g><g id="g-root-tx_customco_247u38djax7-fill" data-item-order="0" transform="translate(92, 524)"><g id="tx_customco_247u38djax7-fill" stroke="none" fill="#ffffff"><g><text style="font-style: normal; font-variant-caps: normal; font-weight: normal; font-width: normal; font-size: 15px; line-height: normal; font-family: Roboto, sans-serif; font-size-adjust: none; font-kerning: auto; font-variant-alternates: normal; font-variant-ligatures: normal; font-variant-numeric: normal; font-variant-east-asian: normal; font-variant-position: normal; font-variant-emoji: normal; font-feature-settings: normal; font-optical-sizing: auto; font-variation-settings: normal; white-space: pre;"><tspan x="15.27" y="31" dominant-baseline="ideographic">Custom-configured agent tailored for specific requirements.</tspan></text></g></g></g><g id="g-root-cp_3_shape-3_1cymkdn8e1l3b-stroke" data-item-order="-318084" transform="translate(284.302734375, 104)"><g id="cp_3_shape-3_1cymkdn8e1l3b-stroke" fill="none" stroke-linecap="round" stroke-linejoin="round" stroke-miterlimit="4" stroke="#ffffff" stroke-width="2"><g><path d="M 15.697266 160L 15.697266 256M 27.697266 256L 27.697266 160M 15.6969 160L 15.6969 28.1909L 11.0169 28.1909C 10.2369 28.1909 9.7469 27.3409 10.1369 26.6609L 20.8599 10.4483C 21.2561 9.8494 22.1356 9.8508 22.5298 10.451L 33.1769 26.6609C 33.5769 27.341 33.0869 28.191 32.2969 28.191L 27.6969 28.191L 27.6969 160"></path></g></g></g><g id="g-root-cp_3_shape-3_1_18jfjcb8e1ipt-stroke" data-item-order="-318074" transform="translate(32, 350)"><g id="cp_3_shape-3_1_18jfjcb8e1ipt-stroke" fill="none" stroke-linecap="round" stroke-linejoin="round" stroke-miterlimit="4" stroke="#ffffff" stroke-width="2"><g><path d="M 268 10C 268 46 244 64.3209 214 64.3209L 45.9999 64.3209C 26.1177 64.3209 10 80.4233 10 100.3055M 280 10C 280 46 304 64.3209 334 64.3209L 503.0002 64.3209C 522.8823 64.3209 539 80.4233 539 100.3055"></path></g></g></g><g id="g-root-cp_1_shape-1_18jfjcb8e1ipv-stroke" data-item-order="-318064" transform="translate(32.499969482421875, 103.81640625)"><g id="cp_1_shape-1_18jfjcb8e1ipv-stroke" fill="none" stroke-linecap="round" stroke-linejoin="round" stroke-miterlimit="4" stroke="#ffffff" stroke-width="2"><g><path d="M 10.000031 160.1836C 10.000031 140.3014 26.117731 124.3209 45.999931 124.3209L 172.000031 124.3209C 213.070031 124.3209 238.000031 94.1909 238.000031 54.8509L 238.000031 28.1909L 233.320031 28.1909C 232.540031 28.1909 232.050031 27.3409 232.440031 26.6609L 243.163131 10.4483C 243.559231 9.8494 244.438731 9.8508 244.833031 10.451L 255.480031 26.6609C 255.880031 27.341 255.390031 28.191 254.600031 28.191L 250.000031 28.191L 250.000031 160.1836M 250.000131 256.183594C 250.000131 276.065794 233.882331 292.191394 214.000131 292.191394L 45.999931 292.191294C 26.117731 292.191294 10.000031 276.081294 10.000031 256.199194L 10.000031 256.183594M 250.000131 256.183594L 250.000131 160.183594M 10.000031 160.183594L 10.000031 256.183594"></path></g></g></g><g id="g-root-cp_2_shape-2_znsj3f8e1jil-stroke" data-item-order="-318038" transform="translate(314.8775634765625, 103.81640625)"><g id="cp_2_shape-2_znsj3f8e1jil-stroke" fill="none" stroke-linecap="round" stroke-linejoin="round" stroke-miterlimit="4" stroke="#ffffff" stroke-width="2"><g><path d="M 255.622416 160.1836C 255.622416 140.3014 239.504716 124.3209 219.622616 124.3209L 93.622416 124.3209C 52.552416 124.3209 27.622416 94.1909 27.622416 54.8509L 27.622416 28.1909L 32.302416 28.1909C 33.082416 28.1909 33.572416 27.3409 33.182416 26.6609L 22.459416 10.4483C 22.063216 9.8494 21.183716 9.8508 20.789516 10.451L 10.142416 26.6609C 9.742416 27.341 10.232416 28.191 11.022416 28.191L 15.622416 28.191L 15.622416 160.1836M 15.622437 256.183594C 15.622437 276.065794 31.740137 292.183594 51.622437 292.183594L 219.622637 292.183494C 239.504737 292.183494 255.622437 276.081294 255.622437 256.199194L 255.622437 256.183594M 15.62233 256.183594L 15.62233 160.183594M 255.62233 160.183594L 255.62233 256.183594"></path></g></g></g><g id="g-root-cp_3_shape-3_2_znsj3f8e1jin-stroke" data-item-order="-318012" transform="translate(32, 440)"><g id="cp_3_shape-3_2_znsj3f8e1jin-stroke" fill="none" stroke-linecap="round" stroke-linejoin="round" stroke-miterlimit="4" stroke="#ffffff" stroke-width="2"><g><path d="M 539 105.9844L 539 10M 10.0001 10L 10 106M 539.0001 106.007813C 539.0001 125.890013 522.8823 142.007813 503.0001 142.007813L 45.9999 142.007713C 26.1177 142.007713 10 125.905513 10 106.023413L 10 106.007813"></path></g></g></g><g id="g-root-ic_4_hydxuz8e1kw4-stroke" data-item-order="0" transform="translate(128.5, 242)"><g id="ic_4_hydxuz8e1kw4-stroke" fill="none" stroke-linecap="round" stroke-linejoin="round" stroke-miterlimit="4" stroke="#ffffff" stroke-width="2"><g><path d="M 30.822599 50.535999L 30.822599 41.327202C 28.791519 39.445602 27.37508 36.995399 26.758181 34.296402C 26.141279 31.597401 26.3526 28.775021 27.364519 26.19796C 28.376459 23.62088 30.142 21.408859 32.430599 19.850719C 34.7192 18.29258 37.4244 17.46076 40.193001 17.463881C 50.686401 17.463881 52.951401 26.103781 56.6922 35.8078C 56.756401 35.974998 56.778801 36.154999 56.757801 36.332802C 56.736801 36.510399 56.673 36.680401 56.5718 36.827801C 56.4706 36.975403 56.334999 37.096199 56.176601 37.1796C 56.018398 37.263 55.842201 37.306801 55.663399 37.307198L 52.870602 37.307198L 52.870602 41.716801C 52.870602 42.8862 52.405998 44.007801 51.578999 44.834801C 50.751999 45.6618 49.630402 46.1264 48.460999 46.1264L 46.256199 46.1264L 46.256199 50.535999M 37.177399 50.535999L 37.177399 41.327202C 39.208401 39.445602 40.625 36.995399 41.241798 34.296402C 41.858803 31.597401 41.6474 28.775021 40.635399 26.19796C 39.6236 23.62088 37.858002 21.408859 35.569401 19.850719C 33.2808 18.29258 30.5756 17.46076 27.807039 17.463881C 17.313641 17.463881 15.04858 26.103781 11.30775 35.8078C 11.243662 35.974998 11.221142 36.154999 11.242128 36.332802C 11.263114 36.510399 11.32698 36.680401 11.428222 36.827801C 11.529466 36.975403 11.665056 37.096199 11.823308 37.1796C 11.981562 37.263 12.15774 37.306801 12.33666 37.307198L 15.129419 37.307198L 15.129419 41.716801C 15.129419 42.8862 15.594 44.007801 16.420959 44.834801C 17.247921 45.6618 18.36952 46.1264 19.539021 46.1264L 21.743839 46.1264L 21.743839 50.535999"></path></g></g></g><g id="g-root-ic_4_qvw3wb4ia1an-stroke" data-item-order="0" transform="translate(416.5, 242)"><g id="ic_4_qvw3wb4ia1an-stroke" fill="none" stroke-linecap="round" stroke-linejoin="round" stroke-miterlimit="4" stroke="#ffffff" stroke-width="2"><g><path d="M 30.822599 50.535999L 30.822599 41.327202C 28.791519 39.445602 27.37508 36.995399 26.758181 34.296402C 26.141279 31.597401 26.3526 28.775021 27.364519 26.19796C 28.376459 23.62088 30.142 21.408859 32.430599 19.850719C 34.7192 18.29258 37.4244 17.46076 40.193001 17.463881C 50.686401 17.463881 52.951401 26.103781 56.6922 35.8078C 56.756401 35.974998 56.778801 36.154999 56.757801 36.332802C 56.736801 36.510399 56.673 36.680401 56.5718 36.827801C 56.4706 36.975403 56.334999 37.096199 56.176601 37.1796C 56.018398 37.263 55.842201 37.306801 55.663399 37.307198L 52.870602 37.307198L 52.870602 41.716801C 52.870602 42.8862 52.405998 44.007801 51.578999 44.834801C 50.751999 45.6618 49.630402 46.1264 48.460999 46.1264L 46.256199 46.1264L 46.256199 50.535999M 37.177399 50.535999L 37.177399 41.327202C 39.208401 39.445602 40.625 36.995399 41.241798 34.296402C 41.858803 31.597401 41.6474 28.775021 40.635399 26.19796C 39.6236 23.62088 37.858002 21.408859 35.569401 19.850719C 33.2808 18.29258 30.5756 17.46076 27.807039 17.463881C 17.313641 17.463881 15.04858 26.103781 11.30775 35.8078C 11.243662 35.974998 11.221142 36.154999 11.242128 36.332802C 11.263114 36.510399 11.32698 36.680401 11.428222 36.827801C 11.529466 36.975403 11.665056 37.096199 11.823308 37.1796C 11.981562 37.263 12.15774 37.306801 12.33666 37.307198L 15.129419 37.307198L 15.129419 41.716801C 15.129419 42.8862 15.594 44.007801 16.420959 44.834801C 17.247921 45.6618 18.36952 46.1264 19.539021 46.1264L 21.743839 46.1264L 21.743839 50.535999"></path></g></g></g><g id="g-root-tx_identica_5uz6z8e1l36-stroke" data-item-order="0" transform="translate(110.5, 302)"></g><g id="g-root-tx_identica_18footn8e4c9b-stroke" data-item-order="0" transform="translate(398, 302)"></g><g id="g-root-tx_firstide_18kohij8e1kw3-stroke" data-item-order="0" transform="translate(62.5, 338)"></g><g id="g-root-tx_secondid_ddkn1n8e4d1k-stroke" data-item-order="0" transform="translate(350, 338)"></g><g id="g-root-ic_sett_14148178djbic-stroke" data-item-order="0" transform="translate(272, 428)"><g id="ic_sett_14148178djbic-stroke" fill="none" stroke-linecap="round" stroke-linejoin="round" stroke-miterlimit="4" stroke="#ffffff" stroke-width="2"><g><path d="M 42.625999 23.938C 42.626003 25.525267 43.912735 26.812 45.5 26.812C 47.087269 26.812 48.374001 25.525267 48.374001 23.938C 48.374001 22.350735 47.087269 21.064001 45.5 21.064001C 43.912735 21.064001 42.626003 22.350735 42.626003 23.938ZM 47.942001 12.816L 48.799999 15.6C 49.09008 16.55814 50.071972 17.128578 51.048 16.906L 53.872002 16.25C 54.969875 16.002541 56.100872 16.499344 56.661358 17.475264C 57.221848 18.451183 57.081005 19.678429 56.313999 20.501999L 54.338001 22.632C 53.655762 23.368252 53.655762 24.505749 54.337997 25.241999L 56.313999 27.372C 57.081005 28.195572 57.221848 29.422817 56.661358 30.398737C 56.100872 31.374655 54.969875 31.87146 53.872002 31.624001L 51.048 30.969999C 50.071651 30.745333 49.088425 31.316551 48.799999 32.276001L 47.952 35.059998C 47.627914 36.137844 46.635513 36.87574 45.509998 36.87574C 44.384487 36.87574 43.392086 36.137844 43.068001 35.059998L 42.220001 32.276001C 41.93158 31.316551 40.948349 30.745333 39.972 30.970001L 37.148003 31.624001C 36.050125 31.87146 34.919128 31.374655 34.358643 30.398737C 33.798157 29.422817 33.938995 28.195572 34.706001 27.372L 36.681999 25.242001C 37.364235 24.505749 37.364235 23.368252 36.681999 22.632L 34.706001 20.501999C 33.938995 19.678429 33.798157 18.451183 34.358643 17.475264C 34.919128 16.499344 36.050125 16.002541 37.148003 16.25L 39.972 16.906C 40.94471 17.122675 41.920132 16.553459 42.209999 15.6L 43.057999 12.816C 43.382084 11.738155 44.374485 11.000258 45.5 11.000258C 46.625515 11.000258 47.617916 11.738155 47.942001 12.816ZM 25 57L 26 45L 31 45L 31 38C 31 32.477154 26.522848 28 21 28C 15.477153 28 11 32.477154 11 38L 11 45L 16 45L 17 57ZM 14 18C 14 21.865993 17.134007 25 21 25C 24.865993 25 28 21.865993 28 18C 28 14.134007 24.865993 11 21 11C 17.134007 11 14 14.134007 14 18Z"></path></g></g></g><g id="g-root-tx_customag_zk1rqj8dja4i-stroke" data-item-order="0" transform="translate(224, 488)"></g><g id="g-root-tx_customco_247u38djax7-stroke" data-item-order="0" transform="translate(92, 524)"></g></g></g><path id="w1q8ux175brxtt" d="M65.283 12.757a.35.35 0 0 0 .584.157l5.203-5.141-6.183 3.523.396 1.461zm-2.216-11.7a.35.35 0 0 0-.522.305v3.111l3.276-1.868-2.754-1.548zm3.728 2.105l-4.25 2.421v2.445l6.391-3.644-2.141-1.222zm4.708 3.303a.35.35 0 0 0 0-.609l-1.592-.9-7.365 4.199v1.782a.35.35 0 0 0 .523.305l8.435-4.777z M44.542 2.513c0-.433.355-.783.792-.783s.792.35.792.783-.355.783-.792.783-.792-.35-.792-.783zm59.171 0c0-.433.355-.783.792-.783s.792.35.792.783-.355.783-.792.783-.792-.35-.792-.783zm-85.951 7.636h-1.27v-.487c-.276.201-.864.609-1.881.609-1.202 0-2.274-.794-2.137-2.078.118-1.106 1.153-1.584 1.848-1.727l2.17-.345c0-.539-.29-.956-1.064-1.006s-1.21.305-1.571 1.017l-1.124-.605c1.218-2.631 5.029-1.764 5.029.414v4.207zm-1.27-2.86c.006.396-.062 1.112-.819 1.59-.587.37-1.841.299-1.903-.395-.049-.555.461-.791.906-.898l1.816-.297zm72.662 2.86h-1.27v-.487c-.276.201-.864.609-1.881.609-1.202 0-2.274-.794-2.137-2.078.118-1.106 1.153-1.584 1.848-1.727l2.17-.345c0-.539-.29-.956-1.064-1.006s-1.21.305-1.571 1.017l-1.124-.605c1.218-2.631 5.029-1.764 5.029.414v4.207zm-1.27-2.86c.006.396-.062 1.112-.82 1.59-.587.37-1.841.299-1.903-.395-.049-.555.461-.791.906-.898l1.816-.297zM99.096 10.149H97.85v-8.45h1.246v4.895l2.68-2.559h1.738l-2.633 2.535 2.715 3.578h-1.556l-2.077-2.707-.867.844v1.863zm6.053-6.114h-1.255v6.113h1.255V4.035zm-59.2 0h-1.255v6.113h1.255V4.035zm5.584 6.113V1.697h1.255v2.695c.361-.346 1-.485 1.47-.485 1.452 0 2.477 1.082 2.457 2.448v3.792h-1.27v-3.68c0-.408-.214-1.339-1.315-1.339-.968 0-1.342.756-1.342 1.339v3.681h-1.255zm-4.76-4.894V4.039h.621a.45.45 0 0 0 .45-.45v-.855h1.251v1.305h1.309v1.215h-1.309v3.109c0 .293.105.664.648.664.365 0 .531-.035.736-.07v1.137s-.361.113-.857.113c-1.398 0-1.777-1.051-1.777-1.788V5.254h-1.071zM36.528 4.039h-1.394l2.191 6.106h1.125l1.234-3.918 1.238 3.918h1.129l2.188-6.106h-1.383l-1.359 3.93-1.256-3.93h-1.124l-1.242 3.957-1.348-3.957zM26.212 7.141c-.02 1.566 1.187 3.129 3.223 3.129 1.566 0 2.383-.918 2.734-1.719L31.172 8c-.315.399-.801 1.094-1.738 1.094-1.145 0-1.825-.781-1.891-1.52h4.625c.074-.284.148-.995-.03-1.559-.336-1.064-1.221-2.102-2.839-2.102s-3.088 1.152-3.088 3.227zm1.363-.75h3.348c-.055-.43-.566-1.301-1.623-1.301a1.79 1.79 0 0 0-1.725 1.301zm-8.758.75c.038 1.758 1.277 3.133 3.145 3.133 1.074 0 1.723-.477 1.961-.672v.547h1.242V1.703h-1.258v2.888c-.414-.36-1.062-.68-1.93-.68-1.91 0-3.198 1.473-3.16 3.23zm1.309-.08c0 1.119.723 1.978 1.836 1.978a1.88 1.88 0 0 0 1.94-1.904c0-1.371-1.011-1.99-1.972-1.99s-1.805.798-1.805 1.916zm76.683-.028C96.771 5.275 95.532 3.9 93.664 3.9c-1.074 0-1.723.477-1.961.672v-.547h-1.242v8.22h1.258V9.583c.414.36 1.063.68 1.93.68 1.91 0 3.198-1.473 3.16-3.23zm-1.309.08c0-1.119-.723-1.978-1.836-1.978a1.88 1.88 0 0 0-1.94 1.904c0 1.371 1.011 1.99 1.972 1.99S95.5 8.231 95.5 7.113zM106.441 10.173V4.036h1.254v.382c.361-.346 1-.485 1.47-.485 1.452 0 2.477 1.082 2.457 2.448v3.792h-1.27V6.492c0-.408-.214-1.339-1.315-1.339-.969 0-1.342.756-1.342 1.339v3.681h-1.254zm-30.383-.021V1.824h1.084l4.215 5.777V1.824h1.32v8.328h-1.094l-4.207-5.796v5.796h-1.319zM5.24 10.149H4V2.377h1.014l2.664 3.597 2.654-3.592h1.03v7.766h-1.256V4.762L7.678 8.068 5.24 4.742v5.407z" transform="translate(476, 662)" fill="#80808088" stroke="none"></path></svg>