<?xml version="1.0" encoding="utf-8" standalone="yes"?>
<!DOCTYPE svg PUBLIC "-//W3C//DTD SVG 1.1//EN" "http://www.w3.org/Graphics/SVG/1.1/DTD/svg11.dtd">
<svg width="644" height="240" viewBox="0 0 644 240" style="fill:none;stroke:none;fill-rule:evenodd;clip-rule:evenodd;stroke-linecap:round;stroke-linejoin:round;stroke-miterlimit:1.5;" version="1.1" xmlns="http://www.w3.org/2000/svg" xmlns:xlink="http://www.w3.org/1999/xlink"><style class="text-font-style fontImports" data-font-family="Shantell Sans">@import url(https://fonts.googleapis.com/css2?family=Shantell+Sans:wght@300..800&amp;amp;display=block);</style><g id="items" style="isolation: isolate"><g id="blend" style="mix-blend-mode: normal"><g id="g-root-ic_3_141rgb514uompu-fill" data-item-order="-1296" transform="translate(124, 68)"><g id="ic_3_141rgb514uompu-fill" stroke="none" fill="#1eabda"><g><path d="M 10 10M 45.400002 19.735001L 44.244999 18.505001C 44.126869 18.361143 44.126869 18.153856 44.244995 18.01L 45.385002 16.764999C 46.073349 16.055441 46.19659 14.970917 45.685001 14.125C 45.225315 13.240792 44.22662 12.778434 43.255001 13L 41.619999 13.39C 41.436058 13.421329 41.257061 13.312654 41.199997 13.135L 40.720001 11.53C 40.417645 10.604975 39.548065 9.984717 38.575001 10C 37.591106 9.999438 36.724213 10.646555 36.445 11.59L 35.949997 13.195C 35.925522 13.289361 35.863827 13.369761 35.779015 13.417822C 35.694199 13.465882 35.593525 13.477493 35.499996 13.45L 33.91 13C 32.952194 12.762666 31.954628 13.199871 31.480001 14.065001C 30.969839 14.908813 31.086506 15.989509 31.764999 16.705L 32.919998 17.950001C 33.038128 18.093857 33.038128 18.301144 32.919998 18.445L 31.764999 19.674999C 31.088886 20.39757 30.972651 21.480392 31.480001 22.33C 31.962885 23.185329 32.956188 23.614536 33.91 23.380001L 35.5 23.065001C 35.67709 23.026157 35.854031 23.131012 35.904999 23.305L 36.445 25C 36.752163 25.910814 37.613949 26.517706 38.574997 26.5C 39.541534 26.524338 40.411179 25.916191 40.720001 25L 41.199997 23.380001C 41.257385 23.203846 41.439102 23.10001 41.619995 23.139999L 43.255001 23.5C 44.24099 23.772648 45.286224 23.341068 45.792625 22.452211C 46.299026 21.563356 46.137306 20.444147 45.400002 19.735001ZM 38.574997 21.235001C 36.97971 21.226246 35.688881 19.93471 35.681004 18.339417C 35.673122 16.744122 36.95113 15.439898 38.546257 15.415387C 40.14138 15.390876 41.458858 16.655216 41.5 18.25C 41.500008 19.024385 41.19136 19.766838 40.642384 20.313002C 40.093403 20.859165 39.349373 21.163992 38.574997 21.16ZM 10 10M 32.064999 33.099998L 33.099998 32.169998C 33.949886 31.400846 34.225163 30.180801 33.78788 29.121231C 33.350594 28.061661 32.294979 27.390873 31.15 27.445L 29.755001 27.445C 29.413097 27.457756 29.081333 27.327526 28.839405 27.085598C 28.597475 26.843668 28.467245 26.511902 28.480001 26.17L 28.48 24.775002C 28.468161 23.678312 27.797653 22.696455 26.780481 22.286304C 25.763309 21.876154 24.599264 22.118273 23.829998 22.9L 22.900002 23.934999C 22.665112 24.180744 22.339947 24.319754 22 24.319754C 21.660053 24.319754 21.33489 24.180744 21.1 23.934999L 20.155001 22.900002C 19.390646 22.043682 18.168432 21.764233 17.107899 22.203308C 16.047363 22.642384 15.380364 23.703989 15.445 24.85L 15.52 26.244999C 15.531239 26.591021 15.401285 26.926733 15.160001 27.175001C 14.916783 27.41308 14.584859 27.538231 14.245 27.52L 12.85 27.52C 11.739643 27.501213 10.729782 28.160536 10.300316 29.184649C 9.87085 30.208759 10.108368 31.391176 10.9 32.169998L 11.934999 33.099998C 12.189715 33.330311 12.336553 33.65662 12.34 34C 12.340322 34.3442 12.192827 34.671967 11.934999 34.900002L 10.9 35.845001C 10.066636 36.603111 9.791586 37.798981 10.21 38.845001C 10.640215 39.915623 11.69706 40.600166 12.85 40.555L 14.245 40.48C 14.586903 40.467247 14.918667 40.597477 15.160597 40.839405C 15.402526 41.081333 15.532755 41.413101 15.52 41.755001L 15.445 43.150002C 15.388159 44.292953 16.054085 45.348839 17.110001 45.789997C 17.436565 45.931458 17.789127 46.002991 18.145 46.000004C 18.908962 45.997559 19.637344 45.676853 20.155001 45.115002L 21.1 44.064999C 21.33489 43.819256 21.660053 43.680248 22 43.680248C 22.339947 43.680248 22.665112 43.819256 22.900002 44.065002L 23.83 45.114998C 24.600882 45.967552 25.825085 46.242302 26.88636 45.800945C 27.947638 45.359589 28.615997 44.297771 28.555 43.149998L 28.555 41.755001C 28.534796 41.41193 28.666443 41.077328 28.914999 40.84C 29.155649 40.596432 29.4879 40.465714 29.83 40.48L 31.224998 40.555C 32.364452 40.598644 33.413437 39.937069 33.864998 38.889999C 34.283417 37.843983 34.008366 36.648109 33.175003 35.889999L 32.139999 34.945C 31.882174 34.716965 31.734678 34.389198 31.735001 34.045002C 31.706059 33.697464 31.826006 33.353973 32.064999 33.100002ZM 28 34C 28 37.313709 25.313709 40 22 40C 18.686291 40 16 37.313709 16 34C 16 30.686291 18.686291 28 22 28C 25.313709 28 28 30.686291 28 34Z"></path></g></g></g><g id="g-root-ic_1_18i7ioh14udd6v-fill" data-item-order="-1296" transform="translate(280, 68)"><g id="ic_1_18i7ioh14udd6v-fill" stroke="none" fill="#92bd39"><g><path d="M 20.5 25C 24.642136 25 28 21.642136 28 17.5C 28 13.357864 24.642136 10 20.5 10C 16.357864 10 13 13.357864 13 17.5C 13 21.642136 16.357864 25 20.5 25ZM 16.15 16.389999C 16.212025 16.159 16.378521 15.970304 16.6 15.88C 16.80916 15.782337 17.050838 15.782337 17.26 15.88C 18.887333 16.907425 20.765739 17.467833 22.690001 17.5C 23.157061 17.502375 23.623558 17.467262 24.085001 17.395C 24.320572 17.36516 24.557152 17.442186 24.73 17.605C 24.89225 17.772085 24.969549 18.003983 24.940001 18.235001C 24.558619 20.547079 22.466721 22.179489 20.131277 21.987482C 17.795834 21.795473 15.99864 19.843323 16 17.5C 16.002617 17.12513 16.053024 16.752121 16.15 16.389999ZM 30.76 32.994999C 30.990931 32.773113 31.051609 32.427246 30.91 32.139999C 29.041895 28.256514 25.124357 25.776764 20.815001 25.75C 15.834221 25.760162 11.444749 29.02335 10 33.790001C 9.940679 34.01693 9.984596 34.258472 10.12 34.449997C 10.258353 34.642754 10.482786 34.754967 10.72 34.749996L 28.719999 34.75C 28.918177 34.748848 29.107491 34.667709 29.244999 34.525002ZM 32.635002 44.110001C 32.695518 43.849796 32.615917 43.576866 32.424999 43.389999L 29.110001 40.074997C 28.925003 39.88105 28.647587 39.805916 28.389999 39.879997C 28.133549 39.938725 27.931131 40.135357 27.865 40.389999L 26.5 45.040001C 26.423365 45.3022 26.498465 45.585274 26.695 45.775002C 26.882895 45.974625 27.167854 46.050228 27.429998 45.969997L 32.080002 44.635002C 32.346947 44.574398 32.559669 44.373169 32.635002 44.110001ZM 10 10M 42.654999 34.345001L 38.154999 29.844999C 38.014175 29.703014 37.822479 29.623152 37.622501 29.623152C 37.422523 29.623152 37.230824 29.703014 37.09 29.844999L 29.59 37.345001C 29.302324 37.64172 29.302324 38.113277 29.59 38.41L 34.09 42.91C 34.237953 43.044186 34.430267 43.118977 34.630001 43.119999C 34.825104 43.118126 35.012424 43.043198 35.154999 42.909996L 42.654999 35.41C 42.796986 35.269176 42.87685 35.077477 42.87685 34.877499C 42.87685 34.677521 42.796986 34.485825 42.654999 34.345001ZM 39.220001 27.715C 39.07909 27.859859 38.998638 28.052944 38.994995 28.254999C 38.999405 28.452484 39.080029 28.640612 39.220001 28.779999L 43.720001 33.279999C 43.87685 33.416393 44.083267 33.481579 44.290001 33.459999C 44.501572 33.45229 44.701332 33.360508 44.844997 33.204998C 46.374527 31.671143 46.374527 29.188856 44.845001 27.654999C 44.091469 26.916368 43.075176 26.50765 42.020061 26.518904C 40.964951 26.530159 39.957607 26.960464 39.220001 27.715Z"></path></g></g></g><g id="g-root-ic_chec_v58x154sg06-fill" data-item-order="-1296" transform="translate(436, 68)"><g id="ic_chec_v58x154sg06-fill" stroke="none" fill="#ba5de5"><g><path d="M 43 15.655C 43.006054 14.753561 42.483814 13.932061 41.665001 13.555C 37.360935 11.660017 32.702526 10.703791 27.999998 10.75C 23.29747 10.703791 18.639061 11.660017 14.335 13.555C 13.516188 13.932061 12.993948 14.753561 13 15.655L 13 27.115C 12.980469 34.726967 17.64884 41.565563 24.744999 44.32L 26.349998 44.935001C 27.410313 45.35289 28.589687 45.35289 29.650002 44.935001L 31.255001 44.32C 38.351162 41.565563 43.019531 34.726967 43 27.115ZM 37.764999 22.360001L 28.764999 34.704998C 28.414055 35.182796 27.857822 35.466473 27.264999 35.470001C 26.771677 35.467705 26.298481 35.274124 25.945 34.93L 19 28C 18.266842 27.266842 18.266842 26.078159 19 25.345001C 19.733158 24.611843 20.921843 24.611843 21.655001 25.345001L 26.664999 30.355C 26.744488 30.432743 26.85438 30.471207 26.965 30.460001C 27.074289 30.457804 27.175398 30.40163 27.235001 30.309999L 34.735001 20.08C 35.381775 19.364338 36.466015 19.256182 37.241417 19.829979C 38.016819 20.403776 38.230335 21.472273 37.735001 22.299999Z"></path></g></g></g><g id="g-root-tx_builtina_1lr64pd14udfrf-fill" data-item-order="0" transform="translate(88, 128)"><g id="tx_builtina_1lr64pd14udfrf-fill" stroke="none" fill="#484848"><g><text style="font-style: normal; font-variant-caps: normal; font-weight: normal; font-width: normal; font-size: 20px; line-height: normal; font-family: &quot;Shantell Sans&quot;, cursive; font-size-adjust: none; font-kerning: auto; font-variant-alternates: normal; font-variant-ligatures: normal; font-variant-numeric: normal; font-variant-east-asian: normal; font-variant-position: normal; font-variant-emoji: normal; font-feature-settings: normal; font-optical-sizing: auto; font-variation-settings: normal; white-space: pre;"><tspan x="29.09" y="35" dominant-baseline="ideographic">Built-in </tspan><tspan x="16.09" y="59" dominant-baseline="ideographic">attributes</tspan></text></g></g></g><g id="g-root-tx_userdefi_qv9v0x154r2fd-fill" data-item-order="0" transform="translate(232, 128)"><g id="tx_userdefi_qv9v0x154r2fd-fill" stroke="none" fill="#484848"><g><text style="font-style: normal; font-variant-caps: normal; font-weight: normal; font-width: normal; font-size: 20px; line-height: normal; font-family: &quot;Shantell Sans&quot;, cursive; font-size-adjust: none; font-kerning: auto; font-variant-alternates: normal; font-variant-ligatures: normal; font-variant-numeric: normal; font-variant-east-asian: normal; font-variant-position: normal; font-variant-emoji: normal; font-feature-settings: normal; font-optical-sizing: auto; font-variation-settings: normal; white-space: pre;"><tspan x="12.5" y="35" dominant-baseline="ideographic">User-defined </tspan><tspan x="26.5" y="59" dominant-baseline="ideographic">attributes</tspan></text></g></g></g><g id="g-root-tx_validati_1lpwh8x154ikg0-fill" data-item-order="0" transform="translate(400, 128)"><g id="tx_validati_1lpwh8x154ikg0-fill" stroke="none" fill="#484848"><g><text style="font-style: normal; font-variant-caps: normal; font-weight: normal; font-width: normal; font-size: 20px; line-height: normal; font-family: &quot;Shantell Sans&quot;, cursive; font-size-adjust: none; font-kerning: auto; font-variant-alternates: normal; font-variant-ligatures: normal; font-variant-numeric: normal; font-variant-east-asian: normal; font-variant-position: normal; font-variant-emoji: normal; font-feature-settings: normal; font-optical-sizing: auto; font-variation-settings: normal; white-space: pre;"><tspan x="14.43" y="35" dominant-baseline="ideographic">Validation</tspan></text></g></g></g><g id="g-root-ic_3_141rgb514uompu-stroke" data-item-order="-1296" transform="translate(124, 68)"></g><g id="g-root-ic_1_18i7ioh14udd6v-stroke" data-item-order="-1296" transform="translate(280, 68)"></g><g id="g-root-ic_chec_v58x154sg06-stroke" data-item-order="-1296" transform="translate(436, 68)"></g><g id="g-root-tx_builtina_1lr64pd14udfrf-stroke" data-item-order="0" transform="translate(88, 128)"></g><g id="g-root-tx_userdefi_qv9v0x154r2fd-stroke" data-item-order="0" transform="translate(232, 128)"></g><g id="g-root-tx_validati_1lpwh8x154ikg0-stroke" data-item-order="0" transform="translate(400, 128)"></g></g></g></svg>